<ttFont>
          <CharString index="0">
            203 138 rmoveto
            117 hlineto
            4 46 1 11 hhcurveto
            40 -108 rlineto
            -29 11 8 -8 23 hhcurveto
            17 13 3 6 11 hvcurveto
            -203 539 rlineto
            2 -6 -22 2 24 callsubr
            -23 -2 -2 -7 hvcurveto
            -202 -538 2 -3 rlineto
            -3 8 12 -2 13 hhcurveto
            9 -57 callsubr
            51 140 rlineto
            13 49 -1 6 hhcurveto
            16 227 rmoveto
            9 23 17 51 11 39 rrcurveto
            4 hlineto
            13 -41 23 -66 14 -38 50 -136 rcurveline
            -12 -32 1 -5 hhcurveto
            -99 hlineto
            -5 -38 -1 -12 hhcurveto
            return
          </CharString>
          <CharString index="1">
            rmoveto
            -15 -17 -3 -6 callsubr
            -13 -2 -10 -19 callsubr
            2 -12 5 -13 vhcurveto
            -6 8 17 -2 15 hhcurveto
            15 15 2 6 10 hvcurveto
            4 13 2 12 11 vvcurveto
            11 -2 10 -4 13 vhcurveto
            5 -10 -15 3 -15 hhcurveto
            -196 hmoveto
            -16 -14 -3 -5 -10 hvcurveto
            -4 -13 -2 -10 -19 callsubr
            2 -12 4 -13 17 callsubr
            14 -2 16 hhcurveto
            14 18 2 6 8 hvcurveto
            5 13 2 12 11 vvcurveto
            11 -2 10 -5 13 -12 callgsubr
            -18 3 -14 hhcurveto
            endchar
          </CharString>
          <CharString index="2">
            226 180 rmoveto
            134 hlineto
            4 53 1 15 hhcurveto
            50 -151 rlineto
            -28 9 10 -8 23 hhcurveto
            18 13 3 7 11 hvcurveto
            -230 679 rlineto
            2 -8 -20 1 24 callsubr
            -19 -1 -2 -11 hvcurveto
            -229 -679 2 -3 rlineto
            -3 11 9 -2 15 hhcurveto
            10 -57 callsubr
            22 callsubr
            rlineto
            16 49 -1 6 hhcurveto
            31 311 rmoveto
            8 25 15 51 10 38 rrcurveto
            5 hlineto
            12 -44 19 -61 20 -59 66 -199 rcurveline
            -16 -39 1 -5 hhcurveto
            -118 hlineto
            -5 -39 -1 -15 hhcurveto
            return
          </CharString>
          <CharString index="3">
            9 20 -6 11 -15 10 -15 1 rlinecurve
            -13 -16 rlineto
            -15 -12 -14 -11 -16 hhcurveto
            -10 -14 4 5 -10 hvcurveto
            -62 30 rlineto
            7 -14 -18 7 -21 hhcurveto
            -37 -34 -24 -39 -18 hvcurveto
            -9 -20 5 -13 16 -9 15 -1 rlinecurve
            13 16 rlineto
            14 11 15 12 16 hhcurveto
            12 13 -5 -4 -14 callgsubr
          </CharString>
          <CharString index="4">
            rmoveto
            -14 -4 -16 -13 -7 -16 101 -127 rcurveline
            17 -3 28 -1 15 5 107 132 rcurveline
            -8 15 -10 11 -16 6 -102 -99 rcurveline
            endchar
          </CharString>
          <CharString index="5">
            120 271 rmoveto
            100 33 126 136 136 33 -126 -100 -100 -33 -126 -136 -136 -33 126 100 vhcurveto
            -74 hmoveto
            -88 29 -94 68 -54 -33 callsubr
            66 hhcurveto
            67 43 19 28 36 hvcurveto
            68 54 29 94 88 vvcurveto
            87 -29 96 -68 54 vhcurveto
            28 -36 -43 18 -67 hhcurveto
            -66 -44 -18 -28 -36 hvcurveto
            -42 callgsubr
            return
          </CharString>
          <CharString index="6">
            440 224 rmoveto
            3 24 1 16 24 vvcurveto
            118 -64 96 -128 -125 -74 -108 -148 -137 48 -121 148 68 67 24 32 46 vhcurveto
            -2 15 -11 22 -13 11 rrcurveto
            -25 -44 -48 -18 -54 hhcurveto
            -95 -34 71 104 -3 hvcurveto
            126 225 rmoveto
            88 34 -72 -85 hvcurveto
            -14 -248 vlineto
            102 4 44 69 78 hhcurveto
            return
          </CharString>
          <CharString index="7">
            165 -43 callsubr
            -39 vhcurveto
            -8 hlineto
            -10 -16 -1 -3 -22 hvcurveto
            -39 callgsubr
            -7 -9 vvcurveto
            -8 7 callgsubr
            9 hlineto
            31 10 -11 -37 hvcurveto
            -390 -49 callgsubr
            12 -57 callsubr
            return
          </CharString>
          <CharString index="8">
            521 489 rmoveto
            121 -76 76 -139 -63 -68 -2 -1 -69 vhcurveto
            -6 -6 rlineto
            -677 vlineto
            -69 callsubr
            14 12 -79 callgsubr
            291 108 vlineto
            68 24 -41 -53 20 hvcurveto
            60 -156 rlineto
            -30 12 11 -17 28 hhcurveto
            16 23 7 17 10 hvcurveto
            -23 18 -9 28 -10 25 -53 138 rcurveline
            -14 36 -23 34 -30 10 rrcurveto
            83 24 49 68 90 vvcurveto
            -350 138 rmoveto
            -1 37 64 0 34 hhcurveto
            113 28 -70 -67 -64 -28 -72 -113 -42 -50 -1 -1 -43 hvcurveto
            return
          </CharString>
          <CharString index="9">
            65 85 rmoveto
            -8 -13 -3 -13 -11 vvcurveto
            -9 1 -9 10 -30 vhcurveto
            378 hlineto
            41 12 17 25 13 -3 13 -4 12 hvcurveto
            -12 -26 -40 -4 -55 hhcurveto
            -136 hlineto
            -24 -35 -1 -4 -42 hvcurveto
            -3 3 26 38 30 42 23 36 rlinecurve
            269 422 rlineto
            8 13 4 11 10 vvcurveto
            9 -2 11 -8 29 vhcurveto
            -393 hlineto
            -4 -13 -2 -13 -36 callsubr
            173 hlineto
            24 110 2 5 23 hvcurveto
            3 -3 -30 -43 -25 -34 -22 -34 rlinecurve
            return
          </CharString>
          <CharString index="10">
            54 73 rmoveto
            -9 -13 -3 -9 -8 vvcurveto
            -10 3 -8 9 -25 vhcurveto
            296 hlineto
            41 12 13 22 11 -2 13 -4 10 hvcurveto
            -9 -23 -39 -3 -56 hhcurveto
            -56 hlineto
            -24 -42 -1 -2 -35 hvcurveto
            -3 3 23 30 33 40 23 32 rlinecurve
            189 259 rlineto
            8 11 4 9 8 vvcurveto
            9 -3 11 -9 24 vhcurveto
            -325 hlineto
            -3 -12 -1 -15 -6 vvcurveto
            -4 0 -11 9 callsubr
            124 hlineto
            44 71 2 3 23 hvcurveto
            3 -3 -26 -33 -30 -35 -22 -30 rlinecurve
            return
          </CharString>
          <CharString index="11">
            573 683 rmoveto
            -37 callgsubr
            -44 callsubr
            -450 vlineto
            -122 -64 -64 -106 -106 -64 64 122 vhcurveto
            407 vlineto
            30 -5 16 -31 vhcurveto
            -29 -68 callsubr
            -448 vlineto
            -163 101 -81 139 140 101 81 163 vhcurveto
            return
          </CharString>
          <CharString index="12">
            516 542 rmoveto
            2 -9 -14 -12 callsubr
            -12 -44 callsubr
            -355 vlineto
            -93 -53 -49 -94 -94 -53 49 93 vhcurveto
            313 vlineto
            30 -7 15 -30 vhcurveto
            -28 hlineto
            -5 -5 rlineto
            -353 vlineto
            -132 89 -67 128 128 88 67 132 vhcurveto
            return
          </CharString>
          <CharString index="13">
            rmoveto
            -13 -4 -15 -11 -6 -17 111 -103 rcurveline
            17 -3 31 1 18 2 110 107 rcurveline
            -4 14 -14 14 -14 5 -112 -80 rcurveline
            endchar
          </CharString>
          <CharString index="14">
            22 callgsubr
            hintmask 10101010
            511 545 rmoveto
            -26 hlineto
            -31 -6 -14 -31 hvcurveto
            -241 vlineto
            -40 4 -88 4 -45 vhcurveto
            -5 -1 -19 34 -19 36 -23 36 rlinecurve
            hintmask 11001010
            -216 351 rlineto
            2 -11 -20 1 -9 hhcurveto
            -8 -22 -1 -2 -12 hvcurveto
            -542 vlineto
            -2 12 14 -1 8 hhcurveto
            10 11 16 callgsubr
            282 vlineto
            39 -2 83 -3 48 vhcurveto
            4 hlineto
            19 -35 20 -32 22 -36 215 -349 rcurveline
            -2 11 20 -1 9 hhcurveto
            9 20 1 2 12 hvcurveto
            540 vlineto
            return
          </CharString>
          <CharString index="15">
            rmoveto
            2 -12 7 -18 13 -9 203 86 rcurveline
            -5 26 -14 26 -18 11 rrcurveto
            endchar
          </CharString>
          <CharString index="16">
            rmoveto
            -26 -8 -23 -23 -10 -22 162 -129 rcurveline
            14 4 12 13 6 12 rrcurveto
            endchar
          </CharString>
          <CharString index="17">
            38 38 rmoveto
            -26 41 57 -24 70 hhcurveto
            106 76 52 88 71 -48 43 -74 29 hvcurveto
            -59 23 rlineto
            -52 21 -26 20 35 vvcurveto
            46 38 30 55 51 48 -16 -14 31 vhcurveto
            14 14 7 21 19 vvcurveto
            18 -40 -60 14 -49 hhcurveto
            -90 -76 -51 -85 -73 60 -39 68 -26 hvcurveto
            57 -22 rlineto
            48 -18 27 -31 -34 vvcurveto
            -48 -1 -43 -33 -66 hhcurveto
            -51 -50 23 23 -41 hvcurveto
            -14 -11 -13 -22 -1 -17 rrcurveto
            return
          </CharString>
          <CharString index="18">
            rmoveto
            42 -23 26 -37 vhcurveto
            -8 hlineto
            -13 -24 -1 -3 -22 hvcurveto
            -39 callgsubr
            -7 -9 vvcurveto
            -8 7 callgsubr
            18 hlineto
            31 10 -11 -37 hvcurveto
            -442 vlineto
            -65 -13 -29 -55 -30 vhcurveto
            5 -20 8 -13 9 -10 rrcurveto
            120 38 -6 71 122 vvcurveto
            return
          </CharString>
          <CharString index="19">
            104 hmoveto
            -69 callsubr
            14 12 -79 callgsubr
            683 -39 callsubr
            -12 -53 callsubr
            7 callsubr
            return
          </CharString>
          <CharString index="20">
            84 146 rmoveto
            -84 33 -71 95 65 69 31 45 45 vhcurveto
            6 -33 17 -27 36 -14 15 7 12 16 5 12 rrcurveto
            -25 25 -3 42 43 vvcurveto
            return
          </CharString>
          <CharString index="21">
            287 414 rmoveto
            -6 -17 -25 -62 -10 -33 rrcurveto
            -4 hlineto
            -10 32 -17 50 -13 30 -100 241 rcurveline
            23 -9 -11 12 -20 hhcurveto
            -11 -14 -3 -12 -21 hvcurveto
            188 -449 rlineto
            -226 vlineto
            -2 9 13 -1 12 hhcurveto
            14 -70 callgsubr
            223 vlineto
            188 453 -3 6 rlineto
            3 -11 -11 2 -13 hhcurveto
            -9 -12 -1 -3 -10 hvcurveto
            return
          </CharString>
          <CharString index="22">
            479 471 rmoveto
            -4 14 6 -1 12 hhcurveto
            34 5 23 19 90 -86 97 -144 -140 -122 -110 -247 -181 70 -169 180 97 83 42 54 53 hvcurveto
            -6 17 -15 18 -18 11 rrcurveto
            -57 -65 -62 -23 -57 hhcurveto
            -115 -70 107 181 195 68 102 119 120 41 -93 -71 -2 hvcurveto
            return
          </CharString>
          <CharString index="23">
            423 352 rmoveto
            -3 11 7 -2 12 hhcurveto
            33 4 22 20 74 -63 91 -143 -127 -111 -85 -199 -144 63 -138 164 89 75 35 44 47 hvcurveto
            -4 16 -16 19 -17 11 rrcurveto
            -43 -57 -54 -21 -53 hhcurveto
            -101 -62 82 139 150 59 76 104 107 32 -75 -69 1 hvcurveto
            return
          </CharString>
          <CharString index="24">
            -2 9 -82 callsubr
            return
          </CharString>
          <CharString index="25">
            14 -1 12 -71 callsubr
            return
          </CharString>
          <CharString index="26">
            504 21 rmoveto
            -13 12 -14 24 -11 22 -58 123 rcurveline
            -25 51 -28 34 -53 7 9 8 9 10 8 11 147 212 rcurveline
            -6 7 rlineto
            1 -14 -12 1 -12 hhcurveto
            -28 -9 -12 -20 -14 hvcurveto
            -123 -182 -11 -15 -5 -4 -17 -1 rlinecurve
            -62 -3 rlineto
            235 -39 callsubr
            -13 1 -12 hhcurveto
            -12 -14 -64 callsubr
            -542 vlineto
            -2 9 14 -1 12 hhcurveto
            12 13 1 2 10 -44 callgsubr
            return
          </CharString>
          <CharString index="27">
            376 178 rmoveto
            -26 55 -26 28 -48 9 8 6 7 9 7 10 131 189 rcurveline
            -6 8 rlineto
            1 -13 -7 0 -13 hhcurveto
            -30 -10 -13 -22 -15 hvcurveto
            -111 -163 rlineto
            -8 -5 -7 -5 -9 hhcurveto
            -46 -3 rlineto
            409 vlineto
            -66 callsubr
            -729 vlineto
            -2 9 11 -77 callsubr
            222 vlineto
            2 23 20 1 13 hhcurveto
            58 19 -17 -58 26 hvcurveto
            48 -105 rlineto
            -31 13 10 -20 32 hhcurveto
            18 19 10 11 8 hvcurveto
            -17 11 -16 28 -15 34 rrcurveto
            return
          </CharString>
          <CharString index="28">
            vvcurveto
            -15 4 -19 3 callgsubr
            8 -6 21 -3 11 -1 -1 -34 -25 -32 -34 -19 -1 -14 10 -17 13 return
          </CharString>
          <CharString index="29">
            -6 8 25 -3 16 hhcurveto
            16 26 5 4 8 hvcurveto
            5 7 3 22 15 vvcurveto
            15 -4 19 4 callgsubr
            -8 6 -21 3 -11 1 1 34 25 32 34 19 1 14 -10 16 -13 6 rrcurveto
            -70 -31 -37 -56 -71 vvcurveto
            -21 4 -25 6 -12 vhcurveto
            return
          </CharString>
          <CharString index="30">
            -41 callgsubr
            13 -47 callsubr
            return
          </CharString>
          <CharString index="31">
            rmoveto
            -15 -15 -10 -17 -5 -22 rrcurveto
            -25 41 59 -16 51 hhcurveto
            163 23 111 139 hvcurveto
            443 vlineto
            2 -9 -12 -12 callsubr
            -14 7 callsubr
            -458 vlineto
            -126 -31 -48 -88 -40 -47 15 19 -31 vhcurveto
            return
          </CharString>
          <CharString index="32">
            301 491 rmoveto
            -127 -2 rlineto
            150 vlineto
            -6 6 rlineto
            -24 hlineto
            -32 -5 -17 -30 hvcurveto
            -108 vlineto
            -69 1 rlineto
            -39 callgsubr
            -7 0 callgsubr
            -7 -38 callgsubr
            69 1 rlineto
            -364 vlineto
            -51 35 -28 54 39 29 2 4 31 vhcurveto
            1 4 0 5 5 vvcurveto
            13 -2 14 -4 10 vhcurveto
            -77 hlineto
            -29 -10 17 24 hvcurveto
            345 vlineto
            127 -1 rlineto
            15 callgsubr
            10 vvcurveto
            10 -1 7 20 callgsubr
            return
          </CharString>
          <CharString index="33">
            rmoveto
            -142 hlineto
            -17 -25 -1 -3 -24 hvcurveto
            6 17 16 20 37 29 56 45 rcurveline
            48 39 34 34 62 vvcurveto
            62 -49 57 -78 -68 -44 -44 -49 -20 vhcurveto
            8 -10 21 -11 18 -3 rrcurveto
            37 17 28 26 36 hhcurveto
            39 27 -28 -38 -35 -16 -21 -41 -32 hvcurveto
            -61 -50 rlineto
            -46 -37 -37 -46 -39 vvcurveto
            -17 15 -14 6 -6 vhcurveto
            223 hlineto
            19 10 11 17 3 hvcurveto
            1 9 0 10 9 vvcurveto
            endchar
          </CharString>
          <CharString index="34">
            1 2 9 hvcurveto
            return
          </CharString>
          <CharString index="35">
            -14 17 -64 10 -98 vhcurveto
            11 -4 19 0 9 4 rrcurveto
            11 97 16 65 14 vvcurveto
            12 -2 13 -4 14 -12 callgsubr
            -17 5 -15 hhcurveto
            -18 -14 -5 -5 -9 hvcurveto
            -4 -14 -2 -13 -12 vvcurveto
            return
          </CharString>
          <CharString index="36">
            hhcurveto
            12 -70 callgsubr
            return
          </CharString>
          <CharString index="37">
            519 270 rmoveto
            93 -14 82 -78 59 vhcurveto
            29 -38 -71 12 -46 hhcurveto
            -71 -28 -1 -2 -76 hvcurveto
            -5 -5 rlineto
            -532 vlineto
            5 -5 rlineto
            -2 75 29 -1 71 hhcurveto
            46 71 11 29 38 hvcurveto
            79 59 13 81 93 vvcurveto
            -73 hmoveto
            -101 -25 -115 -151 vhcurveto
            -41 -31 -1 -36 hhcurveto
            435 vlineto
            36 31 -1 41 hhcurveto
            151 25 -116 -101 hvcurveto
            return
          </CharString>
          <CharString index="38">
            -2 9 13 -1 13 hhcurveto
            return
          </CharString>
          <CharString index="39">
            hlineto
            -6 -6 rlineto
            return
          </CharString>
          <CharString index="40">
            rmoveto
            7 -16 17 -16 16 -7 189 182 rcurveline
            5 13 0 24 -5 13 -195 186 rcurveline
            -16 -7 -17 -16 -7 -16 156 -173 rcurveline
            return
          </CharString>
          <CharString index="41">
            30 -5 17 -31 vhcurveto
            -25 -68 callsubr
            return
          </CharString>
          <CharString index="42">
            12 -77 callsubr
            return
          </CharString>
          <CharString index="43">
            -1 -2 -9 hvcurveto
            return
          </CharString>
          <CharString index="44">
            88 rmoveto
            6 -8 -24 4 -16 hhcurveto
            -17 -25 callgsubr
            19 -5 11 -2 rrcurveto
            -42 -31 -37 -45 -22 vhcurveto
            -1 -14 8 -18 13 -6 rrcurveto
            86 31 41 71 77 vvcurveto
            21 -4 25 -6 11 vhcurveto
            return
          </CharString>
          <CharString index="45">
            -72 rmoveto
            2 -6 6 -6 7 -3 rrcurveto
            3 7 10 2 8 hhcurveto
            34 15 -20 -24 -23 -14 -22 -36 -18 -21 6 8 -13 hvcurveto
            return
          </CharString>
          <CharString index="46">
            6 -8 -25 4 -16 hhcurveto
            -17 -25 -49 callsubr
            -22 -14 -79 callsubr
            -6 rrcurveto
            70 31 37 57 71 vvcurveto
            20 -4 26 -6 11 vhcurveto
            return
          </CharString>
          <CharString index="47">
            rmoveto
            -17 -18 -4 -6 -10 hvcurveto
            -4 -7 -3 -20 -19 callsubr
            3 -21 4 -7 17 callsubr
            18 -4 17 hhcurveto
            16 19 4 6 10 hvcurveto
            4 7 3 21 11 vvcurveto
            11 -3 20 4 callgsubr
            6 -10 -19 4 -16 hhcurveto
            endchar
          </CharString>
          <CharString index="48">
            hlineto
            25 17 10 18 callsubr
            2 10 0 return
          </CharString>
          <CharString index="49">
            -172 232 65 hstemhm
            53 226 -17 callgsubr
            279 232 rmoveto
            -28 callgsubr
            10 -47 callgsubr
            10 -2 9 vhcurveto
            -226 -17 callsubr
            -10 -40 callsubr
            -10 -4 callgsubr
          </CharString>
          <CharString index="50">
            12 -73 callsubr
            return
          </CharString>
          <CharString index="51">
            240 61 rmoveto
            -25 -27 -1 -3 -26 hvcurveto
            444 vlineto
            30 -6 14 -30 vhcurveto
            -29 hlineto
            -5 -5 rlineto
            -495 vlineto
            -29 18 -16 23 vhcurveto
            249 hlineto
            25 16 -24 callgsubr
            1 11 callgsubr
            7 vvcurveto
            return
          </CharString>
          <CharString index="52">
            -1 -12 59 193 53 148 59 return
          </CharString>
          <CharString index="53">
            -24 callgsubr
            2 11 callgsubr
            return
          </CharString>
          <CharString index="54">
            -23 callgsubr
            -13 return
          </CharString>
          <CharString index="55">
            rmoveto
            -57 45 -47 62 62 45 47 57 57 -45 46 -62 -62 -45 -46 -57 vhcurveto
            56 hmoveto
            33 22 24 29 29 22 -24 -33 -33 -22 -24 -29 -29 -22 24 33 vhcurveto
            endchar
          </CharString>
          <CharString index="56">
            0 60 186 59 178 59 return
          </CharString>
          <CharString index="57">
            89 -4 8 176 63 362 78 return
          </CharString>
          <CharString index="58">
            -6 -4 -8 -33 callgsubr
            return
          </CharString>
          <CharString index="59">
            8 vvcurveto
            7 0 return
          </CharString>
          <CharString index="60">
            11 -73 callsubr
            return
          </CharString>
          <CharString index="61">
            37 39 14 18 22 vhcurveto
            17 -8 12 -10 8 vhcurveto
            return
          </CharString>
          <CharString index="62">
            182 hstemhm
            return
          </CharString>
          <CharString index="63">
            -12 -64 callsubr
            return
          </CharString>
          <CharString index="64">
            425 rmoveto
            42 -23 26 return
          </CharString>
          <CharString index="65">
            -4 8 vhcurveto
            return
          </CharString>
          <CharString index="66">
            -50 0 callsubr
            56 -46 callsubr
            -9 -16 -24 -9 -24 -6 callgsubr
            return
          </CharString>
          <CharString index="67">
            -14 -11 callgsubr
            return
          </CharString>
          <CharString index="68">
            vlineto
            2 -10 return
          </CharString>
          <CharString index="69">
            -2 9 12 -1 11 hhcurveto
            13 10 -79 callgsubr
            387 -39 callsubr
            -10 15 callsubr
            -44 callsubr
            return
          </CharString>
          <CharString index="70">
            148 -12 60 587 60 return
          </CharString>
          <CharString index="71">
            -31 callgsubr
            -8 vhcurveto
            return
          </CharString>
          <CharString index="72">
            6 -68 callgsubr
            return
          </CharString>
          <CharString index="73">
            vlineto
            23 -1 15 22 vvcurveto
            7 41 -1 6 hhcurveto
            173 hlineto
            6 42 1 7 hhcurveto
            -22 -1 -15 -23 vvcurveto
            return
          </CharString>
          <CharString index="74">
            vhcurveto
            -28 36 44 -19 return
          </CharString>
          <CharString index="75">
            vlineto
            30 -5 17 -31 vhcurveto
            return
          </CharString>
          <CharString index="76">
            75 -12 57 452 57 return
          </CharString>
          <CharString index="77">
            15 -12 54 407 53 return
          </CharString>
          <CharString index="78">
            -20 -4 -6 -10 hvcurveto
            -4 -7 -3 -21 -19 callsubr
            3 -21 4 -6 17 callsubr
            20 -4 return
          </CharString>
          <CharString index="79">
            -24 callsubr
            -4 -40 callsubr
            -4 2 return
          </CharString>
          <CharString index="80">
            104 0 85 367 90 3 -20 return
          </CharString>
          <CharString index="81">
            -34 callgsubr
            -9 2 return
          </CharString>
          <CharString index="82">
            4 6 10 hvcurveto
            4 6 3 21 11 vvcurveto
            11 -3 21 4 callgsubr
            6 -10 return
          </CharString>
          <CharString index="83">
            hlineto
            -39 callgsubr
            return
          </CharString>
          <CharString index="84">
            16 12 vvcurveto
            return
          </CharString>
          <CharString index="85">
            -33 callgsubr
            -23 -12 vvcurveto
            return
          </CharString>
          <CharString index="86">
            166 0 82 516 85 return
          </CharString>
          <CharString index="87">
            -225 -3 689 return
          </CharString>
          <CharString index="88">
            -11 vvcurveto
            -11 return
          </CharString>
          <CharString index="89">
            -1 13 hhcurveto
            13 12 -79 callgsubr
            return
          </CharString>
          <CharString index="90">
            hlineto
            4 callsubr
            return
          </CharString>
          <CharString index="91">
            12 -41 callgsubr
            return
          </CharString>
          <CharString index="92">
            149 hstemhm
            return
          </CharString>
          <CharString index="93">
            hlineto
            -35 -156 15 -7 35 0 15 7 rlinecurve
            35 156 rlineto
            return
          </CharString>
          <CharString index="94">
            -24 callsubr
            -8 -14 vvcurveto
            -13 7 callgsubr
            endchar
          </CharString>
          <CharString index="95">
            1 -13 hhcurveto
            return
          </CharString>
          <CharString index="96">
            168 hstemhm
            return
          </CharString>
          <CharString index="97">
            -194 -21 27 -21 201 60 return
          </CharString>
          <CharString index="98">
            -60 0 57 377 56 return
          </CharString>
          <CharString index="99">
            -17 0 61 421 60 return
          </CharString>
          <CharString index="100">
            -4 -13 -2 -43 callgsubr
            return
          </CharString>
          <CharString index="101">
            -5 -8 hvcurveto
            -5 return
          </CharString>
          <CharString index="102">
            49 60 25 hvcurveto
            1 0 1 1 hhcurveto
            13 5 8 10 return
          </CharString>
          <CharString index="103">
            167 hstemhm
            return
          </CharString>
          <CharString index="104">
            -2 8 13 -1 13 hhcurveto
            14 13 -73 callsubr
            return
          </CharString>
          <CharString index="105">
            87 291 62 273 60 return
          </CharString>
          <CharString index="106">
            vlineto
            6 -6 rlineto
            return
          </CharString>
          <CharString index="107">
            vvcurveto
            -58 43 -32 return
          </CharString>
          <CharString index="108">
            162 -12 59 return
          </CharString>
          <CharString index="109">
            0 10 -2 return
          </CharString>
          <CharString index="110">
            -4 15 hhcurveto
            return
          </CharString>
          <CharString index="111">
            -2 -9 -1 return
          </CharString>
          <CharString index="112">
            15 44 418 hstemhm
            40 239 -39 239 return
          </CharString>
          <CharString index="113">
            3 -14 hhcurveto
            -10 -15 -2 -2 -5 hvcurveto
            endchar
          </CharString>
          <CharString index="114">
            -13 -64 callsubr
            return
          </CharString>
          <CharString index="115">
            46 115 46 hstemhm
            return
          </CharString>
          <CharString index="116">
            2 -8 vhcurveto
            return
          </CharString>
          <CharString index="117">
            hlineto
            2 10 return
          </CharString>
          <CharString index="118">
            -184 44 418 hstem
            40 239 vstem
            return
          </CharString>
          <CharString index="119">
            -173 hlineto
            -6 -41 -1 -7 hhcurveto
            21 1 return
          </CharString>
          <CharString index="120">
            96 -12 62 585 60 return
          </CharString>
          <CharString index="121">
            10 22 4 hvcurveto
            2 10 return
          </CharString>
          <CharString index="122">
            -12 callsubr
            -11 return
          </CharString>
          <CharString index="123">
            80 116 80 return
          </CharString>
          <CharString index="124">
            vhcurveto
            -6 10 return
          </CharString>
          <CharString index="125">
            22 3 hvcurveto
            return
          </CharString>
          <CharString index="126">
            -8 hvcurveto
            -4 return
          </CharString>
          <CharString index="127">
            515 218 -218 228 hstemhm
            return
          </CharString>
          <CharString index="128">
            vlineto
            51 33 55 32 48 hhcurveto
            endchar
          </CharString>
          <CharString index="129">
            60 182 return
          </CharString>
          <CharString index="130">
            -3 -22 -14 return
          </CharString>
          <CharString index="131">
            -10 hhcurveto
            -12 return
          </CharString>
          <CharString index="132">
            4 callsubr
            -9 -40 callsubr
            return
          </CharString>
          <CharString index="133">
            -38 callgsubr
            86 1 rlineto
            endchar
          </CharString>
          <CharString index="134">
            -12 61 447 58 return
          </CharString>
        <CharString name=".notdef">
          -318 endchar
        </CharString>
        <CharString name=".null">
          -504 endchar
        </CharString>
        <CharString name="A">
          -50 callsubr
          hstem
          27 539 vstem
          -105 callsubr
          endchar
        </CharString>
        <CharString name="AE">
          366 0 62 118 63 73 60 246 61 hstem
          408 69 vstem
          251 180 rmoveto
          90 hlineto
          5 47 1 15 hhcurveto
          -134 vlineto
          -29 16 -18 24 vhcurveto
          318 hlineto
          25 16 14 callsubr
          0 14 6 vvcurveto
          -276 hlineto
          -25 -19 -1 -1 -17 hvcurveto
          13 -16 callgsubr
          222 vlineto
          -1 21 22 0 16 hhcurveto
          211 10 callsubr
          1 12 2 callgsubr
          -1 12 20 callgsubr
          -211 hlineto
          -16 -22 -1 -21 hhcurveto
          186 vlineto
          26 -1 9 26 vvcurveto
          -1 22 22 1 16 hhcurveto
          259 18 callgsubr
          0 14 -48 callsubr
          10 -1 11 vhcurveto
          -384 hlineto
          -11 -19 -2 -6 -12 hvcurveto
          -350 -671 2 -3 rlineto
          -3 11 8 -2 14 hhcurveto
          11 17 -79 callgsubr
          94 182 rlineto
          15 41 -1 6 hhcurveto
          98 311 rmoveto
          15 32 22 44 16 38 rrcurveto
          5 hlineto
          1 1 rlineto
          -364 vlineto
          -16 -45 1 -5 hhcurveto
          -74 hlineto
          -5 -27 -1 -16 hhcurveto
          endchar
        </CharString>
        <CharString name="Aacute">
          -50 callsubr
          46 -15 callsubr
          27 539 -354 225 hintmask 11101000
          -105 callsubr
          hintmask 00010100
          37 526 -92 callsubr
        </CharString>
        <CharString name="Acircumflex">
          -50 callsubr
          50 -15 callgsubr
          27 539 -413 287 hintmask 11101000
          -105 callsubr
          hintmask 00010100
          231 496 -91 callgsubr
        </CharString>
        <CharString name="Adieresis">
          -50 callsubr
          62 78 hstemhm
          27 539 -407 16 callsubr
          hintmask 11101000
          -105 callsubr
          hintmask 00010110
          220 581 -106 callsubr
        </CharString>
        <CharString name="Agrave">
          -50 callsubr
          46 -15 callsubr
          27 539 -394 225 hintmask 11101000
          -105 callsubr
          hintmask 00010100
          34 636 -72 callgsubr
        </CharString>
        <CharString name="Aogonek">
          89 -217 51 162 8 176 63 362 78 hstem
          414 62 vstem
          27 4 rmoveto
          2 -3 rlineto
          -3 11 9 -2 15 hhcurveto
          10 -57 callsubr
          22 callsubr
          rlineto
          16 49 -1 6 hhcurveto
          134 hlineto
          4 53 1 15 hhcurveto
          50 -151 3 -11 4 -7 4 -6 rlinecurve
          -46 -35 -33 -48 -41 callsubr
          47 40 37 48 33 hvcurveto
          1 0 0 1 1 hvcurveto
          0 -1 0 1 vvcurveto
          -229 678 rlineto
          2 -8 -20 1 24 callsubr
          -19 -1 -2 -11 hvcurveto
          1 -192 rmoveto
          8 25 15 51 10 38 rrcurveto
          5 hlineto
          12 -44 19 -61 20 -59 66 -199 rcurveline
          -16 -39 1 -5 hhcurveto
          -118 hlineto
          -5 -39 -1 -15 hhcurveto
          endchar
        </CharString>
        <CharString name="Aring">
          89 -4 8 176 63 590 46 hstem
          189 57 102 56 vstem
          226 180 rmoveto
          134 hlineto
          4 53 1 15 hhcurveto
          50 -151 rlineto
          -28 9 10 -8 23 hhcurveto
          18 13 3 7 11 hvcurveto
          -229 675 rlineto
          40 15 27 38 44 vvcurveto
          57 -46 46 -61 -62 -46 -46 -57 -43 26 -38 40 -16 vhcurveto
          -228 -675 2 -3 rlineto
          -3 11 9 -2 15 hhcurveto
          10 -57 callsubr
          22 callsubr
          rlineto
          16 49 -1 6 hhcurveto
          31 311 rmoveto
          8 25 15 51 10 38 rrcurveto
          5 hlineto
          12 -44 19 -61 20 -59 66 -199 rcurveline
          -16 -39 1 -5 hhcurveto
          -118 hlineto
          -5 -39 -1 -15 hhcurveto
          71 534 rmoveto
          33 22 24 29 29 22 -24 -33 -33 -22 -24 -29 -29 -22 24 33 vhcurveto
          endchar
        </CharString>
        <CharString name="Atilde">
          -50 callsubr
          58 63 hstemhm
          27 539 -436 334 hintmask 11101000
          -105 callsubr
          hintmask 00000000
          140 513 -77 callgsubr
          hintmask 00010100
          -80 callgsubr
        </CharString>
        <CharString name="B">
          95 -3 60 271 62 236 60 hstemhm
          100 71 262 74 -41 74 hintmask 00000000
          hintmask 11110100
          106 683 rmoveto
          -6 -6 rlineto
          -671 -1 callsubr
          -1 69 52 -2 83 hhcurveto
          175 55 99 92 90 -62 67 -69 18 hvcurveto
          hintmask 11111000
          61 22 37 56 65 vvcurveto
          104 -55 76 -153 vhcurveto
          hintmask 11110100
          -63 -61 -2 -1 -69 hvcurveto
          201 -355 rmoveto
          126 33 -81 -54 -56 -23 -80 -126 hvcurveto
          -48 -50 -1 -48 hhcurveto
          272 vlineto
          299 vmoveto
          -1 37 59 0 34 hhcurveto
          hintmask 11111000
          113 19 -63 -55 -53 -23 -65 -112 hvcurveto
          -127 hlineto
          endchar
        </CharString>
        <CharString name="C">
          13 callsubr
          hstem
          58 75 vstem
          -85 callsubr
          endchar
        </CharString>
        <CharString name="CR">
          -318 endchar
        </CharString>
        <CharString name="Cacute">
          13 callsubr
          35 -15 callsubr
          58 75 100 225 hintmask 11010000
          -85 callsubr
          hintmask 00101000
          -246 298 -92 callsubr
        </CharString>
        <CharString name="Ccaron">
          13 callsubr
          43 -15 callgsubr
          58 75 42 287 hintmask 11010000
          -85 callsubr
          hintmask 00101000
          -270 404 -94 callsubr
        </CharString>
        <CharString name="Ccedilla">
          96 -22 callgsubr
          42 29 61 585 60 hstemhm
          58 75 223 62 hintmask 00000000
          hintmask 10111110
          267 -62 callsubr
          hintmask 01011100
          -20 callgsubr
          hintmask 10111110
          -18 callgsubr
          hintmask 10011100
          3 9 5 11 5 10 82 8 69 38 47 48 -6 17 -15 18 -18 11 rrcurveto
          -57 -65 -62 -23 -57 hhcurveto
          -115 -70 107 181 195 68 102 119 120 41 -93 -71 -2 hvcurveto
          -4 14 6 -1 12 hhcurveto
          34 5 23 19 90 -86 97 -144 -140 -122 -110 -247 -174 65 -163 165 -12 -3 callgsubr
        </CharString>
        <CharString name="D">
          131 -4 60 570 60 23 callgsubr
          330 74 vstem
          -71 callgsubr
          endchar
        </CharString>
        <CharString name="Dcaron">
          131 -4 60 570 60 51 -15 callgsubr
          100 71 -13 287 56 74 hintmask 11010100
          -71 callgsubr
          hintmask 00101000
          -309 533 -94 callsubr
        </CharString>
        <CharString name="E">
          58 -51 callgsubr
          hstem
          100 69 vstem
          -105 callgsubr
          317 -59 callsubr
          14 6 vvcurveto
          endchar
        </CharString>
        <CharString name="Eacute">
          58 -51 callgsubr
          46 -15 callsubr
          100 69 45 225 hintmask 11101000
          -105 callgsubr
          317 -59 callsubr
          14 6 vvcurveto
          hintmask 00010100
          -291 706 -92 callsubr
        </CharString>
        <CharString name="Ecaron">
          58 -51 callgsubr
          54 -15 callgsubr
          100 69 -13 287 hintmask 11101000
          -105 callgsubr
          317 -59 callsubr
          14 6 vvcurveto
          hintmask 00010100
          -315 812 -94 callsubr
        </CharString>
        <CharString name="Ecircumflex">
          58 -51 callgsubr
          50 -15 callgsubr
          100 69 -14 287 hintmask 11101000
          -105 callgsubr
          317 -59 callsubr
          14 6 vvcurveto
          hintmask 00010100
          -97 676 -91 callgsubr
        </CharString>
        <CharString name="Edieresis">
          58 -51 callgsubr
          62 78 hstemhm
          100 69 -8 16 callsubr
          hintmask 11101000
          -105 callgsubr
          317 -59 callsubr
          14 6 vvcurveto
          hintmask 00010110
          -108 761 -106 callsubr
        </CharString>
        <CharString name="Egrave">
          58 -51 callgsubr
          46 -15 callsubr
          100 69 5 225 hintmask 11101000
          -105 callgsubr
          317 -59 callsubr
          14 6 vvcurveto
          hintmask 00010100
          -294 816 -72 callgsubr
        </CharString>
        <CharString name="Eogonek">
          64 -217 51 166 62 254 60 246 61 hstem
          100 69 145 63 vstem
          -105 callgsubr
          251 hlineto
          -46 -31 -32 -47 -49 0 callsubr
          57 -46 callsubr
          -9 -17 -23 -9 -24 -6 callgsubr
          42 41 -5 callsubr
          2 14 rrcurveto
          2 10 0 14 6 vvcurveto
          endchar
        </CharString>
        <CharString name="Eth">
          148 -4 60 260 60 250 60 hstem
          116 71 330 74 vstem
          591 342 rmoveto
          116 -16 103 -86 74 vhcurveto
          36 -42 -75 15 -50 hhcurveto
          -78 -35 0 -3 -87 hvcurveto
          -6 -6 rlineto
          -301 -83 vlineto
          4 callsubr
          -8 -40 callsubr
          -8 9 callsubr
          83 -310 hlineto
          6 -6 rlineto
          -2 87 35 -2 78 hhcurveto
          50 75 15 36 42 hvcurveto
          87 74 15 104 117 vvcurveto
          -231 -26 rmoveto
          2 8 -35 callgsubr
          9 vhcurveto
          -173 251 hlineto
          52 34 -1 48 hhcurveto
          170 26 -153 -131 -130 -26 -156 -170 hvcurveto
          -48 -34 1 -52 hhcurveto
          259 vlineto
          endchar
        </CharString>
        <CharString name="Euro">
          65 -12 63 173 54 88 53 178 63 hstem
          105 73 vstem
          499 537 rmoveto
          18 11 14 19 6 17 rrcurveto
          50 -62 -75 26 -65 hhcurveto
          -145 -62 -104 -137 -18 hvcurveto
          -76 -17 callsubr
          -4 -40 callsubr
          -4 -38 callgsubr
          71 hlineto
          -1 -14 0 -14 -14 vvcurveto
          -16 0 -15 1 -15 vhcurveto
          -71 -28 callsubr
          -9 vhcurveto
          76 hlineto
          -135 19 63 -101 143 hhcurveto
          65 74 24 52 63 hvcurveto
          -6 17 -14 19 -18 11 rrcurveto
          -38 -51 -59 -22 -46 hhcurveto
          -90 -52 58 115 -17 hvcurveto
          232 -27 callgsubr
          10 vhcurveto
          -238 hlineto
          -1 14 0 16 16 vvcurveto
          14 0 14 1 14 vhcurveto
          238 -27 callgsubr
          9 vhcurveto
          -233 hlineto
          118 16 53 60 91 hhcurveto
          46 59 -22 -38 51 hvcurveto
          endchar
        </CharString>
        <CharString name="Euro.smcp">
          0 -12 60 137 53 68 53 135 60 -58 -20 hstemhm
          94 71 hintmask 00000000
          hintmask 11110100
          439 451 rmoveto
          hintmask 11101100
          17 10 14 18 4 17 rrcurveto
          hintmask 11110100
          40 -54 -63 18 -59 hhcurveto
          -126 -56 -85 -110 -17 hvcurveto
          -67 -17 callsubr
          -8 -11 24 callgsubr
          -6 -38 callgsubr
          62 hlineto
          -1 -12 0 -11 -12 vvcurveto
          -11 0 -11 1 -11 vhcurveto
          -62 -17 callsubr
          -7 -10 vvcurveto
          -11 1 -7 -38 callgsubr
          67 hlineto
          -111 17 55 -86 127 hhcurveto
          59 62 17 42 55 hvcurveto
          -4 16 -14 18 -17 10 rrcurveto
          -29 -45 -47 -14 -41 hhcurveto
          -76 -44 46 91 -16 hvcurveto
          197 hlineto
          15 callgsubr
          11 vvcurveto
          11 -1 6 -2 9 vhcurveto
          -202 hlineto
          -1 10 0 11 -46 callgsubr
          0 12 1 11 vhcurveto
          202 -29 callgsubr
          6 10 vvcurveto
          12 -1 7 -2 9 vhcurveto
          -196 hlineto
          89 16 43 46 76 hhcurveto
          41 47 -14 -29 45 hvcurveto
          endchar
        </CharString>
        <CharString name="F">
          9 316 61 244 62 23 callgsubr
          vstem
          171 hmoveto
          317 vlineto
          -1 21 21 0 16 hhcurveto
          205 hlineto
          2 11 1 11 2 callgsubr
          -1 12 -2 11 vhcurveto
          -205 hlineto
          -16 -21 -1 -21 hhcurveto
          103 vlineto
          47 -1 49 48 vvcurveto
          -2 29 37 0 46 hhcurveto
          161 hlineto
          30 14 10 23 9 -2 11 -3 9 hvcurveto
          -376 -68 callsubr
          -677 vlineto
          -69 callsubr
          13 -70 callgsubr
          endchar
        </CharString>
        <CharString name="G">
          132 -12 63 225 64 291 64 hstem
          58 75 362 69 vstem
          356 340 rmoveto
          -3 -9 -3 -13 -8 vvcurveto
          -23 11 -11 22 vhcurveto
          113 hlineto
          -1 -16 0 -20 -24 vvcurveto
          -141 vlineto
          -13 -36 -51 -11 -66 hhcurveto
          -139 -70 97 188 222 98 73 104 75 65 -26 -40 50 hvcurveto
          15 10 17 20 6 25 rrcurveto
          47 -54 -88 28 -80 hhcurveto
          -139 -144 -97 -261 -168 63 -181 208 91 83 19 25 61 hvcurveto
          259 vlineto
          35 -14 14 -42 vhcurveto
          endchar
        </CharString>
        <CharString name="H">
          163 322 62 23 callgsubr
          325 70 vstem
          496 hmoveto
          -3 callsubr
          683 vlineto
          -37 callgsubr
          17 callgsubr
          -8 hvcurveto
          -226 vlineto
          -28 1 -19 -27 vvcurveto
          -7 -49 1 -5 hhcurveto
          12 callgsubr
          19 28 vvcurveto
          226 -39 callsubr
          -12 -53 callsubr
          7 callsubr
          -683 vlineto
          -69 callsubr
          14 12 -79 callgsubr
          -36 callgsubr
          endchar
        </CharString>
        <CharString name="Hbar">
          173 322 63 113 61 hstem
          105 71 325 70 vstem
          176 hmoveto
          -36 callgsubr
          -249 vlineto
          -3 callsubr
          498 75 vlineto
          -28 callgsubr
          8 -47 callgsubr
          7 20 callgsubr
          -75 124 hlineto
          -37 callgsubr
          17 callgsubr
          -8 hvcurveto
          -124 -325 124 -39 callsubr
          -12 -53 callsubr
          7 callsubr
          -124 -75 vlineto
          -39 callgsubr
          -7 -14 vvcurveto
          -13 7 callgsubr
          75 -498 hlineto
          -69 callsubr
          14 12 -79 callgsubr
          265 385 rmoveto
          12 callgsubr
          18 28 vvcurveto
          41 325 -41 vlineto
          -28 1 -18 -27 vvcurveto
          -7 -49 1 -5 hhcurveto
          endchar
        </CharString>
        <CharString name="I">
          -20 callsubr
          hstem
          104 71 vstem
          -88 callsubr
          endchar
        </CharString>
        <CharString name="IJ">
          209 -10 61 -54 689 hstemhm
          104 71 382 70 hintmask 01100000
          -88 callsubr
          hintmask 10010000
          216 -598 -76 callsubr
          endchar
        </CharString>
        <CharString name="Iacute">
          -20 callsubr
          43 -15 callsubr
          55 225 -176 71 hintmask 10010000
          -88 callsubr
          hintmask 01100000
          -49 85 -92 callsubr
        </CharString>
        <CharString name="Icircumflex">
          -20 callsubr
          47 -15 callgsubr
          -4 287 -179 71 hintmask 10010000
          -88 callsubr
          hintmask 01100000
          145 55 -91 callgsubr
        </CharString>
        <CharString name="Idieresis">
          -20 callsubr
          59 78 hstemhm
          2 80 22 71 23 80 hintmask 10010000
          -88 callsubr
          hintmask 01101000
          134 140 -106 callsubr
        </CharString>
        <CharString name="Igrave">
          -20 callsubr
          43 -15 callsubr
          15 225 -136 71 hintmask 10010000
          -88 callsubr
          hintmask 01100000
          -52 195 -72 callgsubr
        </CharString>
        <CharString name="Itilde">
          -20 callsubr
          55 63 hstemhm
          -27 334 -203 71 hintmask 10010000
          -88 callsubr
          hintmask 00000000
          54 72 -77 callgsubr
          hintmask 01100000
          -80 callgsubr
        </CharString>
        <CharString name="J">
          -71 -10 61 hstem
          277 70 vstem
          40 85 -76 callsubr
          endchar
        </CharString>
        <CharString name="Jcircumflex">
          -71 -10 61 682 -15 callgsubr
          169 287 -179 70 hintmask 10010000
          40 85 -76 callsubr
          hintmask 01100000
          382 653 -91 callgsubr
        </CharString>
        <CharString name="K">
          76 321 62 292 10 23 callgsubr
          vstem
          -81 callgsubr
          endchar
        </CharString>
        <CharString name="Kcommaaccent">
          76 -54 callgsubr
          376 62 292 10 hstemhm
          100 71 110 73 hintmask 00011100
          -81 callgsubr
          hintmask 11100010
          -210 -78 -94 callgsubr
        </CharString>
        <CharString name="L">
          1 0 63 23 callgsubr
          vstem
          -56 callgsubr
          endchar
        </CharString>
        <CharString name="Ldot">
          1 0 63 246 79 hstemhm
          100 71 165 90 hintmask 10100000
          -56 callgsubr
          hintmask 01010000
          -137 286 -75 callgsubr
        </CharString>
        <CharString name="Lslash">
          5 0 63 hstem
          104 71 190 9 vstem
          175 640 rmoveto
          30 -5 16 -31 vhcurveto
          -29 -68 callsubr
          -320 vlineto
          -74 -23 -3 -17 0 -23 4 -17 rlinecurve
          5 -3 68 23 rlineto
          -252 vlineto
          -32 19 -16 22 vhcurveto
          284 -59 callsubr
          15 6 vvcurveto
          -215 hlineto
          -26 -30 -1 -2 -30 hvcurveto
          260 vlineto
          196 63 4 17 0 22 -5 18 rlinecurve
          -5 3 -190 -62 rlineto
          endchar
        </CharString>
        <CharString name="M">
          286 1 -20 126 74 428 74 hstem
          87 617 vstem
          87 1 rmoveto
          -3 8 14 -2 12 hhcurveto
          12 11 1 2 11 hvcurveto
          29 424 3 44 2 86 3 56 rlinecurve
          5 hlineto
          163 -502 rlineto
          -2 10 12 -1 13 hhcurveto
          11 13 1 2 11 hvcurveto
          163 502 rlineto
          5 hlineto
          2 -56 3 -86 3 -44 29 -424 rcurveline
          -2 11 10 -1 12 hhcurveto
          11 15 2 3 10 hvcurveto
          -53 682 rlineto
          3 -20 -20 0 -8 hhcurveto
          -10 -16 0 -3 -19 hvcurveto
          -119 -359 -12 -35 -27 -96 -2 -12 rlinecurve
          -5 hlineto
          -2 12 -27 96 -12 35 -119 359 rcurveline
          3 -17 -19 0 -9 hhcurveto
          -9 -22 0 -3 -17 hvcurveto
          endchar
        </CharString>
        <CharString name="N">
          -21 callsubr
          hstem
          100 66 338 65 vstem
          -96 callgsubr
          endchar
        </CharString>
        <CharString name="Nacute">
          -21 callsubr
          46 -15 callsubr
          100 66 86 225 27 65 hintmask 11010100
          -96 callgsubr
          hintmask 00101000
          -317 87 -92 callsubr
        </CharString>
        <CharString name="Ncaron">
          -21 callsubr
          54 -15 callgsubr
          100 66 28 287 23 65 hintmask 11010100
          -96 callgsubr
          hintmask 00101000
          -341 193 -94 callsubr
        </CharString>
        <CharString name="Ntilde">
          -21 callsubr
          58 63 hstemhm
          100 66 4 334 0 65 hintmask 11010100
          -96 callgsubr
          hintmask 00000000
          -214 74 -77 callgsubr
          hintmask 00101000
          -80 callgsubr
        </CharString>
        <CharString name="O">
          -37 callsubr
          hstem
          58 75 385 75 vstem
          -103 callgsubr
          endchar
        </CharString>
        <CharString name="OE">
          378 -51 callgsubr
          hstem
          58 75 288 68 vstem
          826 62 rmoveto
          -277 hlineto
          -25 -19 -1 -1 -17 hvcurveto
          13 -16 callgsubr
          222 vlineto
          -1 21 22 0 16 hhcurveto
          211 10 callsubr
          1 12 2 callgsubr
          -1 12 20 callgsubr
          -211 hlineto
          -16 -22 -1 -21 hhcurveto
          186 vlineto
          26 -1 9 26 vvcurveto
          -1 22 21 1 17 hhcurveto
          259 18 callgsubr
          1 14 -48 callsubr
          10 -2 11 vhcurveto
          -366 hlineto
          4 -34 -41 8 -42 hhcurveto
          -75 -49 -23 -35 -39 hvcurveto
          -76 -68 -30 -117 -110 vvcurveto
          -112 30 -116 76 -68 vhcurveto
          -35 39 49 -23 75 hhcurveto
          44 40 8 4 33 hvcurveto
          335 hlineto
          24 17 14 callsubr
          0 14 6 vvcurveto
          -500 -14 rmoveto
          -156 -37 163 131 131 37 162 157 30 35 -5 -5 29 hvcurveto
          -567 vlineto
          -6 -28 -34 -4 -33 hhcurveto
          endchar
        </CharString>
        <CharString name="Oacute">
          -37 callsubr
          34 -15 callsubr
          58 75 108 225 52 75 hintmask 11010100
          -103 callgsubr
          hintmask 00101000
          183 426 -92 callsubr
        </CharString>
        <CharString name="Ocircumflex">
          -37 callsubr
          38 -15 callgsubr
          58 75 49 287 49 75 hintmask 11010100
          -103 callgsubr
          hintmask 00101000
          377 396 -91 callgsubr
        </CharString>
        <CharString name="Odieresis">
          -37 callsubr
          50 78 hstemhm
          58 75 55 16 callsubr
          54 75 hintmask 11010010
          -103 callgsubr
          hintmask 00101100
          366 481 -106 callsubr
        </CharString>
        <CharString name="Ograve">
          -37 callsubr
          34 -15 callsubr
          58 75 68 225 92 75 hintmask 11010100
          -103 callgsubr
          hintmask 00101000
          180 536 -72 callgsubr
        </CharString>
        <CharString name="Oslash">
          148 -12 -20 20 60 587 60 -37 -20 hstemhm
          58 75 385 75 hintmask 00000000
          hintmask 10011100
          58 342 rmoveto
          -103 25 -106 63 -70 vhcurveto
          -42 -75 rlineto
          hintmask 01011100
          10 -13 24 -13 18 -1 36 63 rcurveline
          -23 34 42 -13 58 hhcurveto
          74 48 23 35 39 hvcurveto
          76 68 30 116 112 vvcurveto
          101 -25 107 -63 69 vhcurveto
          42 76 -10 13 -23 12 -18 2 rlinecurve
          -37 -64 rlineto
          hintmask 10101100
          23 -34 -42 14 -57 hhcurveto
          -74 -49 -23 -35 -39 hvcurveto
          hintmask 10011100
          -76 -68 -30 -117 -110 vvcurveto
          75 hmoveto
          hintmask 10101100
          131 37 162 156 42 34 -12 -21 27 vhcurveto
          -248 -474 rlineto
          hintmask 10011100
          -37 59 -11 82 73 vvcurveto
          385 hmoveto
          hintmask 01011100
          -131 -37 -163 -155 -43 -34 12 20 -26 vhcurveto
          247 475 rlineto
          hintmask 10011100
          36 -59 12 -82 -72 vvcurveto
          endchar
        </CharString>
        <CharString name="Otilde">
          -37 callsubr
          51 62 hstemhm
          58 75 33 324 28 75 hintmask 11010100
          -103 callgsubr
          hintmask 00000000
          287 417 rmoveto
          -6 13 17 -7 21 hhcurveto
          32 34 19 43 19 hvcurveto
          hintmask 00101000
          9 20 -6 11 -15 10 -14 1 rlinecurve
          -12 -16 rlineto
          -15 -12 -13 -11 -16 hhcurveto
          -9 -14 4 5 -9 hvcurveto
          -60 30 rlineto
          6 -13 -17 7 -20 hhcurveto
          -36 -32 -23 -38 -18 hvcurveto
          -8 -20 5 -13 15 -9 14 -1 rlinecurve
          13 16 rlineto
          14 10 15 12 15 hhcurveto
          11 13 -5 -4 8 hvcurveto
          endchar
        </CharString>
        <CharString name="P">
          49 260 60 306 60 23 callgsubr
          267 75 vstem
          513 473 rmoveto
          141 -92 72 -126 -63 -57 -2 -1 -69 vhcurveto
          -6 -6 rlineto
          -677 vlineto
          -69 callsubr
          14 12 -79 callgsubr
          260 124 vlineto
          128 90 74 139 hvcurveto
          -342 154 rmoveto
          -1 37 56 0 34 hhcurveto
          112 28 -82 -71 -68 -28 -85 -112 -27 -58 0 -1 -42 hvcurveto
          endchar
        </CharString>
        <CharString name="Q">
          135 -117 53 52 63 584 60 hstem
          58 75 373 75 vstem
          464 -98 rmoveto
          -12 18 17 -7 23 hhcurveto
          22 27 14 39 3 hvcurveto
          -31 1 -26 10 -70 51 -22 15 rcurveline
          20 7 18 12 19 16 rrcurveto
          76 68 23 117 109 vvcurveto
          107 -25 122 -76 68 vhcurveto
          35 -39 -48 21 -73 hhcurveto
          -74 -48 -21 -35 -39 hvcurveto
          -76 -68 -25 -122 -107 vvcurveto
          -109 25 -121 76 -68 vhcurveto
          -35 39 54 -21 74 hhcurveto
          5 5 0 1 5 hvcurveto
          -208 353 rmoveto
          133 31 160 156 155 31 -160 -133 -133 -31 -158 -155 -156 -31 158 133 vhcurveto
          endchar
        </CharString>
        <CharString name="R">
          -2 callsubr
          23 callgsubr
          276 74 vstem
          -99 callsubr
          endchar
        </CharString>
        <CharString name="Racute">
          -2 callsubr
          43 -15 callsubr
          100 71 39 225 12 74 hintmask 11010100
          -99 callsubr
          hintmask 00101000
          39 417 -92 callsubr
        </CharString>
        <CharString name="Rcaron">
          -2 callsubr
          51 -15 callgsubr
          100 71 -19 287 8 74 hintmask 11010100
          -99 callsubr
          hintmask 00101000
          15 523 -94 callsubr
        </CharString>
        <CharString name="Rcommaaccent">
          87 -54 callgsubr
          346 62 273 60 hstemhm
          100 71 110 73 93 74 hintmask 00011101
          -99 callsubr
          hintmask 11100010
          176 -409 -94 callgsubr
        </CharString>
        <CharString name="S">
          -10 callgsubr
          hstemhm
          72 71 289 73 hintmask 00000000
          hintmask 10111000
          40 63 rmoveto
          -45 62 85 -30 84 hhcurveto
          159 75 81 111 92 -72 54 -77 33 hvcurveto
          -113 49 rlineto
          -53 23 -47 30 56 vvcurveto
          hintmask 11011000
          70 61 47 85 50 62 -19 -27 53 vhcurveto
          hintmask 10111000
          17 14 12 25 -1 20 rrcurveto
          hintmask 11011000
          25 -52 -68 23 -76 hhcurveto
          -133 -81 -85 -99 -78 48 -51 85 -37 hvcurveto
          117 -51 60 -26 51 -41 -1 -63 rlinecurve
          -71 -1 -61 -42 -96 hhcurveto
          -67 -74 28 41 -59 hvcurveto
          hintmask 10111000
          -16 -12 -16 -23 -2 -22 rrcurveto
          endchar
        </CharString>
        <CharString name="Sacute">
          -10 callgsubr
          102 -15 callsubr
          72 71 60 225 4 -78 callgsubr
          163 705 -92 callsubr
        </CharString>
        <CharString name="Scaron">
          -10 callgsubr
          110 -15 callgsubr
          72 71 2 287 0 -78 callgsubr
          139 811 -94 callsubr
        </CharString>
        <CharString name="T">
          -23 622 61 hstem
          205 71 vstem
          -62 callgsubr
          endchar
        </CharString>
        <CharString name="Tcaron">
          -23 622 61 54 -15 callgsubr
          97 287 -179 71 hintmask 10010000
          -62 callgsubr
          hintmask 01100000
          -74 251 -94 callsubr
        </CharString>
        <CharString name="Thorn">
          53 151 60 307 60 23 callgsubr
          265 75 vstem
          100 hmoveto
          -69 callsubr
          14 12 -79 callgsubr
          151 122 vlineto
          128 90 74 140 141 -92 72 -126 -41 -42 -2 -1 -39 hvcurveto
          108 -39 callsubr
          -12 -53 callsubr
          7 callsubr
          196 -165 rmoveto
          112 28 -83 -70 -68 -28 -86 -112 -26 -57 0 -1 -42 hvcurveto
          309 vlineto
          -1 43 51 0 31 hhcurveto
          endchar
        </CharString>
        <CharString name="U">
          1 callsubr
          hstem
          92 71 340 70 vstem
          -96 callsubr
          endchar
        </CharString>
        <CharString name="Uacute">
          1 callsubr
          682 -15 callsubr
          92 71 85 225 30 70 hintmask 10101000
          -96 callsubr
          hintmask 01010000
          -325 536 -92 callsubr
        </CharString>
        <CharString name="Ucircumflex">
          1 callsubr
          686 -15 callgsubr
          92 71 26 287 27 70 hintmask 10101000
          -96 callsubr
          hintmask 01010000
          -131 506 -91 callgsubr
        </CharString>
        <CharString name="Udieresis">
          1 callsubr
          698 78 hstemhm
          92 71 32 16 callsubr
          32 70 hintmask 10100100
          -96 callsubr
          hintmask 01011000
          -142 591 -106 callsubr
        </CharString>
        <CharString name="Ugrave">
          1 callsubr
          682 -15 callsubr
          92 71 45 225 70 70 hintmask 10101000
          -96 callsubr
          hintmask 01010000
          -328 646 -72 callgsubr
        </CharString>
        <CharString name="Uring">
          1 callsubr
          625 47 114 46 hstemhm
          92 71 63 56 102 56 63 70 hintmask 10010010
          -96 callsubr
          hintmask 01101100
          -347 544 -52 callsubr
        </CharString>
        <CharString name="V">
          49 -4 74 hstemhm
          28 503 -17 callgsubr
          289 70 rmoveto
          -4 -2 1 7 -2 hvcurveto
          -14 49 -21 74 -13 43 -121 411 rcurveline
          27 -8 -14 7 -18 hhcurveto
          -14 -16 -5 -7 -14 hvcurveto
          196 -644 rlineto
          -33 10 17 -4 23 hhcurveto
          18 15 1 2 19 hvcurveto
          205 677 -3 6 rlineto
          2 -8 -11 2 -13 hhcurveto
          -13 -10 -1 -2 -8 hvcurveto
          endchar
        </CharString>
        <CharString name="W">
          311 -4 62 535 75 9 9 hstemhm
          40 741 hintmask 00000000
          hintmask 10110000
          171 36 rmoveto
          -34 7 21 -6 22 hhcurveto
          16 29 1 3 18 hvcurveto
          72 337 rlineto
          hintmask 11110000
          13 59 19 97 19 100 rrcurveto
          6 hlineto
          49 -256 57 -303 rlineto
          -32 6 17 -6 21 hhcurveto
          18 31 1 4 19 hvcurveto
          hintmask 10110000
          150 676 -4 5 rlineto
          3 -10 -13 1 -11 hhcurveto
          -11 17 callgsubr
          -8 hvcurveto
          -91 -424 -9 -43 -19 -93 -11 -65 rlinecurve
          -5 -1 1 9 -2 hvcurveto
          hintmask 11110000
          -116 600 rlineto
          2 -9 -24 15 callsubr
          -22 -1 -2 -14 hvcurveto
          -126 -610 rlineto
          -5 -1 2 callsubr
          hvcurveto
          -10 48 -18 100 -8 43 -76 393 rcurveline
          26 -5 -10 11 -21 hhcurveto
          -13 -12 -1 -8 -17 hvcurveto
          endchar
        </CharString>
        <CharString name="X">
          64 -6 695 hstem
          24 520 vstem
          453 683 rmoveto
          -161 -263 -146 239 rlineto
          22 -14 -16 8 -14 hhcurveto
          -15 -18 -5 -12 -16 hvcurveto
          191 -311 -220 -352 3 -6 rlineto
          -4 7 15 -3 14 hhcurveto
          10 17 2 2 5 hvcurveto
          185 303 172 -279 rlineto
          -22 14 15 -8 15 hhcurveto
          15 17 5 12 16 hvcurveto
          -216 352 194 311 -3 6 rlineto
          4 -7 -15 6 callsubr
        </CharString>
        <CharString name="Y">
          -27 -3 693 hstem
          204 71 vstem
          -86 callsubr
          endchar
        </CharString>
        <CharString name="Yacute">
          -27 -3 693 39 -15 callsubr
          158 225 -179 71 hintmask 10010000
          -86 callsubr
          hintmask 01100000
          -236 85 -92 callsubr
        </CharString>
        <CharString name="Ydieresis">
          -27 -3 693 55 78 hstemhm
          105 80 19 71 26 80 hintmask 10010000
          -86 callsubr
          hintmask 01101000
          -53 140 -106 callsubr
        </CharString>
        <CharString name="Z">
          -8 callgsubr
          hstem
          65 63 vstem
          -98 callsubr
          endchar
        </CharString>
        <CharString name="Zacute">
          -8 callgsubr
          46 -15 callsubr
          65 63 68 225 hintmask 11010000
          -98 callsubr
          hintmask 00101000
          -142 255 -92 callsubr
        </CharString>
        <CharString name="Zcaron">
          -8 callgsubr
          54 -15 callgsubr
          65 63 10 287 hintmask 11010000
          -98 callsubr
          hintmask 00101000
          -166 361 -94 callsubr
        </CharString>
        <CharString name="Zdotaccent">
          -8 callgsubr
          71 71 hstemhm
          65 63 104 91 hintmask 11010000
          -98 callsubr
          hintmask 00101000
          -106 277 -60 callgsubr
        </CharString>
        <CharString name="a">
          -55 callsubr
          hstem
          52 70 230 65 vstem
          -106 callgsubr
          endchar
        </CharString>
        <CharString name="a.smcp">
          -55 callgsubr
          hstem
          19 485 vstem
          -107 callsubr
          endchar
        </CharString>
        <CharString name="aacute">
          -55 callsubr
          36 -45 callsubr
          52 70 57 194 -21 65 hintmask 11101010
          -106 callgsubr
          hintmask 00010100
          -25 518 -102 callgsubr
        </CharString>
        <CharString name="aacute.smcp">
          -55 callgsubr
          46 -45 callsubr
          19 485 -305 194 hintmask 11101000
          -107 callsubr
          hintmask 00010100
          42 420 -102 callgsubr
        </CharString>
        <CharString name="acircumflex">
          -55 callsubr
          38 -4 callsubr
          52 70 -17 269 -22 65 hintmask 11101010
          -106 callgsubr
          hintmask 00010100
          132 496 -99 callgsubr
        </CharString>
        <CharString name="acircumflex.smcp">
          -55 callgsubr
          48 -4 callsubr
          19 485 -379 269 hintmask 11101000
          -107 callsubr
          hintmask 00010100
          199 398 -99 callgsubr
        </CharString>
        <CharString name="acute">
          -106 536 182 hstem
          137 194 vstem
          137 565 -102 callgsubr
        </CharString>
        <CharString name="acute.cap">
          -106 729 149 hstem
          114 225 vstem
          114 768 -92 callsubr
        </CharString>
        <CharString name="adieresis">
          -55 callsubr
          72 65 hstemhm
          52 70 -13 10 callgsubr
          -14 65 hintmask 11101001
          -106 callgsubr
          hintmask 00010110
          80 558 -107 callgsubr
        </CharString>
        <CharString name="adieresis.smcp">
          -55 callgsubr
          82 65 hstemhm
          19 485 -375 10 callgsubr
          hintmask 11101000
          -107 callsubr
          hintmask 00010110
          147 460 -107 callgsubr
        </CharString>
        <CharString name="ae">
          295 -12 61 175 54 -38 53 148 59 -51 53 hstemhm
          52 70 230 69 247 71 hintmask 00000000
          hintmask 11001111
          735 224 rmoveto
          3 24 1 16 24 vvcurveto
          118 -64 96 -128 -69 -47 -33 -45 -31 vhcurveto
          hintmask 10110111
          49 -23 -44 27 -69 hhcurveto
          -70 -75 -25 -22 -49 hvcurveto
          -19 12 -25 13 -10 vhcurveto
          24 53 56 18 55 hhcurveto
          57 36 -28 -77 hvcurveto
          -54 vlineto
          7 -36 -37 4 -40 hhcurveto
          -112 -75 -49 -110 -73 47 -73 97 81 67 48 47 39 hvcurveto
          -66 32 56 -29 73 hhcurveto
          68 67 24 32 46 hvcurveto
          -2 15 -11 23 -13 11 rrcurveto
          -25 -44 -48 -19 -54 hhcurveto
          hintmask 11001111
          -94 -35 71 104 -3 hvcurveto
          -217 -177 rmoveto
          -54 -28 41 51 hvcurveto
          hintmask 10101111
          65 45 36 72 37 39 -4 -7 36 vhcurveto
          2 -34 3 -29 7 -27 rrcurveto
          hintmask 11001111
          -65 -45 -64 -27 -50 hhcurveto
          343 402 rmoveto
          88 33 -74 -85 hvcurveto
          -12 -247 vlineto
          104 5 45 67 76 hhcurveto
          endchar
        </CharString>
        <CharString name="ae.smcp">
          264 0 60 78 59 49 59 178 59 hstem
          361 69 vstem
          223 138 rmoveto
          81 hlineto
          5 37 1 15 hhcurveto
          -95 vlineto
          -27 16 -17 24 vhcurveto
          274 hlineto
          25 15 -54 callsubr
          6 vvcurveto
          -237 hlineto
          -24 -17 0 -1 -14 hvcurveto
          6 1 -23 callsubr
          153 vlineto
          -1 19 20 1 14 hhcurveto
          176 hlineto
          3 10 0 12 -48 callsubr
          13 -3 9 vhcurveto
          -176 hlineto
          -14 -20 -1 -19 hhcurveto
          129 vlineto
          20 -1 18 12 vvcurveto
          -1 20 20 1 14 hhcurveto
          220 18 callgsubr
          1 13 7 vvcurveto
          8 0 10 20 callgsubr
          -338 hlineto
          -11 -19 -2 -5 -11 hvcurveto
          -312 -530 2 -4 rlineto
          -4 10 13 -1 11 hhcurveto
          10 -70 callgsubr
          81 140 rlineto
          10 42 -1 6 hhcurveto
          52 192 rmoveto
          23 41 37 71 21 40 rrcurveto
          5 -286 hlineto
          -15 -37 1 -5 hhcurveto
          -64 hlineto
          -5 -24 -1 -13 hhcurveto
          endchar
        </CharString>
        <CharString name="agrave">
          -55 callsubr
          36 -45 callsubr
          52 70 -5 194 41 65 hintmask 11101010
          -106 callgsubr
          hintmask 00010100
          -28 671 -91 callsubr
        </CharString>
        <CharString name="agrave.smcp">
          -55 callgsubr
          46 -45 callsubr
          19 485 -366 194 hintmask 11101000
          -107 callsubr
          hintmask 00010100
          40 573 -91 callsubr
        </CharString>
        <CharString name="ampersand">
          96 -12 60 286 61 240 60 hstemhm
          57 75 -47 75 247 -1 callgsubr
          hintmask 11110100
          299 395 rmoveto
          hintmask 11101100
          -97 -42 52 69 70 47 49 80 57 46 -12 -13 44 hvcurveto
          12 14 7 24 20 vvcurveto
          15 -39 -64 12 -61 hhcurveto
          -132 -72 -82 -94 -71 46 -61 59 -21 hvcurveto
          hintmask 11110100
          -70 -22 -63 -73 -91 vvcurveto
          -112 65 -80 124 57 59 20 31 47 vhcurveto
          6 -39 rlineto
          -2 9 11 -77 callsubr
          -1 32 -5 78 36 vvcurveto
          125 vlineto
          15 -1 25 23 vvcurveto
          37 hlineto
          34 29 5 34 11 -3 15 -7 8 hvcurveto
          -9 -19 -35 -3 -34 hhcurveto
          -70 -125 rmoveto
          -170 vlineto
          -28 -33 -58 -24 -59 hhcurveto
          -79 -46 51 81 66 40 88 119 hvcurveto
          117 hlineto
          -1 -23 0 -25 -16 vvcurveto
          endchar
        </CharString>
        <CharString name="ampersand.smcp">
          29 -12 57 213 61 177 58 hstemhm
          51 75 -50 75 210 -1 callgsubr
          hintmask 11110100
          271 319 rmoveto
          hintmask 11101100
          -85 -35 36 53 52 39 36 69 51 40 -10 -11 39 hvcurveto
          13 14 7 23 -1 19 rrcurveto
          13 -37 -56 10 -56 hhcurveto
          -119 -64 -64 -78 -58 40 -48 54 -16 hvcurveto
          hintmask 11110100
          -64 -17 -55 -58 -73 vvcurveto
          -89 57 -65 112 54 49 15 25 41 vhcurveto
          5 -33 rlineto
          -2 9 11 -1 13 hhcurveto
          13 12 1 3 9 hvcurveto
          -1 25 -5 61 29 vvcurveto
          93 vlineto
          14 0 20 -1 20 vhcurveto
          28 hlineto
          33 24 9 29 12 -4 11 -6 10 hvcurveto
          -8 -17 -30 -2 -24 hhcurveto
          -72 -113 rmoveto
          -121 vlineto
          -21 -28 -49 -19 -52 hhcurveto
          -68 -38 37 62 53 34 61 103 hvcurveto
          98 hlineto
          endchar
        </CharString>
        <CharString name="aogonek">
          30 -217 51 154 59 193 53 148 59 hstemhm
          52 70 156 62 12 65 hintmask 00000000
          hintmask 11111010
          458 -148 rmoveto
          hintmask 11111110
          -9 -17 -23 -9 -25 -6 callgsubr
          41 32 32 42 32 hvcurveto
          hintmask 11111010
          19 15 11 12 6 13 rrcurveto
          -25 23 -8 31 43 vvcurveto
          206 vlineto
          107 -48 59 -105 -70 -75 -25 -22 -49 vhcurveto
          -19 12 -25 13 -10 vhcurveto
          24 53 56 18 55 hhcurveto
          57 36 -28 -77 hvcurveto
          -53 vlineto
          7 -38 -41 3 -34 hhcurveto
          -112 -75 -50 -110 -71 47 -74 97 hvcurveto
          hintmask 11111110
          67 56 41 37 37 hvcurveto
          4 -17 6 -16 11 -12 rrcurveto
          -59 -41 -40 -50 -57 0 callsubr
          57 37 38 14 18 22 vhcurveto
          hintmask 11111010
          17 -7 12 -10 8 vhcurveto
          -254 195 rmoveto
          -54 -28 40 51 65 45 37 72 37 41 -3 -5 35 hvcurveto
          -99 vlineto
          -58 -43 -58 -28 -47 hhcurveto
          endchar
        </CharString>
        <CharString name="aogonek.smcp">
          19 -217 51 162 8 3 -20 151 60 280 64 hstemhm
          352 62 hintmask 00000000
          hintmask 11011100
          19 4 rmoveto
          2 -3 rlineto
          -3 8 12 -2 13 hhcurveto
          9 -57 callsubr
          51 140 rlineto
          13 49 -1 6 hhcurveto
          117 hlineto
          4 46 1 11 hhcurveto
          hintmask 10111100
          40 -108 4 -11 3 -8 4 -5 rlinecurve
          -47 -35 -33 -49 -41 callsubr
          hvcurveto
          hintmask 11011100
          46 41 38 49 33 vhcurveto
          0 -1 0 1 vvcurveto
          -202 538 rlineto
          2 -6 -22 2 24 callsubr
          -23 -2 -2 -7 hvcurveto
          -2 -177 rmoveto
          9 23 17 51 11 39 rrcurveto
          4 hlineto
          13 -41 23 -66 14 -38 50 -136 rcurveline
          -12 -32 1 -5 hhcurveto
          -99 hlineto
          -5 -38 -1 -12 hhcurveto
          endchar
        </CharString>
        <CharString name="aring">
          -55 callsubr
          36 8 callsubr
          52 70 12 56 102 56 4 65 hintmask 1110010010000000
          -106 callgsubr
          hintmask 0001101100000000
          -70 592 -85 callgsubr
        </CharString>
        <CharString name="aring.smcp">
          -55 callgsubr
          46 8 callsubr
          19 485 -350 56 102 56 hintmask 11100100
          -107 callsubr
          hintmask 00011011
          -3 494 -85 callgsubr
        </CharString>
        <CharString name="asciicircum">
          589 59 -59 63 hstemhm
          54 422 27 callgsubr
          302 648 rmoveto
          hintmask 01100000
          -19 5 -35 0 -20 -5 -174 -342 rcurveline
          13 -5 39 -1 19 6 rrcurveto
          hintmask 10100000
          105 214 12 25 10 21 10 23 rlinecurve
          6 hlineto
          10 -23 10 -21 12 -25 105 -214 rcurveline
          19 -6 39 1 13 5 rrcurveto
          endchar
        </CharString>
        <CharString name="asciitilde">
          51 223 66 1 66 hstemhm
          45 465 hintmask 00000000
          hintmask 01100000
          258 336 rmoveto
          12 -26 -29 8 -27 hhcurveto
          -54 -41 -26 -51 -27 hvcurveto
          -9 -17 6 -15 19 -11 15 -1 rlinecurve
          15 19 rlineto
          22 17 21 14 26 hhcurveto
          18 20 -5 -8 19 hvcurveto
          hintmask 10100000
          75 -34 rlineto
          -11 26 29 -9 27 hhcurveto
          55 41 26 52 27 hvcurveto
          9 17 -6 14 -19 11 -16 1 rlinecurve
          -14 -19 rlineto
          -22 -17 -22 -14 -26 hhcurveto
          -18 -19 5 8 -19 hvcurveto
          endchar
        </CharString>
        <CharString name="asterisk">
          -10 358 379 hstem
          212 68 vstem
          50 565 rmoveto
          47 -17 38 -14 43 -6 36 -4 rlinecurve
          -26 -24 -33 -31 -23 -32 -28 -40 rcurveline
          11 -18 26 -17 18 -4 30 39 rcurveline
          25 31 18 40 15 33 15 -32 18 -40 25 -32 29 -39 rcurveline
          21 4 24 18 9 16 -27 41 rcurveline
          -22 33 -33 31 -27 24 35 5 44 5 39 13 46 16 rcurveline
          2 20 -10 31 -12 12 -48 -13 rcurveline
          -38 -11 -38 -21 -32 -19 7 36 8 42 -1 40 -1 50 rcurveline
          -17 8 -33 0 -17 -8 -1 -50 rcurveline
          -1 -40 7 -42 8 -36 -32 17 -38 22 -37 12 -47 14 rcurveline
          -14 -15 -10 -31 2 -17 rrcurveto
          endchar
        </CharString>
        <CharString name="at">
          424 -179 55 134 58 -53 55 355 53 142 52 hstemhm
          58 69 154 69 223 67 172 68 hintmask 0000000000000000
          hintmask 1011111110000000
          641 413 rmoveto
          37 -41 -57 28 -65 hhcurveto
          -127 -70 -118 -134 hvcurveto
          hintmask 1101111110000000
          -134 62 -82 95 55 53 31 40 35 vhcurveto
          hintmask 1011111110000000
          -41 15 37 -25 54 hhcurveto
          100 93 99 172 230 -161 156 -238 -250 -173 -193 -251 -259 160 -148 219 80 75 14 27 75 hvcurveto
          19 -10 23 -10 8 vhcurveto
          -25 -60 -70 -11 -78 hhcurveto
          -183 -129 128 224 220 139 172 215 201 130 -135 -196 -161 -63 -58 -57 -35 -17 22 61 hvcurveto
          hintmask 1101111110000000
          -190 -85 rmoveto
          -70 -30 70 88 108 46 91 82 40 37 -19 -20 18 hvcurveto
          -237 vlineto
          -43 -26 -53 -38 -44 hhcurveto
          endchar
        </CharString>
        <CharString name="atilde">
          -55 callsubr
          57 64 hstemhm
          52 70 -50 338 -58 65 hintmask 11101010
          -106 callgsubr
          hintmask 00000000
          55 524 -73 callgsubr
          hintmask 00010100
          -104 callsubr
        </CharString>
        <CharString name="atilde.smcp">
          -55 callgsubr
          67 64 hstemhm
          19 485 -412 338 hintmask 11101000
          -107 callsubr
          hintmask 00000000
          122 426 -73 callgsubr
          hintmask 00010100
          -104 callsubr
        </CharString>
        <CharString name="b">
          19 -7 53 392 60 hstem
          90 67 245 68 vstem
          470 251 rmoveto
          145 -58 102 -111 -62 -50 -32 -32 -32 vhcurveto
          254 vlineto
          -66 callsubr
          -704 vlineto
          -21 58 56 -11 59 hhcurveto
          102 105 75 183 hvcurveto
          -178 187 rmoveto
          57 53 -54 -133 -141 -66 -64 -74 -41 -32 6 13 -32 hvcurveto
          299 vlineto
          42 32 52 32 51 hhcurveto
          endchar
        </CharString>
        <CharString name="b.smcp">
          34 -3 57 203 59 172 57 hstemhm
          92 70 223 71 -42 72 hintmask 00000000
          hintmask 11111000
          97 542 rmoveto
          -5 -5 rlineto
          -532 vlineto
          5 -5 rlineto
          -1 64 42 -2 75 hhcurveto
          hintmask 11110100
          155 53 74 80 70 -55 54 -62 15 hvcurveto
          hintmask 11111000
          54 17 33 45 51 vvcurveto
          86 -52 56 -137 -57 -50 -2 -1 -63 vhcurveto
          177 -285 rmoveto
          hintmask 11110100
          109 31 -60 -42 -42 -21 -59 -110 hvcurveto
          -43 -36 -1 -42 hhcurveto
          204 vlineto
          232 vmoveto
          -1 32 45 0 29 hhcurveto
          hintmask 11111000
          97 20 -44 -42 -40 -22 -46 -97 hvcurveto
          -104 hlineto
          endchar
        </CharString>
        <CharString name="backslash">
          -101 -105 862 hstem
          14 378 vstem
          331 -105 rmoveto
          19 1 25 9 17 13 -317 839 rcurveline
          -20 -23 -9 -14 -18 hvcurveto
          endchar
        </CharString>
        <CharString name="bar">
          -258 -143 921 hstem
          90 65 vstem
          90 -140 rmoveto
          -2 9 12 -1 11 hhcurveto
          13 10 -79 callgsubr
          915 -39 callsubr
          -10 15 callsubr
          -44 callsubr
          endchar
        </CharString>
        <CharString name="braceleft">
          -192 -161 969 hstemhm
          37 75 9 70 27 callgsubr
          41 348 rmoveto
          hintmask 11100000
          -5 -11 0 -26 5 -11 rrcurveto
          hintmask 10100000
          44 -18 36 -42 -63 vvcurveto
          -177 vlineto
          -90 55 -51 74 -13 vhcurveto
          41 -7 10 11 6 23 -4 18 rlinecurve
          -43 12 rlineto
          -46 15 -23 33 50 vvcurveto
          174 vlineto
          60 -30 61 -49 24 vhcurveto
          8 vlineto
          49 24 30 61 60 vvcurveto
          173 vlineto
          50 23 33 46 14 vhcurveto
          43 13 4 18 -6 23 -10 11 rlinecurve
          -41 -7 rlineto
          -74 -13 -55 -51 -90 vvcurveto
          -176 vlineto
          -64 -36 -41 -44 -18 vhcurveto
          endchar
        </CharString>
        <CharString name="braceright">
          -192 -161 969 hstem
          120 71 vstem
          271 348 rmoveto
          -44 18 -36 41 64 vvcurveto
          176 vlineto
          90 -55 51 -75 13 vhcurveto
          -40 7 -10 -11 -6 -23 4 -18 rlinecurve
          43 -13 rlineto
          46 -14 22 -33 -50 vvcurveto
          -173 vlineto
          -60 31 -61 49 -24 vhcurveto
          -8 vlineto
          -49 -24 -31 -61 -60 vvcurveto
          -174 vlineto
          -50 -22 -33 -46 -15 vhcurveto
          -43 -12 -4 -18 6 -23 10 -11 rlinecurve
          40 7 rlineto
          75 13 55 51 90 vvcurveto
          177 vlineto
          63 36 42 44 18 vhcurveto
          5 11 0 26 -5 11 rrcurveto
          endchar
        </CharString>
        <CharString name="bracketleft">
          21 callgsubr
          100 71 vstem
          278 -133 rmoveto
          2 8 0 7 7 vvcurveto
          10 -3 13 -3 9 vhcurveto
          -103 2 rlineto
          821 vlineto
          103 3 rlineto
          3 8 3 13 10 vvcurveto
          7 0 7 -2 8 vhcurveto
          -172 7 -6 -6 rlineto
          -935 -1 callsubr
          endchar
        </CharString>
        <CharString name="bracketright">
          21 callgsubr
          139 71 vstem
          204 -140 rmoveto
          6 6 rlineto
          935 vlineto
          -6 6 -172 -7 rlineto
          -2 -8 0 -7 -7 vvcurveto
          -10 3 -13 3 -8 vhcurveto
          103 -3 rlineto
          -821 vlineto
          -103 -2 rlineto
          -3 -9 -3 -13 -10 vvcurveto
          -7 0 -7 9 callsubr
          endchar
        </CharString>
        <CharString name="brokenbar">
          -264 -143 921 hstem
          87 65 vstem
          87 -140 rmoveto
          -38 callsubr
          141 vmoveto
          -38 callsubr
          endchar
        </CharString>
        <CharString name="bullet">
          -67 195 154 hstem
          120 183 vstem
          120 273 rmoveto
          -22 6 -41 8 -15 vhcurveto
          -9 15 40 -9 30 hhcurveto
          27 45 9 9 12 hvcurveto
          8 15 5 41 22 vvcurveto
          22 -5 41 -8 13 vhcurveto
          9 -14 -43 9 -27 hhcurveto
          -30 -40 -9 -9 -15 hvcurveto
          -8 -13 -6 -41 -22 vvcurveto
          endchar
        </CharString>
        <CharString name="c">
          13 callgsubr
          hstem
          53 72 vstem
          -83 callgsubr
          endchar
        </CharString>
        <CharString name="c.smcp">
          27 callsubr
          hstem
          46 74 vstem
          -84 callsubr
          endchar
        </CharString>
        <CharString name="cacute">
          13 callgsubr
          34 -45 callsubr
          53 72 64 194 hintmask 11010000
          -83 callgsubr
          hintmask 00101000
          -170 245 -102 callgsubr
        </CharString>
        <CharString name="cacute.smcp">
          27 callsubr
          34 -45 callsubr
          46 74 102 194 hintmask 11010000
          -84 callsubr
          hintmask 00101000
          -201 265 -102 callgsubr
        </CharString>
        <CharString name="caron">
          -106 547 168 hstem
          69 268 vstem
          106 710 -103 callsubr
        </CharString>
        <CharString name="caron.alt">
          -107 560 206 hstemhm
          207 86 -17 callgsubr
          207 566 -50 callgsubr
        </CharString>
        <CharString name="caron.cap">
          -106 737 142 hstem
          56 287 vstem
          90 874 -94 callsubr
        </CharString>
        <CharString name="ccaron">
          13 callgsubr
          45 -11 callsubr
          53 72 -4 268 hintmask 11010000
          -83 callgsubr
          hintmask 00101000
          -201 390 -103 callsubr
        </CharString>
        <CharString name="ccaron.smcp">
          27 callsubr
          45 -11 callsubr
          46 74 34 268 hintmask 11010000
          -84 callsubr
          hintmask 00101000
          -232 410 -103 callsubr
        </CharString>
        <CharString name="ccedilla">
          -35 -22 callgsubr
          130 399 55 hstemhm
          53 72 164 62 hintmask 00000000
          hintmask 10111100
          200 -62 callsubr
          hintmask 01111100
          -20 callgsubr
          hintmask 10111100
          -18 callgsubr
          3 9 5 12 5 9 56 7 47 26 40 37 -4 17 -16 18 -14 9 rrcurveto
          -28 -37 -42 -28 -50 hhcurveto
          -82 -49 64 129 134 52 72 74 87 25 -71 -56 -4 hvcurveto
          -2 11 9 -1 9 hhcurveto
          32 5 21 23 49 -44 92 -128 -103 -97 -81 -180 -116 45 -121 123 -14 hvcurveto
          -8 -19 -8 -24 -5 -19 rrcurveto
          endchar
        </CharString>
        <CharString name="ccedilla.smcp">
          -22 callgsubr
          42 29 60 447 58 hstemhm
          46 74 201 61 hintmask 00000000
          hintmask 10111110
          232 -62 callsubr
          hintmask 01011100
          -20 callgsubr
          hintmask 10111110
          -21 callgsubr
          46 38 53 52 -39 31 -48 4 hvcurveto
          hintmask 10011100
          3 9 5 12 5 9 73 8 62 31 41 38 -4 16 -16 19 -17 11 rrcurveto
          -43 -57 -54 -21 -53 hhcurveto
          -101 -62 82 139 150 59 76 104 107 32 -75 -69 1 hvcurveto
          -3 11 7 -2 12 hhcurveto
          33 4 22 20 74 -63 91 -143 -127 -111 -85 -199 -138 58 -132 149 -11 -3 callgsubr
        </CharString>
        <CharString name="cedilla">
          -106 -22 callgsubr
          42 -42 82 hstemhm
          242 61 hintmask 00000000
          hintmask 10011000
          152 -72 rmoveto
          2 -6 6 -6 7 -3 rrcurveto
          3 7 10 2 8 hhcurveto
          34 16 -20 -24 -23 -15 -22 -36 -18 -21 6 8 -13 hvcurveto
          hintmask 01011000
          -20 callgsubr
          hintmask 10101000
          -18 callgsubr
          hintmask 10011000
          4 12 9 18 5 10 rrcurveto
          -55 hlineto
          -9 -19 -11 -31 -6 -22 rrcurveto
          endchar
        </CharString>
        <CharString name="cent">
          -32 -30 159 399 152 hstem
          53 74 92 63 vstem
          219 -30 rmoveto
          -1 6 16 -1 9 hhcurveto
          11 13 1 1 8 hvcurveto
          101 vlineto
          55 8 49 27 35 41 -6 16 -17 18 -15 6 rrcurveto
          -32 -34 -43 -26 -50 hhcurveto
          -82 -47 65 129 135 50 70 74 87 25 -69 -57 -4 hvcurveto
          -2 11 9 -1 10 hhcurveto
          31 5 21 23 45 -37 80 -103 14 hvcurveto
          98 9 callgsubr
          -13 1 -11 hhcurveto
          -9 -16 -1 -2 -6 hvcurveto
          -99 vlineto
          -91 -15 -78 -82 -161 vvcurveto
          -116 45 -121 121 -16 vhcurveto
          endchar
        </CharString>
        <CharString name="cent.smcp">
          -81 52 56 332 52 hstemhm
          48 72 73 61 hintmask 00000000
          hintmask 11110000
          193 -28 rmoveto
          -2 7 15 -1 9 hhcurveto
          10 12 1 2 8 hvcurveto
          80 vlineto
          49 6 42 22 32 32 -6 16 -16 17 -14 6 rrcurveto
          -23 -30 -37 -20 -43 hhcurveto
          -71 -40 57 105 109 42 61 63 73 20 -56 -45 -3 hvcurveto
          -2 9 12 -2 7 hhcurveto
          31 6 20 24 41 -35 61 -89 11 hvcurveto
          80 9 callgsubr
          -12 1 -9 hhcurveto
          -9 -15 -1 -2 -7 hvcurveto
          -81 vlineto
          -79 -15 -69 -70 -136 vvcurveto
          -97 38 -105 107 -16 vhcurveto
          endchar
        </CharString>
        <CharString name="circumflex">
          -106 538 167 hstem
          63 269 vstem
          294 543 -99 callgsubr
        </CharString>
        <CharString name="circumflex.cap">
          -106 733 142 hstem
          55 287 vstem
          308 738 -91 callgsubr
        </CharString>
        <CharString name="colon">
          -253 3 85 258 85 hstemhm
          68 107 hintmask 10100000
          68 46 rmoveto
          -84 callgsubr
          hintmask 01100000
          343 vmoveto
          -84 callgsubr
          endchar
        </CharString>
        <CharString name="comma">
          -253 -9 97 hstem
          117 71 vstem
          178 -63 callsubr
          endchar
        </CharString>
        <CharString name="commaaccent">
          -106 -54 callgsubr
          hstem
          177 73 vstem
          243 -58 -94 callgsubr
        </CharString>
        <CharString name="commaaccent.cap">
          -106 -54 callgsubr
          hstem
          177 73 vstem
          243 -58 -94 callgsubr
        </CharString>
        <CharString name="copyright">
          307 -18 54 104 53 298 53 103 54 hstem
          46 66 119 69 399 66 vstem
          46 341 rmoveto
          -203 156 -156 203 203 157 156 203 203 -157 157 -203 -203 -156 -157 -203 vhcurveto
          66 hmoveto
          167 125 139 168 169 125 -139 -167 -167 -125 -138 -169 -168 -125 138 167 vhcurveto
          383 49 rmoveto
          -3 8 9 -2 12 hhcurveto
          25 8 19 19 46 -42 75 -107 -88 -89 -66 -137 -122 69 -79 102 58 58 27 36 35 hvcurveto
          -6 14 -13 17 -14 5 rrcurveto
          -26 -29 -42 -20 -39 hhcurveto
          -67 -43 54 94 97 43 53 63 69 24 -55 -46 -4 hvcurveto
          endchar
        </CharString>
        <CharString name="currency">
          61 125 54 313 54 hstem
          72 72 277 71 vstem
          72 335 rmoveto
          -47 14 -43 24 -34 vhcurveto
          -72 -77 10 -18 16 -15 16 -8 rlinecurve
          76 71 rlineto
          -25 35 43 -14 48 hhcurveto
          48 43 14 25 35 hvcurveto
          77 -71 17 9 16 16 8 16 rlinecurve
          -72 77 rlineto
          24 35 14 42 47 vvcurveto
          47 -15 43 -24 35 vhcurveto
          72 78 -9 17 -16 16 -16 9 rlinecurve
          -78 -73 rlineto
          24 -34 -42 15 -48 hhcurveto
          -48 -43 -15 -25 -35 hvcurveto
          -76 73 -17 -10 -16 -16 -9 -16 rlinecurve
          73 -77 rlineto
          -25 -35 -14 -43 -47 vvcurveto
          72 hmoveto
          83 54 74 84 84 55 -74 -83 -83 -55 -73 -84 -84 -54 73 83 vhcurveto
          endchar
        </CharString>
        <CharString name="currency.smcp">
          -48 95 53 241 52 hstem
          53 71 209 69 vstem
          53 268 rmoveto
          -38 11 -34 19 -28 vhcurveto
          -59 -63 10 -17 15 -15 16 -7 rlinecurve
          62 57 rlineto
          -18 28 35 -10 38 hhcurveto
          38 35 10 19 27 hvcurveto
          63 -59 17 9 16 15 7 16 rlinecurve
          -59 63 rlineto
          19 28 11 34 38 vvcurveto
          38 -11 34 -19 28 vhcurveto
          59 64 -9 16 -16 16 -15 8 rlinecurve
          -64 -59 rlineto
          18 -27 -34 10 -38 hhcurveto
          -39 -34 -11 -18 -28 hvcurveto
          -62 59 -17 -9 -16 -16 -8 -15 rlinecurve
          59 -63 rlineto
          -19 -28 -11 -34 -38 vvcurveto
          71 hmoveto
          64 36 57 68 65 40 -57 -64 -65 -40 -55 -65 -68 -36 56 64 vhcurveto
          endchar
        </CharString>
        <CharString name="d">
          20 -12 60 390 60 hstem
          52 69 245 66 vstem
          -74 callgsubr
          endchar
        </CharString>
        <CharString name="d.smcp">
          64 -3 57 433 58 19 callgsubr
          284 73 vstem
          -70 callsubr
          endchar
        </CharString>
        <CharString name="dcaron">
          47 -12 60 390 60 hstemhm
          52 69 245 66 vstemhm
          -74 callgsubr
          263 518 -50 callgsubr
        </CharString>
        <CharString name="dcaron.smcp">
          64 -3 57 433 58 54 -11 callsubr
          92 70 -23 268 39 73 hintmask 11010100
          -70 callsubr
          hintmask 00101000
          -270 492 -103 callsubr
        </CharString>
        <CharString name="degree">
          -193 395 53 169 53 hstem
          20 59 152 60 vstem
          20 532 rmoveto
          -77 59 -60 77 76 59 60 77 78 -59 60 -76 -77 -59 -60 -78 vhcurveto
          59 hmoveto
          47 29 38 48 46 29 -38 -47 -48 -29 -36 -46 -48 -29 36 48 vhcurveto
          endchar
        </CharString>
        <CharString name="dieresis">
          -106 572 65 hstem
          67 10 callgsubr
          vstem
          242 605 -107 callgsubr
        </CharString>
        <CharString name="dieresis.cap">
          -106 745 78 hstem
          61 16 callsubr
          vstem
          297 823 -106 callsubr
        </CharString>
        <CharString name="divide">
          75 72 111 65 108 72 hstem
          215 93 vstem
          215 467 rmoveto
          -12 3 -16 4 -8 vhcurveto
          -6 9 19 3 callsubr
          13 23 4 6 -53 callgsubr
          16 -65 callgsubr
          16 -42 callsubr
          6 -8 -22 3 -13 hhcurveto
          -15 -19 -3 -6 -9 -58 callgsubr
          -16 -12 vvcurveto
          -356 vmoveto
          -12 3 -16 4 -8 vhcurveto
          -6 9 19 3 callsubr
          13 23 4 6 -53 callgsubr
          16 -65 callgsubr
          16 -42 callsubr
          6 -8 -22 4 -13 hhcurveto
          -15 -19 -4 -6 -9 -58 callgsubr
          -16 -12 vvcurveto
          256 147 rmoveto
          -28 callgsubr
          10 -47 callgsubr
          10 -2 9 vhcurveto
          -412 -17 callsubr
          -10 -40 callsubr
          -10 -4 callgsubr
        </CharString>
        <CharString name="dollar">
          -11 40 60 445 -15 callgsubr
          63 69 70 63 -59 63 105 70 hintmask 00000000
          hintmask 11101100
          40 101 rmoveto
          hintmask 11110100
          35 -24 57 -25 70 -9 rrcurveto
          -81 vlineto
          -1 7 16 -1 9 hhcurveto
          11 12 1 1 8 hvcurveto
          78 vlineto
          118 3 61 64 90 vvcurveto
          73 -58 53 -70 25 vhcurveto
          -101 36 rlineto
          -55 19 -28 18 41 vvcurveto
          53 45 30 67 49 58 -15 -23 47 vhcurveto
          15 13 11 22 21 vvcurveto
          -40 19 -55 19 -60 4 rrcurveto
          82 9 callgsubr
          -12 1 -11 hhcurveto
          -9 -16 -1 -2 -7 hvcurveto
          -84 vlineto
          -92 -14 -51 -60 -72 vvcurveto
          -64 38 -42 78 -29 vhcurveto
          103 -37 rlineto
          52 -19 40 -36 -46 vvcurveto
          -56 -56 -28 -64 -77 -61 30 27 -45 vhcurveto
          -15 -11 -15 -24 -1 -21 rrcurveto
          endchar
        </CharString>
        <CharString name="dollar.smcp">
          -71 31 60 361 123 hstemhm
          53 71 53 58 -55 57 82 71 hintmask 00000000
          hintmask 11101100
          36 80 rmoveto
          hintmask 11110100
          30 -19 50 -21 61 -7 rrcurveto
          -64 vlineto
          -1 7 13 -1 9 hhcurveto
          10 12 1 1 7 hvcurveto
          62 vlineto
          97 5 58 50 74 vvcurveto
          68 -47 41 -73 25 vhcurveto
          -75 27 rlineto
          -45 17 -26 14 34 vvcurveto
          40 35 26 55 42 50 -15 -19 41 vhcurveto
          17 12 9 23 22 vvcurveto
          -37 17 -49 15 -50 3 rrcurveto
          65 vlineto
          2 -6 -12 1 -10 hhcurveto
          -8 -14 -1 -2 -7 hvcurveto
          -67 vlineto
          -81 -13 -46 -51 -64 vvcurveto
          -58 37 -35 67 -26 vhcurveto
          87 -31 rlineto
          51 -18 24 -25 -34 vvcurveto
          -43 -40 -19 -57 -66 -53 22 22 -39 vhcurveto
          -15 -10 -12 -26 -1 -19 rrcurveto
          endchar
        </CharString>
        <CharString name="dotaccent">
          -106 588 26 callgsubr
          624 -95 callgsubr
          endchar
        </CharString>
        <CharString name="dotaccent.cap">
          -106 754 26 callgsubr
          790 -60 callgsubr
        </CharString>
        <CharString name="dotlessi">
          -26 callgsubr
          hstemhm
          97 68 -17 callgsubr
          -100 callsubr
          endchar
        </CharString>
        <CharString name="dotlessj">
          -9 callgsubr
          hstem
          104 68 vstem
          172 425 -89 callsubr
          endchar
        </CharString>
        <CharString name="e">
          -1 -12 -48 callgsubr
          hstem
          53 73 248 70 vstem
          -101 callsubr
          endchar
        </CharString>
        <CharString name="e.smcp">
          -4 -51 callsubr
          hstem
          92 69 vstem
          -104 callgsubr
          endchar
        </CharString>
        <CharString name="eacute">
          -1 -12 -48 callgsubr
          34 -45 callsubr
          53 73 67 194 -13 70 hintmask 11101010
          -101 callsubr
          hintmask 00010100
          -59 116 -102 callgsubr
        </CharString>
        <CharString name="eacute.smcp">
          -4 -51 callsubr
          46 -45 callsubr
          92 69 47 194 hintmask 11101000
          -104 callgsubr
          hintmask 00010100
          -244 557 -102 callgsubr
        </CharString>
        <CharString name="ecaron">
          -1 -12 -48 callgsubr
          45 -11 callsubr
          53 73 -1 268 -19 70 hintmask 11101010
          -101 callsubr
          hintmask 00010100
          -90 261 -103 callsubr
        </CharString>
        <CharString name="ecaron.smcp">
          -4 -51 callsubr
          57 -11 callsubr
          92 69 -21 268 hintmask 11101000
          -104 callgsubr
          hintmask 00010100
          -275 702 -103 callsubr
        </CharString>
        <CharString name="ecircumflex">
          -1 -12 -48 callgsubr
          36 -4 callsubr
          53 73 -7 269 -14 70 hintmask 11101010
          -101 callsubr
          hintmask 00010100
          98 94 -99 callgsubr
        </CharString>
        <CharString name="ecircumflex.smcp">
          -4 -51 callsubr
          48 -4 callsubr
          92 69 -27 269 hintmask 11101000
          -104 callgsubr
          hintmask 00010100
          -87 535 -99 callgsubr
        </CharString>
        <CharString name="edieresis">
          -1 -12 -48 callgsubr
          70 65 hstemhm
          53 73 -3 10 callgsubr
          -6 70 hintmask 11101001
          -101 callsubr
          hintmask 00010110
          46 156 -107 callgsubr
        </CharString>
        <CharString name="edieresis.smcp">
          -4 -51 callsubr
          82 65 hstemhm
          92 69 -23 10 callgsubr
          hintmask 11101000
          -104 callgsubr
          hintmask 00010110
          -139 597 -107 callgsubr
        </CharString>
        <CharString name="egrave">
          -1 -12 -48 callgsubr
          34 -45 callsubr
          53 73 5 194 49 70 hintmask 11101010
          -101 callsubr
          hintmask 00010100
          -62 269 -91 callsubr
        </CharString>
        <CharString name="egrave.smcp">
          -4 -51 callsubr
          46 -45 callsubr
          92 69 -15 194 hintmask 11101000
          -104 callgsubr
          hintmask 00010100
          -247 710 -91 callsubr
        </CharString>
        <CharString name="eight">
          -12 54 564 54 hstemhm
          56 72 -53 71 237 71 -54 72 hintmask 00000000
          hintmask 11100100
          56 162 rmoveto
          -112 84 -62 121 114 98 68 114 -1 vhcurveto
          82 -49 60 -68 34 vhcurveto
          hintmask 11011000
          57 29 42 54 69 vvcurveto
          96 -80 66 -110 -105 -84 -68 -100 -72 44 -51 60 -29 vhcurveto
          hintmask 11100100
          -67 -31 -56 -66 -81 vvcurveto
          194 154 rmoveto
          71 -18 79 -41 -86 vvcurveto
          -83 -66 -46 -71 -72 -63 41 85 62 41 60 70 29 vhcurveto
          44 50 rmoveto
          hintmask 11011000
          -82 20 -55 38 67 vvcurveto
          69 54 43 64 64 55 -40 -72 -53 -34 -48 -54 -26 vhcurveto
          endchar
        </CharString>
        <CharString name="eight.smcp">
          -22 -12 52 462 52 hstemhm
          51 71 -55 70 205 71 -55 73 hintmask 00000000
          hintmask 11101000
          51 129 rmoveto
          -89 76 -52 110 vhcurveto
          hintmask 11100100
          106 88 55 98 69 -48 48 -61 32 hvcurveto
          hintmask 11011000
          53 23 38 44 62 vvcurveto
          81 -73 54 -100 -96 -77 -55 -88 -63 43 -40 58 -27 vhcurveto
          hintmask 11101000
          -67 -26 -50 -62 -64 vvcurveto
          hintmask 11100100
          307 9 rmoveto
          -68 -52 -30 -67 -65 -52 30 65 51 41 49 72 21 vhcurveto
          59 -21 64 -35 -62 vvcurveto
          hintmask 11011000
          -221 279 rmoveto
          49 44 36 59 60 42 -31 -54 -42 -30 -39 -51 -21 vhcurveto
          -5 2 rlineto
          -72 27 -47 22 51 vvcurveto
          endchar
        </CharString>
        <CharString name="emdash">
          284 233 62 hstem
          80 627 vstem
          704 233 rmoveto
          2 9 -35 callgsubr
          10 vhcurveto
          -621 -13 callsubr
        </CharString>
        <CharString name="endash">
          10 233 62 hstem
          64 386 vstem
          447 233 rmoveto
          2 9 -35 callgsubr
          10 vhcurveto
          -380 -13 callsubr
        </CharString>
        <CharString name="eogonek">
          -1 -217 51 154 -48 callgsubr
          hstem
          53 73 92 62 94 70 vstem
          440 224 rmoveto
          3 24 1 16 24 vvcurveto
          118 -64 96 -128 -125 -74 -108 -148 -137 48 -121 148 9 10 1 1 9 vhcurveto
          -36 -34 -23 -42 -41 0 callsubr
          57 37 39 14 18 21 vhcurveto
          17 -7 12 -10 8 vhcurveto
          -9 -16 -24 -9 -25 -6 callgsubr
          34 25 46 47 39 hvcurveto
          29 10 27 14 22 15 -2 15 -11 22 -13 11 rrcurveto
          -25 -44 -48 -18 -54 hhcurveto
          -95 -34 71 104 -3 hvcurveto
          126 225 rmoveto
          88 34 -72 -85 hvcurveto
          -14 -248 vlineto
          102 4 44 69 78 hhcurveto
          endchar
        </CharString>
        <CharString name="eogonek.smcp">
          -4 -217 51 166 60 186 59 178 59 hstem
          92 69 99 62 vstem
          440 -148 rmoveto
          -9 -17 -23 -9 -24 hhcurveto
          -32 -22 18 34 42 42 -5 callsubr
          3 14 rrcurveto
          2 11 callgsubr
          6 vvcurveto
          -237 hlineto
          -24 -17 0 -1 -14 hvcurveto
          6 1 -23 callsubr
          153 vlineto
          -1 19 20 1 14 hhcurveto
          177 10 callsubr
          0 12 -48 callsubr
          13 -2 9 vhcurveto
          -177 hlineto
          -14 -20 -1 -19 hhcurveto
          129 vlineto
          20 -1 18 12 vvcurveto
          -1 20 20 1 14 hhcurveto
          221 hlineto
          3 11 1 13 7 vvcurveto
          8 0 10 20 callgsubr
          -340 hlineto
          -5 -5 rlineto
          -493 vlineto
          -27 16 -17 25 vhcurveto
          205 hlineto
          -46 -31 -32 -47 -49 0 callsubr
          57 -46 callsubr
          endchar
        </CharString>
        <CharString name="equal">
          175 65 103 65 hstem
          56 418 vstem
          471 175 -40 callgsubr
          412 168 -40 callgsubr
          endchar
        </CharString>
        <CharString name="eth">
          12 -12 54 390 55 hstem
          51 71 271 71 vstem
          130 572 rmoveto
          1 -14 17 -22 11 -7 106 73 rcurveline
          40 -42 32 -50 16 -48 rrcurveto
          15 -29 -34 10 -33 hhcurveto
          -56 -45 -18 -35 -35 hvcurveto
          -52 -53 -18 -62 -79 vvcurveto
          -80 18 -66 52 -53 vhcurveto
          -35 35 45 -18 56 hhcurveto
          57 45 18 35 35 hvcurveto
          52 53 18 70 78 vvcurveto
          159 -52 138 -96 99 vhcurveto
          79 54 -1 14 -18 22 -11 7 rlinecurve
          -89 -61 -34 28 -38 23 -43 19 rlinecurve
          -14 -8 -10 -21 -4 -17 33 -15 31 -20 29 -24 rrcurveto
          167 -397 rmoveto
          -98 -33 -102 -102 -103 -33 100 98 99 33 93 103 46 40 -16 -23 30 vhcurveto
          10 -38 9 -48 -65 vvcurveto
          endchar
        </CharString>
        <CharString name="eth.smcp">
          69 -3 57 187 61 185 58 hstem
          97 70 283 74 vstem
          524 270 rmoveto
          93 -14 82 -78 59 vhcurveto
          29 -38 -71 12 -47 hhcurveto
          -70 -28 -1 -2 -76 hvcurveto
          -5 -5 rlineto
          -235 -63 vlineto
          4 callsubr
          -8 -14 vvcurveto
          -13 7 callgsubr
          63 -236 hlineto
          5 -5 rlineto
          -2 75 29 -1 70 hhcurveto
          47 71 11 29 38 hvcurveto
          79 59 13 81 93 vvcurveto
          -74 hmoveto
          -101 -24 -115 -151 vhcurveto
          -41 -31 -1 -36 hhcurveto
          188 145 vlineto
          2 9 -35 callgsubr
          9 vhcurveto
          -145 186 hlineto
          36 31 -1 41 hhcurveto
          151 24 -116 -101 hvcurveto
          endchar
        </CharString>
        <CharString name="exclam">
          -230 3 87 hstemhm
          106 66 -17 callgsubr
          109 185 rmoveto
          -3 8 10 -1 10 hhcurveto
          10 9 1 3 8 hvcurveto
          18 499 -5 5 rlineto
          -27 -29 -8 -13 -17 hvcurveto
          33 -578 -60 callsubr
        </CharString>
        <CharString name="exclamdown">
          -230 400 87 hstem
          101 67 vstem
          165 305 rmoveto
          3 -8 -9 1 -10 hhcurveto
          -10 -10 -1 -3 -8 hvcurveto
          -18 -499 5 -5 rlineto
          28 28 8 13 18 hvcurveto
          -33 578 rmoveto
          17 17 -25 callsubr
          -17 4 -17 hhcurveto
          -16 -29 callsubr
          16 hhcurveto
          endchar
        </CharString>
        <CharString name="f">
          -187 438 52 197 52 hstem
          109 67 vstem
          109 hmoveto
          -2 10 13 -1 11 hhcurveto
          10 -70 callgsubr
          439 vlineto
          143 -1 rlineto
          15 callgsubr
          10 vvcurveto
          10 -1 7 20 callgsubr
          -148 -2 rlineto
          -5 38 -3 34 32 vvcurveto
          60 30 34 49 29 33 -7 -9 30 vhcurveto
          11 12 6 18 17 vvcurveto
          11 -28 -49 10 -33 hhcurveto
          -94 -48 -63 -81 -30 4 -36 3 -40 hvcurveto
          -83 2 rlineto
          -39 callgsubr
          -7 0 callgsubr
          -7 26 callsubr
        </CharString>
        <CharString name="f.smcp">
          -49 245 58 179 60 19 callgsubr
          vstem
          430 542 rmoveto
          -333 hlineto
          -5 -4 rlineto
          -538 vlineto
          -2 9 13 -1 13 -71 callsubr
          246 vlineto
          -1 18 18 0 14 hhcurveto
          175 10 callsubr
          1 10 2 callgsubr
          -1 12 20 callgsubr
          -175 hlineto
          -14 -18 -1 -18 hhcurveto
          77 vlineto
          34 -1 35 35 vvcurveto
          -1 26 33 0 39 hhcurveto
          136 hlineto
          33 7 12 20 8 -2 12 -3 8 hvcurveto
          endchar
        </CharString>
        <CharString name="five">
          -12 58 325 58 157 62 hstem
          95 69 227 74 vstem
          431 648 rmoveto
          -323 hlineto
          -6 -6 -13 -301 6 -9 14 -12 13 -1 rlinecurve
          34 39 48 18 44 hhcurveto
          61 77 -30 -122 -122 -71 -51 -74 -60 -45 22 28 -41 hvcurveto
          -15 -11 -14 -20 -2 -17 rrcurveto
          -31 38 61 -29 80 hhcurveto
          109 108 73 163 131 -82 74 -114 -40 -39 -12 -18 -33 hvcurveto
          2 12 1 13 1 11 4 85 rcurveline
          15 1 27 -1 25 vhcurveto
          -1 18 19 0 22 hhcurveto
          179 hlineto
          22 11 11 23 7 -2 12 -3 -14 callgsubr
        </CharString>
        <CharString name="five.smcp">
          -22 -12 58 257 55 125 59 hstem
          87 69 194 73 vstem
          62 39 rmoveto
          -28 36 56 -23 72 hhcurveto
          99 98 63 132 107 -74 68 -99 -36 -35 -11 -15 -30 hvcurveto
          2 17 0 17 1 13 4 81 rcurveline
          23 49 vlineto
          157 hlineto
          24 11 10 21 7 -1 11 -3 10 hvcurveto
          -294 hlineto
          -6 -5 -12 -257 10 -10 11 -7 12 -3 rlinecurve
          25 40 37 18 43 hhcurveto
          51 65 -33 -92 -91 -61 -41 -66 -53 -40 14 24 -37 hvcurveto
          -15 -10 -13 -20 -3 -15 rrcurveto
          endchar
        </CharString>
        <CharString name="four">
          154 59 440 -20 hstem
          306 67 vstem
          306 hmoveto
          -2 8 12 -1 13 hhcurveto
          14 -47 callsubr
          114 vlineto
          10 -1 21 10 vvcurveto
          10 19 -1 10 hhcurveto
          68 hlineto
          4 10 1 13 2 callgsubr
          2 callsubr
          11 vhcurveto
          -71 hlineto
          -10 -19 -1 -10 hhcurveto
          9 1 21 10 vvcurveto
          156 vlineto
          -3 3 rlineto
          -23 hlineto
          -24 -17 -17 -32 hvcurveto
          -109 vlineto
          -10 1 -21 -10 vvcurveto
          -81 hlineto
          -24 -42 0 -2 -37 hvcurveto
          -2 3 12 23 17 38 14 31 rlinecurve
          148 336 -16 10 -32 6 -18 -5 rlinecurve
          -174 -398 rlineto
          -14 -31 -8 -18 -11 vvcurveto
          -14 8 -13 9 -14 vhcurveto
          200 hlineto
          10 20 1 10 hhcurveto
          -10 -1 -21 -10 vvcurveto
          endchar
        </CharString>
        <CharString name="four.smcp">
          -22 125 59 363 -20 hstem
          276 66 vstem
          276 hmoveto
          -2 9 12 -1 13 hhcurveto
          13 9 -79 callgsubr
          86 vlineto
          10 -1 20 10 vvcurveto
          11 16 -1 10 hhcurveto
          58 hlineto
          4 10 1 12 10 vvcurveto
          8 0 9 -2 11 vhcurveto
          -61 hlineto
          -10 -16 -1 -11 hhcurveto
          9 1 21 10 vvcurveto
          121 vlineto
          -3 3 rlineto
          -21 hlineto
          -23 -19 -17 -32 hvcurveto
          -74 vlineto
          -9 1 -24 -8 vvcurveto
          -64 hlineto
          -21 -41 -1 -2 -33 hvcurveto
          -2 2 13 23 18 38 14 29 rlinecurve
          127 261 -15 11 -32 6 -18 -4 rlinecurve
          -157 -330 rlineto
          -11 -23 -8 -18 -10 vvcurveto
          -13 8 -15 9 -13 vhcurveto
          175 hlineto
          11 18 1 9 hhcurveto
          -10 -1 -20 -10 vvcurveto
          endchar
        </CharString>
        <CharString name="foursuperior">
          -84 438 54 hstem
          231 59 vstem
          231 355 -90 callgsubr
        </CharString>
        <CharString name="fraction">
          -320 0 -20 hstem
          -130 445 vstem
          -130 hmoveto
          -59 callgsubr
          endchar
        </CharString>
        <CharString name="g">
          19 -220 56 156 60 390 60 -5 -20 hstemhm
          52 69 248 64 hintmask 00000000
          hintmask 11101100
          52 244 rmoveto
          -152 58 -100 112 64 51 35 33 32 vhcurveto
          -60 vlineto
          -86 -17 -78 -121 -36 -60 12 20 -41 vhcurveto
          -11 -13 -8 -22 -1 -19 rrcurveto
          -18 42 61 -16 61 hhcurveto
          72 52 29 33 26 hvcurveto
          32 39 13 55 98 vvcurveto
          318 vlineto
          hintmask 11011100
          -5 callgsubr
          hintmask 11101100
          -26 -10 -15 -18 -9 -21 rrcurveto
          30 -34 -44 24 -64 hhcurveto
          -85 -100 -77 -181 hvcurveto
          317 133 rmoveto
          -247 vlineto
          -44 -32 -53 -34 -53 hhcurveto
          -60 -50 55 137 141 60 57 65 44 45 -22 -29 34 hvcurveto
          endchar
        </CharString>
        <CharString name="g.smcp">
          44 -12 59 169 62 215 61 -59 -20 hstemhm
          48 74 296 -1 callgsubr
          hintmask 11101100
          295 276 rmoveto
          -3 -8 -2 -12 -7 vvcurveto
          -23 12 -10 21 vhcurveto
          97 hlineto
          -2 -17 0 -18 -14 vvcurveto
          -102 vlineto
          -9 -30 -41 -9 -52 hhcurveto
          -115 -58 75 146 169 79 56 88 63 55 -19 -31 42 hvcurveto
          hintmask 11011100
          14 9 17 21 6 22 rrcurveto
          hintmask 11101100
          37 -49 -75 22 -68 hhcurveto
          -122 -124 -74 -211 -138 55 -143 179 75 76 17 19 54 hvcurveto
          209 vlineto
          31 -14 14 -51 -44 -41 -1 -1 -42 vhcurveto
          endchar
        </CharString>
        <CharString name="germandbls">
          -88 callgsubr
        </CharString>
        <CharString name="germandbls.cap">
          -88 callgsubr
        </CharString>
        <CharString name="germandbls.cap_smcp">
          42 -10 54 224 58 175 53 hstem
          93 70 241 68 vstem
          93 hmoveto
          -2 10 14 -1 10 hhcurveto
          12 13 1 2 11 hvcurveto
          377 vlineto
          84 41 40 81 79 40 -52 -61 -6 -1 -6 -1 -6 vhcurveto
          -53 -19 -42 -39 -49 vvcurveto
          -32 20 -30 41 -28 vhcurveto
          36 -25 rlineto
          26 -18 11 -16 -21 vvcurveto
          -29 -30 -20 -43 -32 -29 8 12 -26 vhcurveto
          -13 -11 -10 -24 -1 -16 rrcurveto
          -15 33 41 -8 40 hhcurveto
          87 57 43 63 35 -19 33 -44 30 hvcurveto
          -33 23 rlineto
          -28 20 -11 13 17 vvcurveto
          30 34 25 49 10 vhcurveto
          7 20 2 22 18 vvcurveto
          95 -76 67 -109 -110 -84 -52 -115 vhcurveto
          -61 vlineto
          -77 1 rlineto
          4 callsubr
          -10 -9 24 callgsubr
          -12 -38 callgsubr
          77 1 rlineto
          endchar
        </CharString>
        <CharString name="germandbls.smcp">
          467 8 callgsubr
          hstemhm
          49 73 254 73 86 73 254 73 hintmask 11110000
          34 47 rmoveto
          -101 callgsubr
          hintmask 11001100
          486 hmoveto
          -101 callgsubr
          endchar
        </CharString>
        <CharString name="grave">
          -106 536 182 hstem
          71 194 vstem
          130 718 -91 callsubr
        </CharString>
        <CharString name="grave.cap">
          -106 729 149 hstem
          74 225 vstem
          111 878 -72 callgsubr
        </CharString>
        <CharString name="greater">
          54 472 hstem
          402 73 vstem
          475 260 rmoveto
          7 19 -2 22 -5 18 -379 207 rcurveline
          -15 -11 -15 -20 -3 -24 274 -145 rcurveline
          65 -33 rlineto
          -6 vlineto
          -65 -33 -274 -145 3 -25 15 -19 15 -11 rlinecurve
          endchar
        </CharString>
        <CharString name="guillemotleft">
          5 callsubr
          hintmask 10100000
          473 423 -66 callgsubr
          hintmask 11000000
          -51 167 -66 callgsubr
          endchar
        </CharString>
        <CharString name="guillemotright">
          5 callsubr
          hintmask 11000000
          46 83 -67 callsubr
          hintmask 10100000
          50 -167 -67 callsubr
          endchar
        </CharString>
        <CharString name="guilsinglleft">
          11 callsubr
          273 423 -66 callgsubr
          endchar
        </CharString>
        <CharString name="guilsinglright">
          11 callsubr
          46 83 -67 callsubr
          endchar
        </CharString>
        <CharString name="h">
          40 436 62 hstem
          90 67 235 68 vstem
          460 343 rmoveto
          -52 callgsubr
          263 vlineto
          -66 callsubr
          -729 vlineto
          -2 9 11 -77 callsubr
          356 vlineto
          46 39 67 34 53 hhcurveto
          60 16 -34 -82 hvcurveto
          -281 vlineto
          -30 10 -15 25 16 18 6 9 9 vhcurveto
          -8 22 -2 30 31 vvcurveto
          endchar
        </CharString>
        <CharString name="h.smcp">
          100 252 60 230 -20 19 callgsubr
          280 69 vstem
          442 hmoveto
          -2 8 13 -18 callsubr
          542 -39 callsubr
          -12 -12 callsubr
          -13 17 callgsubr
          -8 hvcurveto
          -172 vlineto
          -23 1 -15 -21 vvcurveto
          -7 -42 1 -6 hhcurveto
          12 callsubr
          15 23 vvcurveto
          172 -39 callsubr
          -13 1 -12 hhcurveto
          -12 -14 -64 callsubr
          -542 vlineto
          -83 callsubr
          193 -34 callsubr
          endchar
        </CharString>
        <CharString name="hbar">
          43 436 62 78 52 hstem
          93 67 235 68 vstem
          160 688 rmoveto
          -66 callsubr
          -101 vlineto
          -67 1 rlineto
          -39 callgsubr
          -7 -10 vvcurveto
          -10 7 callgsubr
          67 1 rlineto
          -576 vlineto
          -2 9 11 -77 callsubr
          356 vlineto
          46 39 67 34 53 hhcurveto
          60 16 -34 -82 hvcurveto
          -281 vlineto
          -30 10 -15 25 16 18 6 9 9 vhcurveto
          -8 22 -2 30 31 vvcurveto
          251 vlineto
          -52 callgsubr
          152 vlineto
          170 -2 rlineto
          1 9 1 8 10 vvcurveto
          10 -1 7 -1 10 vhcurveto
          -170 -2 rlineto
          endchar
        </CharString>
        <CharString name="hbar.smcp">
          108 253 60 78 151 hstem
          96 70 280 69 vstem
          166 hmoveto
          194 -34 callsubr
          -194 vlineto
          -2 8 13 -18 callsubr
          391 64 vlineto
          15 callgsubr
          -47 callgsubr
          5 20 callgsubr
          -64 93 hlineto
          2 -10 -12 -12 callsubr
          -13 17 callgsubr
          -8 hvcurveto
          -93 -280 93 -39 callsubr
          -13 1 -12 hhcurveto
          -12 -14 -64 callsubr
          -93 -64 vlineto
          -39 callgsubr
          -5 -40 callsubr
          -7 -38 callgsubr
          64 -391 hlineto
          -83 callsubr
          226 313 rmoveto
          12 callsubr
          14 23 vvcurveto
          21 280 -21 vlineto
          -23 1 -14 -21 vvcurveto
          -7 -42 1 -6 hhcurveto
          endchar
        </CharString>
        <CharString name="hyphen">
          -58 callsubr
        </CharString>
        <CharString name="i">
          -26 callgsubr
          95 71 hstemhm
          67 91 -61 22 callgsubr
          hintmask 10010000
          -100 callsubr
          hintmask 01100000
          -98 624 -95 callgsubr
          endchar
        </CharString>
        <CharString name="i.smcp">
          -19 callgsubr
          hstem
          96 70 vstem
          -87 callgsubr
          endchar
        </CharString>
        <CharString name="iacute">
          -26 callgsubr
          43 -45 callsubr
          52 194 -149 22 callgsubr
          hintmask 10010000
          -100 callsubr
          hintmask 01100000
          -113 565 -102 callgsubr
        </CharString>
        <CharString name="iacute.smcp">
          -19 callgsubr
          66 -45 callsubr
          69 194 -167 70 hintmask 10010000
          -87 callgsubr
          hintmask 01100000
          -27 75 -102 callgsubr
        </CharString>
        <CharString name="icircumflex">
          -26 callgsubr
          45 -4 callsubr
          -22 269 -150 22 callgsubr
          hintmask 10010000
          -100 callsubr
          hintmask 01100000
          44 543 -99 callgsubr
        </CharString>
        <CharString name="icircumflex.smcp">
          -19 callgsubr
          68 -4 callsubr
          -5 269 -168 70 hintmask 10010000
          -87 callgsubr
          hintmask 01100000
          130 53 -99 callgsubr
        </CharString>
        <CharString name="idieresis">
          -26 callgsubr
          79 65 hstemhm
          -18 82 33 68 -8 82 hintmask 00000000
          hintmask 10010000
          -100 callsubr
          hintmask 01101000
          -8 605 -107 callgsubr
        </CharString>
        <CharString name="idieresis.smcp">
          -19 callgsubr
          102 65 hstemhm
          -1 82 15 70 8 82 hintmask 10010000
          -87 callgsubr
          hintmask 01101000
          78 115 -107 callgsubr
        </CharString>
        <CharString name="igrave">
          -26 callgsubr
          43 -45 callsubr
          -10 194 -87 22 callgsubr
          hintmask 10010000
          -100 callsubr
          hintmask 01100000
          -116 718 -91 callsubr
        </CharString>
        <CharString name="igrave.smcp">
          -19 callgsubr
          66 -45 callsubr
          7 194 -105 70 hintmask 10010000
          -87 callgsubr
          hintmask 01100000
          -30 228 -91 callsubr
        </CharString>
        <CharString name="ij">
          10 -198 -21 657 55 95 71 hstemhm
          67 91 -61 68 162 91 -61 22 callgsubr
          hintmask 01001000
          -100 callsubr
          hintmask 00110000
          -98 624 -95 callgsubr
          hintmask 11000010
          358 -199 -89 callsubr
          hintmask 00100100
          -98 612 -95 callgsubr
          endchar
        </CharString>
        <CharString name="ij.smcp">
          137 -10 58 494 -20 hstemhm
          96 70 327 70 hintmask 01100000
          -87 callgsubr
          hintmask 11010000
          196 -465 rmoveto
          -14 -13 -10 -20 -2 -19 rrcurveto
          -18 32 48 -17 53 hhcurveto
          112 52 60 130 hvcurveto
          362 vlineto
          2 -9 -12 -12 callsubr
          -13 17 callgsubr
          -10 hvcurveto
          -360 vlineto
          -92 -25 -42 -73 -35 -44 15 14 -24 vhcurveto
          endchar
        </CharString>
        <CharString name="itilde">
          -26 callgsubr
          64 64 hstemhm
          -55 338 -186 22 callgsubr
          hintmask 10010000
          -100 callsubr
          hintmask 00000000
          -33 571 -73 callgsubr
          hintmask 01100000
          -104 callsubr
        </CharString>
        <CharString name="itilde.smcp">
          -19 callgsubr
          87 64 hstemhm
          -38 338 -204 70 hintmask 10010000
          -87 callgsubr
          hintmask 00000000
          53 81 -73 callgsubr
          hintmask 01100000
          -104 callsubr
        </CharString>
        <CharString name="j">
          -9 callgsubr
          95 71 hstemhm
          74 91 -61 68 hintmask 11001000
          172 425 -89 callsubr
          hintmask 00110000
          -98 612 -95 callgsubr
          endchar
        </CharString>
        <CharString name="j.smcp">
          -125 -10 58 494 -20 hstem
          231 70 vstem
          30 77 rmoveto
          -14 -13 -10 -20 -2 -19 rrcurveto
          -18 32 48 -17 53 hhcurveto
          112 52 60 130 hvcurveto
          362 vlineto
          2 -9 -12 -12 callsubr
          -13 17 callgsubr
          -10 hvcurveto
          -360 vlineto
          -92 -25 -42 -73 -35 -44 15 14 -24 vhcurveto
          endchar
        </CharString>
        <CharString name="jcircumflex">
          -9 callgsubr
          45 -4 callsubr
          -15 269 -150 68 hintmask 11001000
          172 425 -89 callsubr
          hintmask 00110000
          44 531 -99 callgsubr
        </CharString>
        <CharString name="jcircumflex.smcp">
          -125 -10 58 494 -20 68 -4 callsubr
          130 269 -168 70 hintmask 11001000
          30 77 rmoveto
          -14 -13 -10 -20 -2 -19 rrcurveto
          -18 32 48 -17 53 hhcurveto
          112 52 60 130 hvcurveto
          362 vlineto
          2 -9 -12 -12 callsubr
          -13 17 callgsubr
          -10 hvcurveto
          -360 vlineto
          -92 -25 -42 -73 -35 -44 15 14 -24 vhcurveto
          hintmask 00110000
          331 518 -99 callgsubr
        </CharString>
        <CharString name="k">
          -17 225 57 202 9 hstem
          90 67 vstem
          -80 callsubr
          endchar
        </CharString>
        <CharString name="k.smcp">
          23 248 60 227 9 19 callgsubr
          vstem
          -81 callsubr
          endchar
        </CharString>
        <CharString name="kcommaaccent">
          -17 -54 callgsubr
          280 57 202 9 hstemhm
          90 67 86 73 hintmask 00011100
          -80 callsubr
          hintmask 11100010
          -107 -146 -94 callgsubr
        </CharString>
        <CharString name="kcommaaccent.smcp">
          16 -54 callgsubr
          303 60 227 9 hstemhm
          92 70 86 73 hintmask 00011100
          -81 callsubr
          hintmask 11100010
          -190 -79 -94 callgsubr
        </CharString>
        <CharString name="kgreenlandic">
          -17 225 57 202 9 hstem
          90 67 vstem
          376 178 rmoveto
          -26 55 -26 28 -48 9 8 6 7 9 7 10 131 189 rcurveline
          -6 8 rlineto
          1 -13 -7 0 -13 hhcurveto
          -30 -10 -13 -22 -15 hvcurveto
          -111 -163 rlineto
          -8 -5 -7 -5 -9 hhcurveto
          -46 -3 rlineto
          167 vlineto
          -66 callsubr
          -487 vlineto
          -2 9 11 -77 callsubr
          222 vlineto
          2 23 20 1 13 hhcurveto
          58 19 -17 -58 26 hvcurveto
          48 -105 rlineto
          -31 13 10 -20 32 hhcurveto
          18 19 10 11 8 hvcurveto
          -17 11 -16 28 -15 34 rrcurveto
          endchar
        </CharString>
        <CharString name="kgreenlandic.smcp">
          23 248 60 227 9 19 callgsubr
          vstem
          504 21 rmoveto
          -13 12 -14 24 -11 22 -58 123 rcurveline
          -25 51 -28 34 -53 7 9 8 9 10 8 11 147 212 rcurveline
          -6 7 rlineto
          1 -14 -12 1 -12 hhcurveto
          -28 -9 -12 -20 -14 hvcurveto
          -123 -182 -11 -15 -5 -4 -17 -1 rlinecurve
          -62 -3 rlineto
          191 -32 callsubr
          -28 -68 callsubr
          -539 vlineto
          -2 9 11 -41 callgsubr
          12 15 1 2 9 -44 callgsubr
          endchar
        </CharString>
        <CharString name="l">
          -224 -4 57 hstem
          88 67 vstem
          -57 callgsubr
          endchar
        </CharString>
        <CharString name="l.smcp">
          -48 0 61 484 -20 19 callgsubr
          vstem
          -56 callsubr
          endchar
        </CharString>
        <CharString name="ldot">
          -189 -4 57 256 79 hstemhm
          88 67 73 90 hintmask 10100000
          -57 callgsubr
          hintmask 01010000
          -7 296 -75 callgsubr
        </CharString>
        <CharString name="ldot.smcp">
          -49 0 61 201 79 204 -20 hstemhm
          92 70 133 90 hintmask 10110000
          -56 callsubr
          hintmask 01001000
          -133 241 -75 callgsubr
        </CharString>
        <CharString name="less">
          53 472 hstem
          55 73 vstem
          55 318 rmoveto
          -7 -18 2 -22 5 -19 379 -206 rcurveline
          15 11 15 19 3 25 -274 145 rcurveline
          -65 33 rlineto
          6 vlineto
          65 33 274 145 -3 24 -15 20 -15 11 rlinecurve
          endchar
        </CharString>
        <CharString name="logicalnot">
          263 65 hstem
          400 69 vstem
          54 328 rmoveto
          25 callsubr
          -11 -38 callgsubr
          311 hlineto
          9 16 1 11 hhcurveto
          -11 -1 -15 -9 vvcurveto
          -120 vlineto
          -2 10 10 -41 callgsubr
          13 13 -73 callsubr
          213 vlineto
          -6 6 rlineto
          endchar
        </CharString>
        <CharString name="lslash">
          -196 -4 57 hstem
          112 67 82 9 vstem
          216 53 rmoveto
          -24 -13 14 28 hvcurveto
          276 vlineto
          88 49 4 16 0 21 -5 18 rlinecurve
          -5 3 -82 -46 rlineto
          256 vlineto
          -66 callsubr
          -334 vlineto
          -77 -42 -4 -17 0 -20 5 -18 rlinecurve
          5 -3 71 39 rlineto
          -259 vlineto
          -51 34 -28 48 19 32 3 3 19 vhcurveto
          1 4 0 5 5 vvcurveto
          13 -2 14 -4 10 vhcurveto
          endchar
        </CharString>
        <CharString name="lslash.smcp">
          -43 0 61 484 -20 hstem
          98 70 vstem
          168 501 rmoveto
          30 -6 14 -30 vhcurveto
          -29 hlineto
          -5 -5 rlineto
          -247 vlineto
          -63 -18 -4 -17 0 -22 5 -15 rlinecurve
          5 -3 57 16 rlineto
          -189 vlineto
          -29 18 -16 22 vhcurveto
          250 hlineto
          25 15 -54 callsubr
          7 vvcurveto
          -189 hlineto
          -24 -27 -1 -2 -26 hvcurveto
          196 vlineto
          174 51 4 17 0 21 -5 16 rlinecurve
          -5 2 -168 -50 rlineto
          endchar
        </CharString>
        <CharString name="m">
          286 437 62 hstem
          90 68 206 67 207 67 vstem
          364 321 rmoveto
          -321 vlineto
          -2 8 -65 callsubr
          345 vlineto
          11 vlineto
          53 40 54 28 43 hhcurveto
          52 18 -33 -82 hvcurveto
          -283 vlineto
          -30 10 -15 25 16 17 6 9 10 vhcurveto
          -9 22 -2 30 31 vvcurveto
          253 vlineto
          84 -38 70 -87 -58 -55 -30 -47 -49 vhcurveto
          45 -18 -36 32 -58 hhcurveto
          -53 -55 -27 -46 -40 hvcurveto
          20 vlineto
          30 -4 17 -32 vhcurveto
          -26 hlineto
          -6 -7 rlineto
          -486 vlineto
          -2 9 -65 callsubr
          356 vlineto
          51 38 55 30 43 hhcurveto
          52 18 -34 -82 hvcurveto
          endchar
        </CharString>
        <CharString name="m.smcp">
          211 1 -20 99 72 313 77 hstem
          78 559 vstem
          78 1 rmoveto
          -3 9 16 -2 12 hhcurveto
          12 10 1 2 11 hvcurveto
          27 328 rlineto
          3 35 4 65 38 vvcurveto
          5 hlineto
          136 -385 rlineto
          -2 10 12 -1 12 hhcurveto
          11 -70 callgsubr
          137 385 rlineto
          5 hlineto
          -38 4 -65 3 -35 vhcurveto
          27 -328 rlineto
          -2 11 10 -1 10 hhcurveto
          12 16 2 3 11 hvcurveto
          -50 541 rlineto
          3 -10 -24 2 -14 hhcurveto
          -15 -23 -2 -3 -9 hvcurveto
          -95 -277 -10 -25 -24 -74 -2 -14 rlinecurve
          -4 hlineto
          -3 14 -26 74 -9 25 -96 277 rcurveline
          4 -12 -20 -23 callgsubr
          -15 -21 -1 -4 -13 hvcurveto
          endchar
        </CharString>
        <CharString name="macron">
          -106 578 63 hstemhm
          67 264 -17 callgsubr
          331 578 rmoveto
          2 9 1 9 -47 callgsubr
          9 -2 9 vhcurveto
          -264 hlineto
          25 callsubr
          -9 -4 callgsubr
        </CharString>
        <CharString name="mu">
          51 -197 -21 208 62 438 -20 hstem
          91 66 239 68 vstem
          464 490 rmoveto
          2 -9 -12 -23 callgsubr
          -12 -44 callsubr
          -361 vlineto
          -46 -32 -46 -31 -51 hhcurveto
          -61 -47 39 73 -2 hvcurveto
          326 vlineto
          2 -9 -11 -53 callsubr
          -11 -1 -2 -8 hvcurveto
          -611 vlineto
          -32 -2 -29 -9 -22 vhcurveto
          -9 9 17 -5 16 hhcurveto
          25 8 15 30 hvcurveto
          204 vlineto
          -26 24 36 -15 44 hhcurveto
          60 48 30 43 34 hvcurveto
          7 -31 17 -26 34 -13 15 7 13 16 5 12 rrcurveto
          -26 25 -2 42 43 vvcurveto
          endchar
        </CharString>
        <CharString name="multiply">
          106 367 hstem
          81 368 vstem
          243 222 rmoveto
          22 22 7 -7 9 -10 6 -5 rlinecurve
          114 -116 11 4 10 7 8 8 rlinecurve
          8 8 6 9 5 12 -116 114 rcurveline
          -6 5 -10 10 -7 7 23 22 rcurveline
          116 114 -5 12 -7 10 -8 8 rlinecurve
          -8 8 -10 6 -10 3 -114 -115 rcurveline
          -22 -23 -7 7 -10 10 -5 6 rlinecurve
          -114 115 -11 -3 -10 -6 -8 -9 rlinecurve
          -9 -10 -5 -8 -5 -11 116 -114 rcurveline
          5 -6 10 -9 8 -7 -23 -22 rcurveline
          -116 -114 5 -12 8 -10 7 -7 rlinecurve
          7 -7 9 -7 12 -5 rrcurveto
          endchar
        </CharString>
        <CharString name="n">
          -7 callgsubr
          hstemhm
          90 68 235 22 callgsubr
          hintmask 10110000
          461 344 rmoveto
          -52 callgsubr
          hintmask 01110000
          20 -32 callsubr
          -26 -68 callsubr
          -487 vlineto
          -2 9 -65 callsubr
          357 vlineto
          46 39 67 34 53 hhcurveto
          60 16 -34 -82 hvcurveto
          -282 vlineto
          -30 10 -15 25 16 18 6 9 9 vhcurveto
          -9 22 -1 30 31 vvcurveto
          endchar
        </CharString>
        <CharString name="n.smcp">
          -27 callsubr
          hstemhm
          92 68 288 22 callgsubr
          hintmask 10111000
          511 545 rmoveto
          -26 hlineto
          -31 -6 -14 -31 hvcurveto
          -241 vlineto
          -40 4 -88 4 -45 vhcurveto
          -5 -1 -19 34 -19 36 -23 36 rlinecurve
          hintmask 11011000
          -216 351 rlineto
          2 -11 -20 1 -9 hhcurveto
          -8 -22 -1 -2 -12 hvcurveto
          -542 vlineto
          -2 12 14 -1 8 hhcurveto
          10 11 16 callgsubr
          282 vlineto
          39 -2 83 -3 48 vhcurveto
          4 hlineto
          19 -35 20 -32 22 -36 215 -349 rcurveline
          -2 11 20 -1 9 hhcurveto
          9 20 1 2 12 hvcurveto
          540 vlineto
          endchar
        </CharString>
        <CharString name="nacute">
          -7 callgsubr
          63 -45 callsubr
          90 68 57 194 -16 22 callgsubr
          hintmask 10010100
          461 344 rmoveto
          -52 callgsubr
          hintmask 01010100
          20 -32 callsubr
          -26 -68 callsubr
          -487 vlineto
          -2 9 -65 callsubr
          357 vlineto
          46 39 67 34 53 hhcurveto
          60 16 -34 -82 hvcurveto
          -282 vlineto
          -30 10 -15 25 16 18 6 9 9 vhcurveto
          -9 22 -1 30 31 vvcurveto
          hintmask 00101000
          -246 473 -102 callgsubr
        </CharString>
        <CharString name="nacute.smcp">
          -27 callsubr
          63 -45 callsubr
          92 68 84 194 10 -93 callsubr
          hintmask 00010100
          -272 77 -102 callgsubr
        </CharString>
        <CharString name="nbspace">
          -284 endchar
        </CharString>
        <CharString name="ncaron">
          -7 callgsubr
          74 -11 callsubr
          90 68 -11 268 -22 22 callgsubr
          hintmask 10010100
          461 344 rmoveto
          -52 callgsubr
          hintmask 01010100
          20 -32 callsubr
          -26 -68 callsubr
          -487 vlineto
          -2 9 -65 callsubr
          357 vlineto
          46 39 67 34 53 hhcurveto
          60 16 -34 -82 hvcurveto
          -282 vlineto
          -30 10 -15 25 16 18 6 9 9 vhcurveto
          -9 22 -1 30 31 vvcurveto
          hintmask 00101000
          -277 618 -103 callsubr
        </CharString>
        <CharString name="ncaron.smcp">
          -27 callsubr
          74 -11 callsubr
          92 68 16 268 4 -93 callsubr
          hintmask 00010100
          -303 222 -103 callsubr
        </CharString>
        <CharString name="nine">
          -12 58 171 62 324 57 hstem
          53 74 268 73 vstem
          258 660 rmoveto
          -125 -80 -98 -129 -145 74 -71 109 59 60 28 41 40 hvcurveto
          -132 -3 -49 -108 -124 hhcurveto
          -45 -33 12 11 -24 hvcurveto
          -16 -10 -11 -23 -2 -18 rrcurveto
          -19 31 51 -11 51 hhcurveto
          165 82 131 196 211 -56 56 -18 21 hvcurveto
          20 -18 -41 37 -77 hhcurveto
          -5 -381 rmoveto
          -69 -57 37 122 101 47 64 83 39 29 -18 -25 21 hvcurveto
          39 -51 10 -93 -45 vvcurveto
          -18 vlineto
          -45 -37 -58 -29 -47 hhcurveto
          endchar
        </CharString>
        <CharString name="nine.smcp">
          -22 -12 57 148 57 249 55 hstem
          59 72 232 72 vstem
          244 554 rmoveto
          -111 -74 -79 -107 -115 66 -60 99 56 49 23 31 34 hvcurveto
          -114 -2 -35 -88 -117 hhcurveto
          -40 -30 8 8 -22 hvcurveto
          -13 -11 -10 -17 -3 -19 rrcurveto
          -17 27 47 -9 46 hhcurveto
          149 75 108 165 91 -12 96 -53 56 hvcurveto
          31 -29 -40 19 -57 hhcurveto
          -4 -304 rmoveto
          -60 -49 30 93 75 41 51 72 34 26 -14 -18 17 hvcurveto
          35 -42 7 -71 -40 vvcurveto
          -8 vlineto
          -32 -35 -49 -24 -39 hhcurveto
          endchar
        </CharString>
        <CharString name="ntilde">
          -7 callgsubr
          84 64 hstemhm
          90 68 -50 338 -53 22 callgsubr
          hintmask 10010100
          461 344 rmoveto
          -52 callgsubr
          hintmask 01010100
          20 -32 callsubr
          -26 -68 callsubr
          -487 vlineto
          -2 9 -65 callsubr
          357 vlineto
          46 39 67 34 53 hhcurveto
          60 16 -34 -82 hvcurveto
          -282 vlineto
          -30 10 -15 25 16 18 6 9 9 vhcurveto
          -9 22 -1 30 31 vvcurveto
          hintmask 00000000
          -166 479 -73 callgsubr
          hintmask 00101000
          -104 callsubr
        </CharString>
        <CharString name="ntilde.smcp">
          -27 callsubr
          84 64 hstemhm
          92 68 -23 338 -27 -93 callsubr
          hintmask 00000000
          -192 83 -73 callgsubr
          hintmask 00010100
          -104 callsubr
        </CharString>
        <CharString name="numbersign">
          93 170 61 183 61 hstem
          27 546 vstem
          402 475 rmoveto
          -130 6 callgsubr
          -35 -156 rlineto
          -132 hlineto
          -6 -16 0 -29 6 -16 rrcurveto
          118 hlineto
          -41 -183 rlineto
          -121 hlineto
          -6 -16 0 -30 6 -15 rrcurveto
          108 -14 callsubr
          130 -14 callsubr
          125 hlineto
          6 15 0 30 -6 16 rrcurveto
          -112 hlineto
          41 183 rlineto
          115 hlineto
          6 16 0 29 -6 16 rrcurveto
          -101 6 callgsubr
          -179 -217 rmoveto
          130 hlineto
          -41 -183 rlineto
          -130 hlineto
          endchar
        </CharString>
        <CharString name="o">
          -30 callsubr
          hstem
          53 71 271 71 vstem
          -100 callgsubr
          endchar
        </CharString>
        <CharString name="o.smcp">
          -31 callsubr
          hstem
          46 74 338 74 vstem
          -102 callsubr
          endchar
        </CharString>
        <CharString name="oacute">
          -30 callsubr
          34 -45 callsubr
          53 71 73 194 4 71 hintmask 11010100
          -100 callgsubr
          hintmask 00101000
          73 320 -102 callgsubr
        </CharString>
        <CharString name="oacute.smcp">
          -31 callsubr
          34 -45 callsubr
          46 74 107 194 37 74 hintmask 11010100
          -102 callsubr
          hintmask 00101000
          181 346 -102 callgsubr
        </CharString>
        <CharString name="ocircumflex">
          -30 callsubr
          36 -4 callsubr
          53 71 -1 269 3 71 hintmask 11010100
          -100 callgsubr
          hintmask 00101000
          230 298 -99 callgsubr
        </CharString>
        <CharString name="ocircumflex.smcp">
          -31 callsubr
          36 -4 callsubr
          46 74 33 269 36 74 hintmask 11010100
          -102 callsubr
          hintmask 00101000
          338 324 -99 callgsubr
        </CharString>
        <CharString name="odieresis">
          -30 callsubr
          70 65 hstemhm
          53 71 3 10 callgsubr
          11 71 hintmask 11010010
          -100 callgsubr
          hintmask 00101100
          178 360 -107 callgsubr
        </CharString>
        <CharString name="odieresis.smcp">
          -31 callsubr
          70 65 hstemhm
          46 74 37 10 callgsubr
          44 74 hintmask 11010010
          -102 callsubr
          hintmask 00101100
          286 386 -107 callgsubr
        </CharString>
        <CharString name="oe">
          344 -12 54 -54 -48 callgsubr
          hstemhm
          53 71 271 76 246 71 hintmask 00000000
          hintmask 10111110
          784 224 rmoveto
          3 24 1 16 24 vvcurveto
          118 -64 96 -127 -79 -56 -42 -67 -30 vhcurveto
          65 -28 -53 44 -92 hhcurveto
          -56 -45 -18 -35 -35 hvcurveto
          -52 -52 -18 -73 -79 vvcurveto
          -79 18 -73 52 -52 vhcurveto
          -35 35 45 -18 56 hhcurveto
          91 52 43 61 28 hvcurveto
          hintmask 01111110
          -62 26 51 -42 86 hhcurveto
          68 67 24 32 46 hvcurveto
          -2 15 -11 22 -12 11 rrcurveto
          -25 -45 -48 -18 -54 hhcurveto
          -94 -34 71 104 -3 hvcurveto
          hintmask 10111110
          -347 21 rmoveto
          99 33 105 103 102 33 -105 -99 -99 -33 -104 -102 -103 -33 104 99 vhcurveto
          473 204 rmoveto
          87 33 -72 -87 hvcurveto
          -12 -246 vlineto
          104 5 44 67 77 hhcurveto
          endchar
        </CharString>
        <CharString name="oe.smcp">
          278 -51 callsubr
          hstem
          46 75 254 68 vstem
          735 60 rmoveto
          -238 hlineto
          -24 -17 0 -1 -14 hvcurveto
          13 1 22 13 vvcurveto
          139 vlineto
          -1 19 20 1 14 hhcurveto
          177 hlineto
          3 10 0 12 -48 callsubr
          13 -3 9 vhcurveto
          -177 hlineto
          -14 -20 -1 -19 hhcurveto
          128 vlineto
          13 -1 25 13 vvcurveto
          -1 19 20 1 15 hhcurveto
          221 18 callgsubr
          1 13 7 vvcurveto
          8 0 10 20 callgsubr
          -327 hlineto
          5 -34 -31 7 -37 hhcurveto
          -69 -44 -19 -28 -36 hvcurveto
          -69 -55 -27 -93 -87 vvcurveto
          -89 27 -93 69 -55 -33 callsubr
          69 hhcurveto
          38 29 7 5 32 hvcurveto
          299 hlineto
          24 16 -54 callsubr
          6 vvcurveto
          -444 -15 rmoveto
          -138 -32 125 101 100 31 126 139 26 31 -6 -6 27 hvcurveto
          -428 vlineto
          -7 -26 -30 -5 -28 hhcurveto
          endchar
        </CharString>
        <CharString name="ograve">
          -30 callsubr
          34 -45 callsubr
          53 71 11 194 66 71 hintmask 11010100
          -100 callgsubr
          hintmask 00101000
          70 473 -91 callsubr
        </CharString>
        <CharString name="ograve.smcp">
          -31 callsubr
          34 -45 callsubr
          46 74 45 194 99 74 hintmask 11010100
          -102 callsubr
          hintmask 00101000
          178 499 -91 callsubr
        </CharString>
        <CharString name="one">
          0 59 589 -20 hstem
          258 68 vstem
          79 463 rmoveto
          5 -18 9 -14 16 -11 55 25 61 45 37 49 rrcurveto
          -1 -40 -3 -62 -24 vvcurveto
          -292 vlineto
          -23 1 -18 -22 vvcurveto
          -14 -27 1 -12 hhcurveto
          -98 -24 callsubr
          -10 -10 vvcurveto
          -9 1 -9 2 -11 vhcurveto
          348 hlineto
          2 11 1 9 9 vvcurveto
          10 -1 10 20 callgsubr
          -78 hlineto
          -12 -28 -1 -13 hhcurveto
          22 1 18 23 vvcurveto
          527 vlineto
          3 -11 -11 1 -10 hhcurveto
          -10 -13 -1 -3 -10 hvcurveto
          -21 -52 -65 -75 -96 -58 rrcurveto
          endchar
        </CharString>
        <CharString name="one.smcp">
          -22 0 57 485 -20 hstem
          229 68 vstem
          72 392 rmoveto
          3 -18 9 -16 16 -8 50 20 49 30 32 39 rrcurveto
          -1 -18 -1 -19 -16 vvcurveto
          -330 vlineto
          -13 -24 1 -11 hhcurveto
          -88 -17 callsubr
          -11 -9 -26 callsubr
          -11 vhcurveto
          322 hlineto
          1 10 1 10 8 vvcurveto
          9 -1 11 -1 9 vhcurveto
          -69 hlineto
          -11 -27 -1 -11 hhcurveto
          486 vlineto
          3 -12 -10 0 -10 hhcurveto
          -10 -13 0 -3 -9 hvcurveto
          -20 -46 -54 -56 -87 -48 rrcurveto
          endchar
        </CharString>
        <CharString name="onehalf">
          369 -3 56 -53 -20 295 52 33 54 hstemhm
          167 59 9 445 65 65 hintmask 01000100
          235 hmoveto
          -59 callgsubr
          hintmask 00101000
          -568 -131 -89 callgsubr
          hintmask 10010010
          778 -499 -74 callsubr
        </CharString>
        <CharString name="onequarter">
          369 0 -20 103 54 138 52 hstemhm
          167 59 25 445 3 59 hintmask 00110000
          43 552 -89 callgsubr
          hintmask 10001000
          208 -552 rmoveto
          -59 callgsubr
          hintmask 01000100
          72 -683 -90 callgsubr
        </CharString>
        <CharString name="onesuperior">
          -84 355 52 hstem
          201 59 vstem
          77 632 -89 callgsubr
          endchar
        </CharString>
        <CharString name="ordfeminine">
          -102 307 50 136 46 102 54 -36 -20 hstemhm
          40 63 169 57 hintmask 00000000
          hintmask 11011100
          351 340 rmoveto
          -20 19 -2 25 32 vvcurveto
          152 vlineto
          hintmask 11101100
          82 -37 45 -85 -56 -59 -19 -17 -39 vhcurveto
          -20 12 -20 10 -8 vhcurveto
          19 43 43 11 45 hhcurveto
          41 25 -23 -53 hvcurveto
          -31 vlineto
          3 -28 -31 2 -27 hhcurveto
          -88 -58 -37 -85 -53 36 -57 78 50 42 26 27 30 hvcurveto
          6 -23 14 -17 25 -10 rrcurveto
          hintmask 11011100
          14 5 13 15 3 10 rrcurveto
          -190 17 rmoveto
          -37 -21 30 35 44 32 27 50 29 30 -3 -3 28 hvcurveto
          -72 vlineto
          -38 -33 -45 -20 -33 hhcurveto
          endchar
        </CharString>
        <CharString name="ordmasculine">
          -120 307 51 287 50 hstem
          32 64 192 64 vstem
          352 501 rmoveto
          59 -16 55 -38 41 vhcurveto
          25 -27 -37 14 -43 hhcurveto
          -41 -37 -14 -25 -27 hvcurveto
          -38 -41 -16 -55 -59 vvcurveto
          -61 16 -55 38 -40 vhcurveto
          -24 27 37 -14 41 hhcurveto
          43 37 14 24 27 hvcurveto
          38 40 16 55 61 vvcurveto
          -256 hmoveto
          72 24 72 72 72 24 -72 -72 -73 -24 -70 -72 -72 -24 70 73 vhcurveto
          endchar
        </CharString>
        <CharString name="oslash">
          15 -12 53 409 52 42 -20 hstem
          53 68 277 68 vstem
          466 245 rmoveto
          78 -18 72 -51 52 vhcurveto
          40 70 -8 13 -24 13 -16 1 rlinecurve
          -37 -63 rlineto
          14 -27 -30 7 -36 hhcurveto
          -56 -45 -18 -35 -35 hvcurveto
          -52 -52 -18 -73 -79 vvcurveto
          -78 17 -71 49 -52 vhcurveto
          -40 -70 8 -13 24 -13 16 -1 rlinecurve
          36 63 rlineto
          -14 28 31 -8 37 hhcurveto
          57 45 18 35 35 hvcurveto
          52 52 18 73 79 vvcurveto
          -68 hmoveto
          -99 -35 -105 -103 -28 -22 7 12 -19 vhcurveto
          174 329 rlineto
          23 -39 10 -54 -51 vvcurveto
          -277 hmoveto
          99 34 106 105 25 22 -7 -11 18 vhcurveto
          -173 -328 rlineto
          -22 39 -9 51 51 vvcurveto
          endchar
        </CharString>
        <CharString name="oslash.smcp">
          75 -12 55 456 55 hstem
          46 72 342 72 vstem
          46 271 rmoveto
          -73 19 -76 45 -55 vhcurveto
          -46 -65 7 -14 23 -16 17 -4 rlinecurve
          42 59 rlineto
          -24 34 42 -15 60 hhcurveto
          67 43 19 28 36 hvcurveto
          68 54 29 94 88 vvcurveto
          71 -20 77 -44 55 vhcurveto
          45 65 -6 14 -23 16 -17 3 rlinecurve
          -42 -57 rlineto
          24 -34 -41 15 -61 hhcurveto
          -66 -44 -18 -28 -36 hvcurveto
          -42 callgsubr
          72 hmoveto
          101 34 127 137 43 33 -13 -21 25 vhcurveto
          -240 -342 rlineto
          -24 44 -8 55 49 vvcurveto
          342 hmoveto
          -101 -34 -127 -137 -44 -33 13 20 -25 vhcurveto
          241 342 rlineto
          24 -44 8 -55 -48 vvcurveto
          endchar
        </CharString>
        <CharString name="otilde">
          -30 callsubr
          55 64 hstemhm
          53 71 -34 338 -33 71 hintmask 11010100
          -100 callgsubr
          hintmask 00000000
          153 326 -73 callgsubr
          hintmask 00101000
          -104 callsubr
        </CharString>
        <CharString name="otilde.smcp">
          -31 callsubr
          55 64 hstemhm
          46 74 0 338 0 74 hintmask 11010100
          -102 callsubr
          hintmask 00000000
          261 352 -73 callgsubr
          hintmask 00101000
          -104 callsubr
        </CharString>
        <CharString name="p">
          21 -10 callsubr
          390 60 -9 -20 hstemhm
          90 67 247 22 callgsubr
          hintmask 01110110
          472 251 rmoveto
          149 -58 102 -108 -64 -51 -31 -39 -34 vhcurveto
          hintmask 01101110
          14 vlineto
          30 -4 17 -32 vhcurveto
          -25 -68 callsubr
          -696 -1 callsubr
          hintmask 10110110
          25 -13 callgsubr
          hintmask 01110110
          85 100 76 183 hvcurveto
          -179 191 rmoveto
          57 54 -54 -137 -142 -62 -57 -61 -47 -43 23 24 -34 hvcurveto
          260 21 callsubr
        </CharString>
        <CharString name="p.smcp">
          -11 204 57 227 57 19 callgsubr
          230 73 vstem
          465 374 rmoveto
          116 -84 55 -114 -58 -48 -2 -1 -64 vhcurveto
          -5 -5 rlineto
          -537 vlineto
          -83 callsubr
          204 105 vlineto
          117 81 56 114 hvcurveto
          -303 115 rmoveto
          -1 33 44 0 29 hhcurveto
          99 25 -60 -54 -51 -25 -62 -99 -23 -47 0 -1 -36 hvcurveto
          endchar
        </CharString>
        <CharString name="paragraph">
          114 -153 58 715 63 hstem
          294 71 68 71 vstem
          294 58 rmoveto
          -65 -6 -33 -14 -20 vhcurveto
          -26 -18 -27 -9 -35 hhcurveto
          -30 -39 11 11 -24 hvcurveto
          -11 -13 -10 -25 -19 vvcurveto
          -11 26 52 -12 42 hhcurveto
          47 47 14 34 30 hvcurveto
          36 40 5 57 74 vvcurveto
          612 vlineto
          -6 6 rlineto
          2 -35 -17 1 -36 hhcurveto
          -127 -92 -71 -141 -140 90 -74 129 hvcurveto
          23 hlineto
          139 -395 rmoveto
          -2 9 12 -1 13 hhcurveto
          14 -70 callgsubr
          755 vlineto
          -1 9 11 0 11 hhcurveto
          49 hlineto
          5 15 0 33 -5 15 rrcurveto
          -145 -68 callsubr
          endchar
        </CharString>
        <CharString name="parenleft">
          -201 -168 988 hstem
          65 77 vstem
          142 326 rmoveto
          162 44 163 104 129 vhcurveto
          -10 23 -16 12 -17 5 rrcurveto
          -116 -116 -66 -204 -174 vvcurveto
          -174 66 -204 116 -116 vhcurveto
          17 5 16 12 10 23 rrcurveto
          -104 129 -44 163 162 vvcurveto
          endchar
        </CharString>
        <CharString name="parenright">
          -201 -168 988 hstem
          161 77 vstem
          161 326 rmoveto
          -162 -44 -163 -104 -129 vhcurveto
          10 -23 15 -12 18 -5 rrcurveto
          116 116 66 204 174 vvcurveto
          174 -66 204 -116 116 vhcurveto
          -18 -5 -15 -12 -10 -23 rrcurveto
          104 -129 44 -163 -162 vvcurveto
          endchar
        </CharString>
        <CharString name="percent">
          348 -12 50 -38 -20 321 50 -19 50 263 50 hstemhm
          50 64 168 64 159 64 169 64 hintmask 0000000000000000
          hintmask 0110111110000000
          802 186 rmoveto
          hintmask 1001111110000000
          60 -9 58 -38 38 vhcurveto
          28 -26 5 callgsubr
          -38 -9 -58 -60 vvcurveto
          -62 10 -57 37 -39 25 callgsubr
          33 13 27 27 hvcurveto
          hintmask 0110111110000000
          37 39 10 57 62 vvcurveto
          hintmask 1001111110000000
          -233 hmoveto
          74 18 72 67 66 18 -72 -74 -75 -18 -73 -66 -67 -18 73 75 vhcurveto
          -223 312 rmoveto
          60 -9 58 -38 39 vhcurveto
          28 -25 5 callgsubr
          -39 -9 -58 -60 vvcurveto
          hintmask 0110111110000000
          -62 10 -57 37 -38 25 callgsubr
          32 13 27 27 hvcurveto
          hintmask 1001111110000000
          37 38 10 57 62 vvcurveto
          hintmask 0110111110000000
          -232 hmoveto
          74 17 73 68 66 17 -73 -74 -75 -17 -72 -66 -68 -17 72 75 vhcurveto
          90 -498 rmoveto
          14 -7 40 0 14 7 376 683 rcurveline
          -15 7 -39 0 -14 -7 rrcurveto
          endchar
        </CharString>
        <CharString name="period">
          -257 3 85 hstem
          66 107 vstem
          66 46 rmoveto
          -84 callgsubr
          endchar
        </CharString>
        <CharString name="periodcentered">
          -216 239 85 hstem
          90 101 vstem
          90 282 rmoveto
          -12 3 -23 5 -8 vhcurveto
          -5 8 22 -5 17 hhcurveto
          15 24 5 5 -53 callgsubr
          23 -65 callgsubr
          23 -4 7 -12 callgsubr
          -23 5 -15 hhcurveto
          -17 -22 -5 -5 -8 -22 callsubr
          endchar
        </CharString>
        <CharString name="plus">
          257 65 hstem
          231 68 vstem
          231 357 rmoveto
          -9 1 -17 -10 vvcurveto
          -11 -16 1 -9 hhcurveto
          -137 hlineto
          25 callsubr
          -11 -38 callgsubr
          137 hlineto
          9 16 1 11 hhcurveto
          -10 -1 -16 -9 vvcurveto
          -149 vlineto
          -2 9 11 -41 callgsubr
          13 13 1 2 8 hvcurveto
          149 vlineto
          9 -1 16 10 vvcurveto
          10 17 -1 9 hhcurveto
          137 -29 callgsubr
          11 -47 callgsubr
          9 -2 9 vhcurveto
          -137 hlineto
          -9 -17 -1 -10 hhcurveto
          10 1 17 9 vvcurveto
          149 9 callgsubr
          -13 -12 callsubr
          -14 -11 -64 callsubr
          endchar
        </CharString>
        <CharString name="plusminus">
          0 65 234 65 hstem
          230 70 vstem
          230 398 rmoveto
          -8 1 -17 -10 vvcurveto
          -10 -16 1 -9 hhcurveto
          -127 -24 callsubr
          -9 -14 vvcurveto
          -12 1 -11 -38 callgsubr
          127 hlineto
          9 16 1 10 hhcurveto
          -11 -1 -16 -9 vvcurveto
          -131 vlineto
          -2 10 11 -41 callgsubr
          13 13 -73 callsubr
          131 vlineto
          9 -1 16 11 vvcurveto
          10 16 -1 9 hhcurveto
          127 -29 callgsubr
          11 12 vvcurveto
          14 -1 9 20 callgsubr
          -127 hlineto
          -9 -16 -1 -10 hhcurveto
          10 1 17 8 vvcurveto
          131 vlineto
          2 -9 -13 -12 callsubr
          -14 -11 -1 -2 -10 hvcurveto
          231 -529 rmoveto
          2 11 -16 callgsubr
          13 -1 7 -2 12 vhcurveto
          -392 hlineto
          -2 -12 -1 -7 -13 -11 callgsubr
          -9 2 -11 vhcurveto
          endchar
        </CharString>
        <CharString name="q">
          19 -10 callsubr
          390 60 -5 -20 hstemhm
          52 69 246 66 hintmask 00000000
          hintmask 10101110
          367 -168 rmoveto
          -30 4 -17 32 vhcurveto
          24 hlineto
          6 6 rlineto
          561 vlineto
          -5 callgsubr
          hintmask 01110110
          -25 -10 -16 -17 -9 -20 rrcurveto
          29 -34 -44 23 -64 hhcurveto
          -85 -100 -77 -181 -152 58 -100 112 62 51 32 32 32 hvcurveto
          -136 -4 rmoveto
          -58 -52 55 137 141 62 57 63 44 44 -21 -28 33 hvcurveto
          -16 vlineto
          -250 vlineto
          -43 -33 -51 -32 -52 hhcurveto
          endchar
        </CharString>
        <CharString name="q.smcp">
          75 -94 52 30 57 452 57 hstemhm
          46 74 338 74 hintmask 00000000
          hintmask 01111000
          46 271 rmoveto
          -88 29 -94 68 -54 -33 callsubr
          66 hhcurveto
          14 12 2 3 11 hvcurveto
          hintmask 11111000
          100 -68 rlineto
          -13 17 17 -6 17 hhcurveto
          26 29 17 35 hvcurveto
          -29 1 -25 9 -62 41 -14 8 rcurveline
          25 12 20 16 15 17 rrcurveto
          49 55 21 78 76 vvcurveto
          87 -29 96 -68 54 vhcurveto
          28 -36 -43 18 -67 hhcurveto
          -66 -44 -18 -28 -36 hvcurveto
          hintmask 01111000
          -42 callgsubr
          74 hmoveto
          100 33 126 136 136 33 -126 -100 -100 -33 -126 -136 -136 -33 126 100 vhcurveto
          endchar
        </CharString>
        <CharString name="question">
          -125 3 87 541 63 hstemhm
          97 90 -75 59 124 74 hintmask 00000000
          hintmask 11101000
          17 648 rmoveto
          2 -21 13 -23 11 -11 rrcurveto
          21 43 49 17 48 hhcurveto
          68 44 -42 -64 -67 -52 -48 -82 -44 hvcurveto
          hintmask 11011000
          -45 -24 -6 -8 4 -149 rlineto
          -3 8 11 -1 10 hhcurveto
          9 8 1 3 8 hvcurveto
          7 118 64 37 rlineto
          72 42 58 61 88 vvcurveto
          101 -72 62 -99 -64 -64 -19 -27 -53 vhcurveto
          125 -558 -60 callsubr
        </CharString>
        <CharString name="questiondown">
          -125 -204 63 541 87 hstemhm
          10 75 107 90 -75 59 hintmask 00000000
          hintmask 11110000
          362 -158 rmoveto
          -2 20 -13 24 -11 11 rrcurveto
          -21 -43 -49 -17 -48 hhcurveto
          -68 -43 42 63 68 52 48 81 43 hvcurveto
          hintmask 11101000
          45 24 6 9 -4 149 rlineto
          3 -8 -11 1 -10 hhcurveto
          -8 -9 -1 -3 -8 hvcurveto
          -7 -118 -64 -37 rlineto
          -72 -42 -58 -62 -87 vvcurveto
          -101 72 -62 99 64 64 19 27 53 vhcurveto
          -125 558 rmoveto
          17 18 -25 callsubr
          -18 4 -17 hhcurveto
          -15 -29 callsubr
          15 hhcurveto
          endchar
        </CharString>
        <CharString name="quotedbl">
          -156 20 callsubr
          50 93 62 93 hintmask 00000000
          hintmask 01010000
          205 694 rmoveto
          hintmask 10010000
          -72 callsubr
          hintmask 00000000
          -155 hmoveto
          hintmask 01100000
          -72 callsubr
          endchar
        </CharString>
        <CharString name="quotedblbase">
          -135 -9 94 hstemhm
          55 109 58 109 hintmask 11000000
          -63 callgsubr
          hintmask 10100000
          167 hmoveto
          -61 callgsubr
          endchar
        </CharString>
        <CharString name="quotedblleft">
          -136 527 95 hstemhm
          45 109 58 109 hintmask 11000000
          55 527 rmoveto
          -78 callsubr
          hintmask 10100000
          167 hmoveto
          -78 callsubr
          endchar
        </CharString>
        <CharString name="quotedblright">
          -136 552 -20 105 94 hstemhm
          47 109 58 109 hintmask 11100000
          -64 callgsubr
          hintmask 11010000
          167 hmoveto
          -61 callsubr
          endchar
        </CharString>
        <CharString name="quoteleft">
          -303 527 95 hstem
          45 109 vstem
          55 527 rmoveto
          -78 callsubr
          endchar
        </CharString>
        <CharString name="quoteright">
          -303 552 -20 105 94 hstem
          47 109 vstem
          -64 callgsubr
          endchar
        </CharString>
        <CharString name="quotesinglbase">
          -302 -9 94 hstem
          55 109 vstem
          -63 callgsubr
          endchar
        </CharString>
        <CharString name="quotesingle">
          -314 20 callsubr
          45 93 hintmask 00000000
          hintmask 01100000
          45 694 rmoveto
          hintmask 10100000
          -72 callsubr
          endchar
        </CharString>
        <CharString name="r">
          -155 429 68 hstem
          100 67 vstem
          -92 callgsubr
          endchar
        </CharString>
        <CharString name="r.smcp">
          -2 callgsubr
          19 callgsubr
          238 73 vstem
          -98 callgsubr
          endchar
        </CharString>
        <CharString name="racute">
          -155 429 68 39 -45 callsubr
          100 67 -32 194 hintmask 10100000
          -92 callgsubr
          hintmask 01010000
          71 106 -102 callgsubr
        </CharString>
        <CharString name="racute.smcp">
          -2 callgsubr
          43 -45 callsubr
          92 70 42 194 2 73 hintmask 11010100
          -98 callgsubr
          hintmask 00101000
          42 334 -102 callgsubr
        </CharString>
        <CharString name="rcaron">
          -155 429 68 50 -11 callsubr
          67 268 -235 67 hintmask 10010000
          -92 callgsubr
          hintmask 01100000
          40 251 -103 callsubr
        </CharString>
        <CharString name="rcaron.smcp">
          -2 callgsubr
          54 -11 callsubr
          92 70 -26 268 -4 73 hintmask 11010100
          -98 callgsubr
          hintmask 00101000
          11 479 -103 callsubr
        </CharString>
        <CharString name="rcommaaccent">
          -155 -54 callgsubr
          484 68 hstemhm
          100 67 -55 73 hintmask 00011000
          -92 callgsubr
          hintmask 11100100
          114 -517 -94 callgsubr
        </CharString>
        <CharString name="rcommaaccent.smcp">
          27 -54 callgsubr
          282 58 203 57 hstemhm
          92 70 86 73 79 73 hintmask 00011101
          -98 callgsubr
          hintmask 11100010
          152 -341 -94 callgsubr
        </CharString>
        <CharString name="registered">
          83 235 49 176 41 77 39 77 49 hstem
          39 55 106 51 89 51 102 55 vstem
          39 488 rmoveto
          -142 112 -111 142 142 113 111 142 142 -113 113 -142 -142 -112 -113 -142 vhcurveto
          55 hmoveto
          113 86 93 113 114 86 -93 -113 -113 -86 -91 -114 -113 -86 91 113 vhcurveto
          297 53 rmoveto
          48 -32 28 -60 -28 -38 -1 -1 -30 vhcurveto
          -3 -3 rlineto
          -247 vlineto
          17 -5 17 0 17 5 rrcurveto
          95 32 vlineto
          16 10 -9 -12 7 hvcurveto
          26 -49 rlineto
          -18 9 9 -12 16 hhcurveto
          16 12 9 10 6 hvcurveto
          -8 6 -7 10 -6 11 -16 29 rcurveline
          -9 16 -7 17 -17 8 rrcurveto
          25 8 26 21 36 vvcurveto
          -140 37 rmoveto
          47 hlineto
          29 13 -19 -20 -21 -14 -17 -32 hvcurveto
          -43 hlineto
          endchar
        </CharString>
        <CharString name="ring">
          -106 536 46 115 46 hstem
          92 56 102 56 vstem
          92 639 -85 callgsubr
        </CharString>
        <CharString name="ring.cap">
          -106 672 47 114 46 hstem
          92 56 102 56 vstem
          92 776 -52 callsubr
        </CharString>
        <CharString name="s">
          14 callgsubr
          hstem
          58 71 189 70 vstem
          -90 callsubr
          endchar
        </CharString>
        <CharString name="s.smcp">
          -18 8 callgsubr
          hstem
          49 73 254 73 vstem
          34 47 rmoveto
          -101 callgsubr
          endchar
        </CharString>
        <CharString name="sacute">
          14 callgsubr
          34 -45 callsubr
          58 71 27 194 -32 70 hintmask 11010100
          -90 callsubr
          hintmask 00101000
          118 527 -102 callgsubr
        </CharString>
        <CharString name="sacute.smcp">
          -18 8 callgsubr
          34 -45 callsubr
          49 73 54 194 6 73 hintmask 11010100
          34 47 rmoveto
          -101 callgsubr
          hintmask 00101000
          142 570 -102 callgsubr
        </CharString>
        <CharString name="scaron">
          14 callgsubr
          45 -11 callsubr
          58 71 -41 268 -38 70 hintmask 11010100
          -90 callsubr
          hintmask 00101000
          87 672 -103 callsubr
        </CharString>
        <CharString name="scaron.smcp">
          -18 8 callgsubr
          45 -11 callsubr
          49 73 -14 268 0 73 hintmask 11010100
          34 47 rmoveto
          -101 callgsubr
          hintmask 00101000
          111 715 -103 callsubr
        </CharString>
        <CharString name="section">
          -28 -102 56 38 -20 667 56 -34 -20 hstemhm
          35 72 -32 71 185 70 -31 71 hintmask 00000000
          hintmask 11100101
          441 300 rmoveto
          88 -78 41 -80 32 vhcurveto
          -59 23 rlineto
          -49 19 -29 23 37 vvcurveto
          47 39 29 55 49 49 -18 -14 31 vhcurveto
          hintmask 11010101
          14 13 7 22 19 vvcurveto
          hintmask 11100101
          19 -39 -60 15 -49 hhcurveto
          -90 -77 -51 -85 -55 30 -37 41 -26 hvcurveto
          hintmask 11101010
          -61 -29 -50 -53 -66 vvcurveto
          -88 78 -41 81 -31 vhcurveto
          59 -23 rlineto
          48 -20 30 -23 -37 vvcurveto
          -46 -39 -30 -61 -59 -45 21 17 -31 vhcurveto
          -13 -9 -14 -24 -19 vvcurveto
          -25 38 66 -17 54 hhcurveto
          98 76 51 85 54 -31 37 -40 26 hvcurveto
          hintmask 11100101
          60 30 51 52 67 vvcurveto
          -238 113 rmoveto
          57 -22 rlineto
          54 -21 56 -26 -52 vvcurveto
          -53 -45 -37 -51 -23 vhcurveto
          -1 0 1 0 hvcurveto
          -57 22 rlineto
          hintmask 11101001
          -54 21 -55 26 52 vvcurveto
          52 43 38 51 23 vhcurveto
          hintmask 11100101
          -1 1 0 1 vhcurveto
          endchar
        </CharString>
        <CharString name="semicolon">
          -249 -9 97 258 85 hstemhm
          70 107 -62 71 hintmask 10010000
          176 -63 callsubr
          hintmask 01100000
          -106 301 rmoveto
          -84 callgsubr
          endchar
        </CharString>
        <CharString name="seven">
          586 62 hstem
          167 72 vstem
          76 648 rmoveto
          -4 -13 -2 -12 -36 callsubr
          169 hlineto
          23 116 1 5 23 hvcurveto
          3 -3 -10 -12 -21 -27 -20 -31 rlinecurve
          -10 -15 -89 -134 -68 -146 -20 -187 rlinecurve
          -4 -37 rlineto
          -3 8 15 -1 13 hhcurveto
          14 13 1 3 10 hvcurveto
          3 29 22 213 69 130 101 152 rlinecurve
          30 45 rlineto
          9 14 4 9 11 vvcurveto
          13 -6 17 -8 15 vhcurveto
          endchar
        </CharString>
        <CharString name="seven.smcp">
          -22 480 62 hstemhm
          62 373 -283 70 -17 callgsubr
          68 542 rmoveto
          -4 -12 -2 -14 -31 callgsubr
          -7 vhcurveto
          152 hlineto
          22 104 2 4 21 hvcurveto
          3 -2 -7 -7 -12 -15 -6 -8 rlinecurve
          -12 -16 rlineto
          hintmask 10100000
          -102 -137 -61 -124 -14 -165 -1 -12 rcurveline
          -3 8 14 -1 13 hhcurveto
          13 12 1 3 10 hvcurveto
          1 15 11 160 61 110 80 114 rlinecurve
          47 67 rlineto
          9 13 4 9 10 vvcurveto
          11 -6 18 -8 15 vhcurveto
          endchar
        </CharString>
        <CharString name="six">
          -12 57 324 62 171 58 hstem
          62 73 268 74 vstem
          272 -12 rmoveto
          125 80 98 129 145 -74 71 -109 -60 -60 -28 -41 -39 hvcurveto
          131 2 50 109 124 hhcurveto
          45 33 -12 -11 24 hvcurveto
          16 10 11 23 2 18 rrcurveto
          19 -31 -51 11 -51 hhcurveto
          -165 -82 -131 -196 -211 56 -56 18 -21 hvcurveto
          -20 18 41 -37 77 hhcurveto
          5 381 rmoveto
          69 57 -37 -122 -101 -47 -64 -83 -39 -29 18 25 -21 hvcurveto
          -39 51 -10 93 45 vvcurveto
          17 vlineto
          46 37 58 29 47 hhcurveto
          endchar
        </CharString>
        <CharString name="six.smcp">
          -22 -12 55 249 57 148 57 hstem
          57 72 232 72 vstem
          248 -12 rmoveto
          111 74 79 107 115 -66 60 -98 -56 -51 -23 -31 -33 hvcurveto
          114 2 35 88 117 hhcurveto
          40 30 -8 -8 22 hvcurveto
          13 11 11 17 3 19 rrcurveto
          17 -28 -47 9 -46 hhcurveto
          -149 -75 -108 -165 -91 12 -96 53 -56 hvcurveto
          -31 29 40 -19 57 hhcurveto
          4 304 rmoveto
          60 49 -30 -93 -75 -40 -51 -73 -34 -25 14 18 -18 hvcurveto
          -35 42 -7 70 41 vvcurveto
          6 vlineto
          33 34 49 25 40 hhcurveto
          endchar
        </CharString>
        <CharString name="slash">
          -101 -105 862 hstem
          11 378 vstem
          11 -82 rmoveto
          -14 18 23 -9 20 hhcurveto
          317 839 -17 13 -25 9 -19 1 rlinecurve
          endchar
        </CharString>
        <CharString name="space">
          -284 endchar
        </CharString>
        <CharString name="sterling">
          19 0 62 214 56 267 61 hstemhm
          71 65 -54 72 -13 -1 callgsubr
          hintmask 11100100
          210 252 rmoveto
          8 -1 8 -1 8 vhcurveto
          61 59 -1 61 hhcurveto
          3 19 0 21 -3 17 rrcurveto
          hintmask 11101000
          -79 -58 -1 -56 hhcurveto
          -17 52 -25 48 54 vvcurveto
          73 53 41 67 41 59 -20 -39 46 vhcurveto
          20 6 16 26 1 19 rrcurveto
          30 -35 -65 39 -88 hhcurveto
          -131 -56 -93 -81 -56 26 -48 18 -51 hvcurveto
          hintmask 11100100
          1 -21 -21 0 -20 hhcurveto
          -4 -20 0 -19 4 -18 rrcurveto
          25 25 0 1 25 hvcurveto
          1 -8 1 -7 -7 vvcurveto
          -58 -28 -49 -23 -34 vhcurveto
          hintmask 11110000
          -19 -28 rlineto
          -9 -13 -2 -13 -11 vvcurveto
          -9 1 -9 10 -30 vhcurveto
          360 hlineto
          25 17 10 18 callsubr
          2 11 0 9 10 vvcurveto
          -225 hlineto
          -60 -27 -3 -1 -27 hvcurveto
          -3 3 rlineto
          26 36 48 79 76 vvcurveto
          endchar
        </CharString>
        <CharString name="sterling.smcp">
          -39 0 60 173 54 208 59 -57 -20 hstemhm
          66 63 -55 70 -18 22 callgsubr
          hintmask 11100010
          194 215 rmoveto
          6 -1 6 -1 7 vhcurveto
          52 52 -1 53 hhcurveto
          4 17 0 22 -4 15 rrcurveto
          hintmask 11100100
          -68 -53 -1 -50 hhcurveto
          -14 40 -20 40 40 vvcurveto
          57 45 32 54 40 51 -16 -29 40 vhcurveto
          hintmask 11010100
          19 6 17 23 18 vvcurveto
          hintmask 11100100
          26 -31 -59 31 -78 hhcurveto
          -117 -51 -79 -70 -43 20 -38 15 -38 hvcurveto
          hintmask 11100010
          -17 -17 1 -16 hhcurveto
          -4 -17 0 -21 4 -16 rrcurveto
          22 21 0 1 22 hvcurveto
          1 -6 1 -6 -5 vvcurveto
          -47 -25 -37 -19 -29 vhcurveto
          hintmask 11101000
          -16 -24 rlineto
          -8 -12 -2 -11 -11 1 callgsubr
          9 -31 vhcurveto
          311 hlineto
          26 16 14 callsubr
          -2 9 9 vvcurveto
          -186 hlineto
          -54 -25 -2 -1 -26 hvcurveto
          -3 2 rlineto
          24 32 41 63 61 vvcurveto
          endchar
        </CharString>
        <CharString name="t">
          -170 -4 57 385 52 hstem
          107 67 vstem
          -75 callsubr
          endchar
        </CharString>
        <CharString name="t.smcp">
          -82 483 59 hstem
          178 70 vstem
          -67 callgsubr
          endchar
        </CharString>
        <CharString name="tcaron">
          -170 -4 57 385 52 hstemhm
          107 67 vstemhm
          -75 callsubr
          -62 75 -50 callgsubr
        </CharString>
        <CharString name="tcaron.smcp">
          -82 483 59 57 -11 callsubr
          84 268 -174 70 hintmask 10010000
          -67 callgsubr
          hintmask 01100000
          -57 337 -103 callsubr
        </CharString>
        <CharString name="thorn">
          20 -10 callsubr
          386 60 hstemhm
          90 66 247 -1 callgsubr
          hintmask 01111100
          472 250 rmoveto
          147 -58 101 -109 -64 -51 -31 -39 -34 vhcurveto
          260 -32 callsubr
          -24 -68 callsubr
          -938 -1 callsubr
          hintmask 10111100
          24 -13 callgsubr
          hintmask 01111100
          85 101 75 183 hvcurveto
          -180 188 rmoveto
          58 53 -53 -135 -142 -62 -56 -61 -47 -43 22 24 -34 hvcurveto
          257 21 callsubr
        </CharString>
        <CharString name="thorn.smcp">
          -5 111 57 228 146 19 callgsubr
          230 73 vstem
          92 hmoveto
          -69 callsubr
          14 11 -79 callgsubr
          111 105 vlineto
          118 80 59 112 113 -83 58 -115 hvcurveto
          -35 -37 -1 -33 hhcurveto
          90 -39 callsubr
          -11 -53 callsubr
          7 callsubr
          176 -146 rmoveto
          100 24 -62 -52 -50 -24 -64 -100 -22 -49 0 -1 -35 hvcurveto
          229 vlineto
          endchar
        </CharString>
        <CharString name="three">
          -12 58 296 51 193 62 hstem
          390 74 vstem
          426 565 rmoveto
          12 13 4 11 11 vvcurveto
          12 -9 21 -8 15 vhcurveto
          -341 hlineto
          -4 -13 -2 -12 -36 callsubr
          156 hlineto
          44 60 2 5 23 hvcurveto
          3 -3 -18 -16 -37 -38 -13 -14 rlinecurve
          -147 -162 5 -17 13 -14 14 -7 rlinecurve
          13 21 32 7 24 hhcurveto
          82 47 -50 -85 -109 -70 -52 -83 -58 -47 21 31 -43 hvcurveto
          -15 -11 -14 -21 -4 -17 rrcurveto
          -35 43 66 -26 81 hhcurveto
          100 118 66 150 133 -90 56 -98 -5 -5 0 -1 -6 hvcurveto
          16 12 15 13 11 13 rrcurveto
          endchar
        </CharString>
        <CharString name="three.smcp">
          -22 -12 58 237 50 150 59 hstem
          348 73 vstem
          384 464 rmoveto
          11 11 4 11 10 vvcurveto
          12 -9 20 -7 14 vhcurveto
          -309 hlineto
          -4 -12 -2 -12 -11 1 callgsubr
          3 -9 vhcurveto
          139 hlineto
          37 54 2 4 21 hvcurveto
          3 -3 -16 -12 -24 -23 -12 -12 rlinecurve
          -135 -134 rlineto
          -1 0 -1 -1 hhcurveto
          5 -15 13 -15 13 -7 rrcurveto
          10 19 27 6 21 hhcurveto
          72 41 -45 -65 -82 -61 -45 -73 -51 -42 17 25 -38 hvcurveto
          -15 -11 -13 -21 -4 -16 rrcurveto
          -29 39 60 -23 73 hhcurveto
          93 105 62 123 102 -76 58 -76 -6 -6 0 -1 -7 hvcurveto
          13 11 14 12 15 15 rrcurveto
          endchar
        </CharString>
        <CharString name="threequarters">
          369 0 -20 103 54 133 52 167 43 101 52 hstemhm
          243 67 -64 445 15 59 hintmask 10000010
          246 hmoveto
          -59 callgsubr
          hintmask 00111100
          -312 -53 -76 callgsubr
          hintmask 01000001
          463 -559 -90 callgsubr
        </CharString>
        <CharString name="threesuperior">
          -84 348 52 167 43 101 52 hstem
          247 67 vstem
          314 708 -76 callgsubr
          endchar
        </CharString>
        <CharString name="tilde">
          -106 557 64 -11 64 hstemhm
          30 338 27 callgsubr
          217 571 -73 callgsubr
          hintmask 01100000
          -104 callsubr
        </CharString>
        <CharString name="tilde.cap">
          -106 741 63 -11 63 hstemhm
          32 334 27 callgsubr
          217 755 -77 callgsubr
          hintmask 01100000
          -80 callgsubr
        </CharString>
        <CharString name="two">
          0 63 539 58 hstem
          64 70 244 73 vstem
          466 63 rmoveto
          -215 hlineto
          -24 -49 -1 -4 -44 hvcurveto
          4 29 37 51 67 59 81 69 rcurveline
          66 56 62 54 107 vvcurveto
          102 -70 75 -114 -96 -68 -63 -67 -31 vhcurveto
          10 -18 23 -8 17 -2 rrcurveto
          59 29 51 41 60 hhcurveto
          66 50 -44 -76 -64 -32 -45 -59 -51 hvcurveto
          -90 -77 rlineto
          -67 -57 -66 -77 -65 vvcurveto
          -15 22 -21 12 -10 vhcurveto
          318 hlineto
          33 13 14 18 callsubr
          1 10 0 7 10 vvcurveto
          endchar
        </CharString>
        <CharString name="two.smcp">
          -22 0 62 433 59 hstem
          58 73 205 73 vstem
          423 62 rmoveto
          -187 hlineto
          -25 -42 -1 -4 -38 hvcurveto
          5 25 32 40 55 42 72 56 rcurveline
          57 45 57 51 83 vvcurveto
          85 -64 70 -103 -88 -62 -58 -58 -27 vhcurveto
          10 -16 22 -9 19 -2 rrcurveto
          44 26 42 40 53 hhcurveto
          57 42 -41 -56 -46 -28 -39 -50 -40 hvcurveto
          -82 -64 rlineto
          -63 -50 -55 -67 -49 vvcurveto
          -14 20 -21 12 -8 vhcurveto
          284 hlineto
          32 13 12 18 callsubr
          1 9 0 10 9 vvcurveto
          endchar
        </CharString>
        <CharString name="twosuperior">
          -84 353 56 307 54 hstem
          267 65 vstem
          343 409 -74 callsubr
        </CharString>
        <CharString name="u">
          -45 callgsubr
          hstemhm
          84 68 235 67 hintmask 00000000
          hintmask 10111000
          -87 callsubr
          hintmask 11011000
          -93 callgsubr
          endchar
        </CharString>
        <CharString name="u.smcp">
          -30 callgsubr
          hstemhm
          83 70 294 -1 callgsubr
          hintmask 11110000
          -95 callsubr
          endchar
        </CharString>
        <CharString name="uacute">
          -45 callgsubr
          60 -45 callsubr
          84 68 55 194 -14 67 hintmask 00000000
          hintmask 10101010
          -87 callsubr
          hintmask 11001010
          -93 callgsubr
          hintmask 00010100
          123 168 -102 callgsubr
        </CharString>
        <CharString name="uacute.smcp">
          -30 callgsubr
          66 -45 callsubr
          83 70 83 194 17 -1 callgsubr
          hintmask 11010100
          -95 callsubr
          hintmask 00101000
          -280 430 -102 callgsubr
        </CharString>
        <CharString name="ucircumflex">
          -45 callgsubr
          62 -4 callsubr
          84 68 -19 269 -15 67 hintmask 00000000
          hintmask 10101010
          -87 callsubr
          hintmask 11001010
          -93 callgsubr
          hintmask 00010100
          280 146 -99 callgsubr
        </CharString>
        <CharString name="ucircumflex.smcp">
          -30 callgsubr
          68 -4 callsubr
          83 70 9 269 16 -1 callgsubr
          hintmask 11010100
          -95 callsubr
          hintmask 00101000
          -123 408 -99 callgsubr
        </CharString>
        <CharString name="udieresis">
          -45 callgsubr
          96 65 hstemhm
          84 68 -15 10 callgsubr
          -7 67 hintmask 00000000
          hintmask 10101001
          -87 callsubr
          hintmask 11001001
          -93 callgsubr
          hintmask 00010110
          228 208 -107 callgsubr
        </CharString>
        <CharString name="udieresis.smcp">
          -30 callgsubr
          102 65 hstemhm
          83 70 13 10 callgsubr
          24 -1 callgsubr
          hintmask 11010010
          -95 callsubr
          hintmask 00101100
          -175 470 -107 callgsubr
        </CharString>
        <CharString name="ugrave">
          -45 callgsubr
          60 -45 callsubr
          84 68 -7 194 48 67 hintmask 00000000
          hintmask 10101010
          -87 callsubr
          hintmask 11001010
          -93 callgsubr
          hintmask 00010100
          120 321 -91 callsubr
        </CharString>
        <CharString name="ugrave.smcp">
          -30 callgsubr
          66 -45 callsubr
          83 70 21 194 79 -1 callgsubr
          hintmask 11010100
          -95 callsubr
          hintmask 00101000
          -283 583 -91 callsubr
        </CharString>
        <CharString name="underscore">
          2 -140 57 hstem
          -3 512 vstem
          506 -140 rmoveto
          2 6 -35 callgsubr
          8 vhcurveto
          -506 hlineto
          -2 -8 -1 -8 -40 callsubr
          -8 2 -6 vhcurveto
          endchar
        </CharString>
        <CharString name="uni00AD">
          -58 callsubr
        </CharString>
        <CharString name="uring">
          -45 callgsubr
          60 8 callsubr
          84 68 10 56 102 56 11 67 hintmask 0000000000000000
          hintmask 1010010010000000
          -87 callsubr
          hintmask 1100010010000000
          -93 callgsubr
          hintmask 0001101100000000
          78 242 -85 callgsubr
        </CharString>
        <CharString name="uring.smcp">
          -30 callgsubr
          66 8 callsubr
          83 70 38 56 102 56 42 -1 callgsubr
          hintmask 11001001
          -95 callsubr
          hintmask 00110110
          -325 504 -85 callgsubr
        </CharString>
        <CharString name="v">
          -65 -5 65 426 8 3 -20 hstemhm
          12 416 hintmask 00000000
          hintmask 10110000
          228 60 rmoveto
          -6 -1 1 7 -2 hvcurveto
          -8 31 -23 73 -19 58 -81 242 rcurveline
          18 -6 -12 7 -15 hhcurveto
          -12 -11 -2 -10 -20 hvcurveto
          152 -443 rlineto
          -42 14 9 -5 29 hhcurveto
          14 18 1 4 15 hvcurveto
          hintmask 11010000
          38 106 76 221 51 159 -2 3 rcurveline
          3 -11 -9 2 -13 hhcurveto
          -8 -9 0 -3 -11 hvcurveto
          endchar
        </CharString>
        <CharString name="v.smcp">
          -14 -4 68 472 10 hstem
          20 456 vstem
          255 64 rmoveto
          -3 -2 1 6 -2 hvcurveto
          -12 40 -20 60 -12 36 -102 307 rcurveline
          28 -9 -13 6 -16 hhcurveto
          -15 -15 -4 -6 -14 hvcurveto
          172 -508 rlineto
          -30 10 16 -4 23 hhcurveto
          17 16 1 2 18 hvcurveto
          184 537 -3 5 rlineto
          4 -9 -14 1 -9 hhcurveto
          -8 -11 -1 -3 -10 hvcurveto
          endchar
        </CharString>
        <CharString name="w">
          196 -4 55 371 68 -4 8 3 -20 hstemhm
          34 637 hintmask 00000000
          hintmask 10011000
          143 42 rmoveto
          -41 10 19 -5 20 hhcurveto
          18 25 1 3 16 hvcurveto
          49 201 rlineto
          hintmask 11001000
          51 221 rlineto
          4 hlineto
          17 -73 18 -92 12 -56 36 -159 rcurveline
          -41 9 20 -5 26 hhcurveto
          16 24 16 callgsubr
          hintmask 10101000
          125 487 -2 3 rlineto
          3 -8 -11 2 -12 hhcurveto
          -13 17 callgsubr
          -8 hvcurveto
          -61 -259 -43 -181 rlineto
          -5 -1 1 8 -2 hvcurveto
          hintmask 11001000
          -97 430 rlineto
          2 -9 -20 1 -12 hhcurveto
          -11 -22 -1 -2 -10 hvcurveto
          -103 -439 rlineto
          -4 -2 1 8 -2 hvcurveto
          -9 40 -15 71 -14 61 -54 238 rcurveline
          23 -5 -14 4 -12 hhcurveto
          -11 -13 -2 -9 -19 hvcurveto
          endchar
        </CharString>
        <CharString name="w.smcp">
          227 -4 60 410 69 2 8 3 -20 hstemhm
          36 668 hintmask 00000000
          hintmask 10011000
          151 33 rmoveto
          -31 6 21 -6 21 hhcurveto
          16 25 1 3 18 hvcurveto
          64 263 rlineto
          hintmask 11001000
          12 49 18 79 15 75 rrcurveto
          5 hlineto
          14 -75 18 -82 10 -46 51 -232 rcurveline
          -29 6 15 -6 21 hhcurveto
          17 28 1 4 18 hvcurveto
          hintmask 10101000
          134 536 -4 4 rlineto
          3 -10 -10 15 callsubr
          7 callsubr
          -76 -324 -9 -37 -16 -74 -10 -51 rlinecurve
          -4 -1 1 8 -2 hvcurveto
          hintmask 11001000
          -101 470 rlineto
          2 -9 -23 15 callsubr
          -21 -1 -2 -13 hvcurveto
          -111 -479 rlineto
          -4 -1 1 8 -2 hvcurveto
          -31 153 -63 295 rlineto
          25 -6 -9 10 -19 hhcurveto
          -13 -17 -4 -6 -13 hvcurveto
          endchar
        </CharString>
        <CharString name="x">
          -58 10 -20 504 -20 24 -20 hstemhm
          23 400 hintmask 00000000
          hintmask 11010000
          335 490 rmoveto
          -109 -178 rlineto
          hintmask 10110000
          -107 165 rlineto
          13 -9 -9 8 -17 hhcurveto
          -15 -20 -9 -8 -12 hvcurveto
          146 -224 -160 -249 3 -6 rlineto
          -4 7 13 -3 13 hhcurveto
          9 17 2 2 5 hvcurveto
          128 204 123 -189 rlineto
          -13 9 8 -8 17 hhcurveto
          16 19 9 8 13 hvcurveto
          -163 250 rlineto
          hintmask 11010000
          141 222 -3 6 rlineto
          3 -6 -13 6 callsubr
        </CharString>
        <CharString name="x.smcp">
          -9 8 -20 547 11 0 -20 22 -20 hstemhm
          16 464 hintmask 00000000
          hintmask 10101000
          390 542 rmoveto
          -136 -200 rlineto
          hintmask 10011000
          -121 177 rlineto
          20 -13 -12 9 -20 hhcurveto
          -17 -13 -5 -11 -16 hvcurveto
          165 -243 -191 -281 3 -5 rlineto
          -4 8 14 -3 14 hhcurveto
          10 14 2 2 6 hvcurveto
          158 235 146 -213 rlineto
          -20 13 14 -8 17 hhcurveto
          18 16 6 12 13 hvcurveto
          -190 277 rlineto
          hintmask 11001000
          168 246 -3 5 rlineto
          4 -8 -14 2 -13 hhcurveto
          hintmask 10101000
          -10 -14 -2 -2 -6 hvcurveto
          endchar
        </CharString>
        <CharString name="y">
          -32 callgsubr
          hstemhm
          8 424 hintmask 00000000
          hintmask 11101000
          -69 callgsubr
          hintmask 11011000
          -82 callgsubr
          endchar
        </CharString>
        <CharString name="y.smcp">
          -81 549 -20 hstem
          178 70 vstem
          -86 callgsubr
          endchar
        </CharString>
        <CharString name="yacute">
          -32 callgsubr
          59 -45 callsubr
          8 424 -270 194 hintmask 00000000
          hintmask 11100100
          -69 callgsubr
          hintmask 11010100
          -82 callgsubr
          hintmask 00001010
          -132 548 -102 callgsubr
        </CharString>
        <CharString name="yacute.smcp">
          -81 549 -20 59 -45 callsubr
          154 194 -170 70 hintmask 10010000
          -86 callgsubr
          hintmask 01100000
          -193 75 -102 callgsubr
        </CharString>
        <CharString name="ydieresis">
          -32 callgsubr
          95 65 hstemhm
          8 424 -340 10 callgsubr
          hintmask 00000000
          hintmask 11100100
          -69 callgsubr
          hintmask 11010100
          -82 callgsubr
          hintmask 00001011
          -27 588 -107 callgsubr
        </CharString>
        <CharString name="ydieresis.smcp">
          -81 549 -20 95 65 hstemhm
          84 82 12 70 11 82 hintmask 10010000
          -86 callgsubr
          hintmask 01101000
          -88 115 -107 callgsubr
        </CharString>
        <CharString name="yen">
          -10 186 53 89 54 265 -20 hstem
          212 69 vstem
          435 186 rmoveto
          2 8 1 4 -47 callgsubr
          4 20 callgsubr
          -150 hlineto
          39 89 rlineto
          111 -27 callgsubr
          10 vhcurveto
          -88 hlineto
          117 265 -3 5 rlineto
          3 -11 -11 1 -12 hhcurveto
          -10 -12 -2 -3 -10 hvcurveto
          -104 -250 -13 -27 -15 -47 -10 -29 rlinecurve
          -5 hlineto
          -10 28 -18 50 -12 25 -93 225 rcurveline
          20 -9 -11 11 -18 hhcurveto
          -15 -11 -2 -12 -21 hvcurveto
          115 -261 rlineto
          -87 -28 callsubr
          -9 vhcurveto
          111 hlineto
          39 -89 rlineto
          -150 -28 callsubr
          -8 vhcurveto
          154 -186 hlineto
          -2 9 12 -18 callsubr
          186 vlineto
          endchar
        </CharString>
        <CharString name="yen.smcp">
          -62 149 52 69 52 217 9 hstem
          187 66 vstem
          391 149 rmoveto
          15 callgsubr
          9 vvcurveto
          9 -1 9 -2 9 vhcurveto
          -134 hlineto
          32 69 rlineto
          102 hlineto
          15 callgsubr
          9 vvcurveto
          9 -1 8 20 callgsubr
          -77 hlineto
          102 217 -3 5 rlineto
          3 -12 -7 1 -11 hhcurveto
          -10 -14 -2 -3 -10 hvcurveto
          -89 -200 -13 -29 -11 -28 -10 -32 rlinecurve
          -4 hlineto
          -9 25 -13 35 -13 29 -80 177 rcurveline
          17 -8 -10 12 -18 hhcurveto
          -14 -12 -4 -10 -19 hvcurveto
          100 -213 rlineto
          -77 hlineto
          -2 -8 -1 -9 0 callgsubr
          -6 -38 callgsubr
          101 hlineto
          33 -69 rlineto
          -134 -17 callsubr
          -9 -9 vvcurveto
          -9 1 -7 -38 callgsubr
          138 -149 hlineto
          -2 9 13 -1 12 hhcurveto
          12 -47 callsubr
          149 vlineto
          endchar
        </CharString>
        <CharString name="z">
          -9 callsubr
          hstem
          54 65 206 62 vstem
          -97 callsubr
          endchar
        </CharString>
        <CharString name="z.smcp">
          -8 callsubr
          hstem
          364 62 vstem
          -97 callgsubr
          endchar
        </CharString>
        <CharString name="zacute">
          -9 callsubr
          46 -45 callsubr
          54 65 43 194 -31 62 hintmask 11010100
          -97 callsubr
          hintmask 00101000
          -85 227 -102 callgsubr
        </CharString>
        <CharString name="zacute.smcp">
          -8 callsubr
          46 -45 callsubr
          190 194 -20 62 hintmask 11001000
          -97 callgsubr
          hintmask 00110000
          -103 219 -102 callgsubr
        </CharString>
        <CharString name="zcaron">
          -9 callsubr
          57 -11 callsubr
          54 65 -25 268 -37 62 hintmask 11010100
          -97 callsubr
          hintmask 00101000
          -116 372 -103 callsubr
        </CharString>
        <CharString name="zcaron.smcp">
          -8 callsubr
          57 -11 callsubr
          122 268 -26 62 hintmask 11001000
          -97 callgsubr
          hintmask 00110000
          -134 364 -103 callsubr
        </CharString>
        <CharString name="zdotaccent">
          -9 callsubr
          98 71 hstemhm
          54 65 56 91 59 62 hintmask 11010100
          -97 callsubr
          hintmask 00101000
          -72 286 -95 callgsubr
          endchar
        </CharString>
        <CharString name="zdotaccent.smcp">
          -8 callsubr
          98 71 hstemhm
          203 91 70 62 hintmask 11001000
          -97 callgsubr
          hintmask 00110000
          -90 278 -95 callgsubr
          endchar
        </CharString>
        <CharString name="zero">
          -12 57 558 57 hstem
          56 75 268 75 vstem
          56 324 rmoveto
          -136 16 -85 59 -62 vhcurveto
          -33 33 40 -20 61 hhcurveto
          61 40 20 33 33 hvcurveto
          59 62 16 85 136 vvcurveto
          135 -16 86 -59 62 vhcurveto
          33 -33 -39 20 -61 hhcurveto
          -62 -41 -20 -33 -32 hvcurveto
          -60 -62 -15 -86 -135 vvcurveto
          75 hmoveto
          131 13 72 39 42 vhcurveto
          22 20 26 12 36 hhcurveto
          36 26 -12 -22 20 hvcurveto
          39 -42 13 -72 -131 vvcurveto
          -131 -13 -72 -39 -42 vhcurveto
          -22 -20 -26 -12 -36 hhcurveto
          -36 -26 12 22 -20 hvcurveto
          -39 42 -13 72 131 vvcurveto
          endchar
        </CharString>
        <CharString name="zero.smcp">
          -22 -12 56 455 55 hstem
          52 74 231 73 vstem
          52 271 rmoveto
          -106 14 -81 53 -50 vhcurveto
          -28 30 36 -18 56 hhcurveto
          56 36 18 28 30 hvcurveto
          53 50 14 81 106 vvcurveto
          105 -14 83 -53 50 vhcurveto
          28 -30 -35 17 -56 hhcurveto
          -57 -37 -17 -27 -29 hvcurveto
          -55 -50 -12 -84 -105 vvcurveto
          74 hmoveto
          99 11 68 33 33 vhcurveto
          18 17 23 10 31 hhcurveto
          32 23 -10 -18 17 hvcurveto
          33 -33 11 -68 -99 vvcurveto
          -99 -11 -68 -33 -32 vhcurveto
          -18 -17 -23 -10 -32 hhcurveto
          -31 -23 10 18 -17 hvcurveto
          -33 32 -11 68 99 vvcurveto
          endchar
        </CharString>
      <CharString index="0">
        rmoveto
        -12 3 -12 4 -9 vhcurveto
        -5 7 19 -4 12 hhcurveto
        13 18 4 5 -35 callsubr
        13 -65 callgsubr
        12 -42 callsubr
        5 -7 -17 4 -13 hhcurveto
        -12 -18 -4 -5 -8 -58 callgsubr
        -43 callgsubr
        -175 hmoveto
        -12 3 -12 4 -9 vhcurveto
        -5 6 19 -4 12 hhcurveto
        13 18 4 5 -53 callgsubr
        13 -65 callgsubr
        12 -4 8 -12 callgsubr
        -17 4 -13 hhcurveto
        -12 -18 -4 -5 -7 -58 callgsubr
        -43 callgsubr
        endchar
      </CharString>
      <CharString index="1">
        445 28 rmoveto
        -25 24 -3 33 43 vvcurveto
        206 vlineto
        107 -48 59 -105 -70 -75 -25 -22 -49 vhcurveto
        -19 12 -25 13 -10 vhcurveto
        24 53 56 18 55 hhcurveto
        57 36 -28 -77 hvcurveto
        -53 vlineto
        7 -38 -41 3 -34 hhcurveto
        -112 -75 -50 -110 -71 47 -74 97 67 55 40 37 37 hvcurveto
        6 -33 17 -25 35 -14 15 7 12 16 5 12 rrcurveto
        -241 19 rmoveto
        -54 -28 40 51 65 45 37 72 37 41 -3 -5 35 hvcurveto
        -99 vlineto
        -58 -43 -58 -28 -47 hhcurveto
        return
      </CharString>
      <CharString index="2">
        505 62 rmoveto
        -276 hlineto
        -25 -19 -1 -1 -17 hvcurveto
        13 -16 callgsubr
        222 vlineto
        -1 21 22 0 16 hhcurveto
        211 10 callsubr
        1 12 2 callgsubr
        -1 12 20 callgsubr
        -211 hlineto
        -16 -22 -1 -21 hhcurveto
        186 vlineto
        26 -1 9 26 vvcurveto
        -1 22 22 1 16 hhcurveto
        259 18 callgsubr
        1 14 -48 callsubr
        10 -2 11 vhcurveto
        -384 -68 callsubr
        -630 vlineto
        -29 16 -18 25 vhcurveto
        return
      </CharString>
      <CharString index="3">
        215 60 rmoveto
        -24 -17 0 -1 -14 hvcurveto
        6 1 -23 callsubr
        153 vlineto
        -1 19 20 1 14 hhcurveto
        177 10 callsubr
        0 12 -48 callsubr
        13 -2 9 vhcurveto
        -177 hlineto
        -14 -20 -1 -19 hhcurveto
        129 vlineto
        20 -1 18 12 vvcurveto
        -1 20 20 1 14 hhcurveto
        221 hlineto
        3 11 1 13 7 vvcurveto
        8 0 10 20 callgsubr
        -340 hlineto
        -5 -5 rlineto
        -493 vlineto
        -27 16 -17 25 vhcurveto
        273 hlineto
        25 15 -54 callsubr
        6 vvcurveto
        return
      </CharString>
      <CharString index="4">
        133 342 rmoveto
        131 37 162 156 156 36 -162 -131 -131 -36 -163 -156 -156 -37 163 131 vhcurveto
        -75 hmoveto
        -112 30 -116 76 -68 vhcurveto
        -35 39 49 -23 74 hhcurveto
        74 49 23 35 38 hvcurveto
        76 68 30 116 112 vvcurveto
        110 -30 117 -76 68 vhcurveto
        35 -38 -49 23 -74 hhcurveto
        -74 -49 -23 -35 -39 hvcurveto
        -76 -68 -30 -117 -110 vvcurveto
        return
      </CharString>
      <CharString index="5">
        rmoveto
        5 -12 13 -13 14 -4 162 129 rcurveline
        -10 22 -23 23 -26 8 rrcurveto
        endchar
      </CharString>
      <CharString index="6">
        45 -28 73 -32 96 1 rrcurveto
        128 2 73 67 92 vvcurveto
        73 -62 47 -72 25 vhcurveto
        -108 37 rlineto
        -57 21 -28 16 40 vvcurveto
        51 42 34 69 1 vhcurveto
        50 1 64 -14 50 -22 rrcurveto
        15 13 10 21 21 vvcurveto
        -47 21 -71 20 -69 -1 rrcurveto
        -121 -2 -65 -69 -81 vvcurveto
        -64 42 -42 80 -26 vhcurveto
        112 -37 rlineto
        60 -20 33 -34 -42 vvcurveto
        -55 -60 -35 -66 -1 vhcurveto
        -79 -1 -60 30 -46 26 -16 -11 -14 -22 -1 -21 rrcurveto
        return
      </CharString>
      <CharString index="7">
        466 245 rmoveto
        79 -18 72 -52 53 vhcurveto
        35 -35 -45 18 -57 hhcurveto
        -56 -45 -18 -35 -35 hvcurveto
        -52 -53 -18 -72 -79 vvcurveto
        -80 18 -71 52 -53 vhcurveto
        -35 35 45 -18 56 hhcurveto
        57 45 18 35 35 hvcurveto
        52 53 18 71 80 vvcurveto
        -342 hmoveto
        99 33 105 103 102 33 -105 -99 -100 -33 -103 -102 -103 -33 103 100 vhcurveto
        return
      </CharString>
      <CharString index="8">
        rmoveto
        14 4 16 13 8 16 -102 127 rcurveline
        -17 3 -28 1 -15 -5 -107 -132 rcurveline
        8 -15 10 -10 16 -7 102 99 rcurveline
        endchar
      </CharString>
      <CharString index="9">
        473 387 rmoveto
        98 -70 60 -125 -61 -56 -1 -2 -64 vhcurveto
        -5 -5 rlineto
        -537 vlineto
        -83 callsubr
        227 89 vlineto
        60 22 -28 -42 18 hvcurveto
        52 -118 rlineto
        -28 12 9 -16 28 hhcurveto
        17 19 7 15 10 hvcurveto
        -13 13 -12 24 -12 26 -45 100 rcurveline
        -13 30 -16 22 -32 13 rrcurveto
        69 17 49 56 69 vvcurveto
        -311 102 rmoveto
        -1 33 52 0 29 hhcurveto
        99 25 -54 -47 -45 -25 -57 -99 -31 -42 -1 -1 -41 hvcurveto
        return
      </CharString>
      <CharString index="10">
        57 79 rmoveto
        -8 -12 -3 -12 -10 1 callgsubr
        9 -30 vhcurveto
        336 hlineto
        39 13 15 24 13 -3 10 -4 12 hvcurveto
        -9 -23 -36 -4 -49 hhcurveto
        -112 hlineto
        -23 -33 -1 -4 -38 hvcurveto
        -2 3 23 29 28 33 20 27 rlinecurve
        234 318 rlineto
        7 10 4 10 10 vvcurveto
        7 -2 9 -9 30 vhcurveto
        -354 hlineto
        -7 callsubr
        -7 1 -8 9 callsubr
        151 hlineto
        22 96 1 4 23 hvcurveto
        3 -2 -27 -32 -25 -29 -19 -26 rlinecurve
        return
      </CharString>
      <CharString index="11">
        563 686 rmoveto
        -23 hlineto
        -32 -4 -16 -30 hvcurveto
        -335 vlineto
        -69 2 -82 3 -72 vhcurveto
        -3 1 hlineto
        -22 44 -22 48 -26 47 -249 461 rcurveline
        2 -12 -23 1 -9 hhcurveto
        -8 -23 -1 -2 -12 hvcurveto
        -683 vlineto
        -2 12 11 -1 10 hhcurveto
        10 10 16 callgsubr
        388 vlineto
        69 -4 81 -2 60 vhcurveto
        3 hlineto
        22 -46 21 -43 26 -48 250 -461 rcurveline
        -2 11 24 -1 9 hhcurveto
        9 22 1 2 12 hvcurveto
        681 vlineto
        return
      </CharString>
      <CharString index="12">
        rmoveto
        -12 3 -16 4 -8 vhcurveto
        -6 8 19 3 callsubr
        13 23 4 6 -35 callsubr
        16 -65 callgsubr
        16 4 callgsubr
        6 -7 -22 4 -13 hhcurveto
        -15 -19 -4 -6 19 callsubr
        -7 -3 -16 -12 vvcurveto
        return
      </CharString>
      <CharString index="13">
        rmoveto
        -23 7 -34 23 callsubr
        rrcurveto
        7 -14 6 -20 -18 vvcurveto
        -37 -17 -29 -38 -27 vhcurveto
        3 -13 9 -14 12 -4 rrcurveto
        64 30 40 52 59 vvcurveto
        16 -4 20 -3 9 vhcurveto
        endchar
      </CharString>
      <CharString index="14">
        352 9 callgsubr
        -12 -53 callsubr
        -11 -64 callsubr
        -358 vlineto
        -45 -40 -66 -34 -53 hhcurveto
        -60 -16 34 82 hvcurveto
        282 vlineto
        30 -10 15 -25 -16 -18 -6 -9 -9 vhcurveto
        9 -22 1 -30 -32 vvcurveto
        return
      </CharString>
      <CharString index="15">
        64 459 rmoveto
        18 -19 18 -35 -48 vvcurveto
        -357 vlineto
        -2 8 -65 callsubr
        334 vlineto
        45 19 38 50 68 hhcurveto
        11 12 0 -1 10 hvcurveto
        12 18 4 25 22 vvcurveto
        3 -19 -16 1 -10 hhcurveto
        -67 -43 -40 -49 -24 hvcurveto
        -9 43 -21 31 -38 15 -14 -8 -12 -18 -4 -12 rrcurveto
        return
      </CharString>
      <CharString index="16">
        rmoveto
        13 4 16 12 5 17 -110 102 rcurveline
        -18 3 -31 0 -17 -3 -111 -106 rcurveline
        4 -15 14 -14 14 -5 112 80 rcurveline
        endchar
      </CharString>
      <CharString index="17">
        rmoveto
        -3 8 12 -1 11 hhcurveto
        10 11 1 3 7 hvcurveto
        83 65 vlineto
        3 7 1 14 8 vvcurveto
        7 -1 11 -1 7 vhcurveto
        -67 115 hlineto
        -1 2 rlineto
        -22 hlineto
        -20 -16 -16 -26 hvcurveto
        -75 -52 vlineto
        -15 -19 0 -1 -20 hvcurveto
        -1 2 11 17 11 22 10 22 rlinecurve
        93 198 -11 12 -29 6 -17 -3 rlinecurve
        -119 -250 rlineto
        -8 -14 -7 -18 -12 vvcurveto
        -11 6 -14 7 -10 vhcurveto
        160 hlineto
        endchar
      </CharString>
      <CharString index="18">
        rmoveto
        2 -17 9 -16 14 -7 41 17 34 24 25 33 rrcurveto
        -18 -1 -18 -15 vvcurveto
        -209 vlineto
        -13 -22 1 -11 hhcurveto
        -58 hlineto
        -2 -8 -1 -9 -9 -34 callgsubr
        -8 2 -10 vhcurveto
        246 -29 callgsubr
        9 8 vvcurveto
        9 -1 9 -2 8 vhcurveto
        -36 hlineto
        -11 -26 -1 -10 hhcurveto
        357 vlineto
        3 -11 -7 1 -9 hhcurveto
        -9 -11 -1 -3 -10 hvcurveto
        -23 -52 -37 -42 -66 -37 rrcurveto
        return
      </CharString>
      <CharString index="19">
        103 -12 56 366 58 177 53 hstem
        111 69 158 70 40 68 vstem
        111 hmoveto
        -2 10 14 -1 11 hhcurveto
        10 14 -79 callgsubr
        503 vlineto
        86 41 56 93 92 42 -66 -80 -13 -2 -15 -4 -14 vhcurveto
        -62 -22 -42 -45 -52 vvcurveto
        -40 24 -33 45 -37 vhcurveto
        40 -34 rlineto
        25 -21 22 -25 -31 vvcurveto
        -43 -41 -30 -55 -29 -38 9 15 -28 vhcurveto
        -15 -11 -12 -24 -1 -16 rrcurveto
        -19 36 51 -10 37 hhcurveto
        102 67 59 71 47 -32 42 -44 36 hvcurveto
        -37 30 rlineto
        -34 29 -13 20 21 vvcurveto
        28 25 37 69 18 vhcurveto
        -2 1 rlineto
        2 hlineto
        9 28 5 28 22 vvcurveto
        117 -78 76 -122 -120 -85 -67 -120 vhcurveto
        -43 vlineto
        -86 2 rlineto
        -39 callgsubr
        -10 0 callgsubr
        -11 26 callsubr
      </CharString>
      <CharString index="20">
        96 hmoveto
        -83 callsubr
        542 -39 callsubr
        -13 1 -12 hhcurveto
        -12 -14 -64 callsubr
        return
      </CharString>
      <CharString index="21">
        259 338 rmoveto
        -19 -44 -10 -31 -10 -28 rrcurveto
        -4 hlineto
        -9 26 -17 42 -14 32 -80 183 rcurveline
        21 -9 -11 10 -19 hhcurveto
        -16 -12 -4 -8 -17 hvcurveto
        166 -366 rlineto
        -171 vlineto
        -2 9 14 -1 12 hhcurveto
        13 12 -79 callgsubr
        167 vlineto
        166 369 -3 5 rlineto
        3 -9 -12 2 -11 hhcurveto
        -10 -11 -1 -3 -11 hvcurveto
        return
      </CharString>
      <CharString index="22">
        rmoveto
        -56 45 -47 62 62 45 47 56 57 -45 47 -62 -62 -45 -47 -57 vhcurveto
        56 hmoveto
        34 22 24 29 29 22 -24 -34 -33 -22 -24 -29 -29 -22 24 33 vhcurveto
        endchar
      </CharString>
      <CharString index="23">
        -12 3 -23 5 -8 vhcurveto
        -5 9 23 -5 18 hhcurveto
        16 26 5 5 7 hvcurveto
        5 8 3 23 -65 callgsubr
        23 -5 7 -12 callgsubr
        -25 5 -16 hhcurveto
        -18 -23 -5 -5 -9 -22 callsubr
        return
      </CharString>
</ttFont>
